<?xml version="1.0" standalone="no"?>
<!DOCTYPE svg PUBLIC "-//W3C//DTD SVG 1.1//EN" "http://www.w3.org/Graphics/SVG/1.1/DTD/svg11.dtd" >
<svg xmlns="http://www.w3.org/2000/svg">
<metadata></metadata>
<defs>
<font id="tele-groteskultregular" horiz-adv-x="1024" vert-adv-y="2048" >
<font-face units-per-em="2048" ascent="1679" descent="-369" />
<missing-glyph horiz-adv-x="300" />
<glyph horiz-adv-x="2048" vert-adv-y="0" />
<glyph horiz-adv-x="2048" vert-adv-y="0" />
<glyph unicode="&#xd;" horiz-adv-x="2048" vert-adv-y="0" />
<glyph unicode=" " horiz-adv-x="300" vert-adv-y="1433" />
<glyph unicode="!" horiz-adv-x="546" vert-adv-y="1433" d="M123 0v294h300v-294h-300zM140 997v368h268v-364l-67 -585h-135z" />
<glyph unicode="&#x22;" horiz-adv-x="803" vert-adv-y="1433" d="M55 1365h313l-56 -520h-201zM436 1365h313l-56 -520h-201z" />
<glyph unicode="#" horiz-adv-x="1161" vert-adv-y="1433" d="M76 430v160h200l30 208h-178v160h200l48 339h195l-48 -339h187l48 339h195l-47 -339h180v-160h-203l-29 -208h180v-160h-203l-50 -362h-196l51 362h-187l-51 -362h-195l51 362h-178zM472 590h187l29 208h-187z" />
<glyph unicode="$" horiz-adv-x="1056" vert-adv-y="1433" d="M41 412h268q16 -78 51 -119q30 -36 85 -60v362q-105 39 -158 67q-207 112 -207 333q0 122 66 210q74 99 210 133q34 8 89 15v94h160v-98q143 -22 236 -94q87 -68 121 -166q11 -31 20 -84h-259q-10 54 -35 82q-27 31 -83 50v-321q410 -132 410 -424q0 -229 -218 -330 q-81 -38 -192 -50v-94h-160v95q-165 24 -264 118q-117 111 -140 281zM322 1003q0 -60 47 -102q24 -20 76 -45v289q-123 -35 -123 -142zM605 225q57 16 89 45q54 49 54 119q0 102 -143 167v-331z" />
<glyph unicode="%" horiz-adv-x="1801" vert-adv-y="1433" d="M20 961q0 195 104 311q100 111 255 111q149 0 246 -106q109 -120 109 -321q0 -174 -82 -290q-99 -139 -273 -139q-179 0 -279 142q-80 114 -80 292zM220 960q0 -119 45 -194q40 -67 114 -67q69 0 107 62q48 78 48 197q0 111 -44 186q-40 67 -112 67q-73 0 -113 -67 q-45 -76 -45 -184zM518 0l588 1365h176l-585 -1365h-179zM1067 415q0 195 104 311q100 111 255 111q148 0 246 -106q109 -118 109 -321q0 -174 -82 -290q-99 -139 -273 -139q-178 0 -279 142q-80 114 -80 292zM1267 414q0 -119 45 -194q40 -67 114 -67q69 0 107 62 q48 78 48 197q0 112 -44 186q-40 67 -112 67q-73 0 -113 -67q-45 -76 -45 -184z" />
<glyph unicode="&#x26;" horiz-adv-x="1127" vert-adv-y="1433" d="M41 366q0 108 57 209q43 76 136 151q15 12 52 40q-49 70 -67 101q-59 100 -59 209q0 157 123 250q91 68 223 68q151 0 246 -86q92 -84 92 -207q0 -155 -160 -298q-34 -32 -93 -78l227 -314q22 70 25 156h234q-13 -111 -36 -186q-26 -84 -80 -169l153 -212h-275l-37 51 q-127 -80 -304 -80q-198 0 -321 103q-136 113 -136 292zM318 384q0 -100 60 -160q56 -56 146 -56q81 0 158 49l-267 371q-97 -86 -97 -204zM401 1081q0 -83 67 -183q4 4 9 8q123 94 123 200q0 43 -25 74q-27 33 -72 33q-39 0 -67 -28q-35 -36 -35 -104z" />
<glyph unicode="'" horiz-adv-x="422" vert-adv-y="1433" d="M55 1365h313l-56 -520h-201z" />
<glyph unicode="(" horiz-adv-x="564" vert-adv-y="1433" d="M53 499q0 305 102 603q56 165 116 263h208q-9 -23 -48 -118q-66 -159 -103 -392q-26 -161 -26 -348q0 -471 180 -862h-209q-59 105 -111 247q-109 294 -109 607z" />
<glyph unicode=")" horiz-adv-x="564" vert-adv-y="1433" d="M82 -355q180 392 180 862q0 333 -93 639q-2 6 -84 219h207q69 -112 130 -303q89 -277 89 -563q0 -334 -126 -653q-46 -114 -95 -201h-208z" />
<glyph unicode="*" horiz-adv-x="819" vert-adv-y="1433" d="M59 1055l48 146l228 -83l-4 247h157l-8 -247l229 83l51 -146l-233 -73l147 -196l-123 -93l-145 202l-144 -200l-124 93l154 194z" />
<glyph unicode="+" vert-adv-y="1433" d="M41 596v187h374v348h195v-348h373v-187h-373v-348h-195v348h-374z" />
<glyph unicode="," horiz-adv-x="546" vert-adv-y="1433" d="M123 0v294h300v-228q0 -136 -37 -213q-35 -73 -119 -124q-59 -37 -144 -48v143q120 32 127 176h-127z" />
<glyph unicode="-" horiz-adv-x="453" vert-adv-y="1433" d="M0 387v246h453v-246h-453z" />
<glyph unicode="." horiz-adv-x="546" vert-adv-y="1433" d="M123 0v294h300v-294h-300z" />
<glyph unicode="/" horiz-adv-x="768" vert-adv-y="1433" d="M-48 -355l530 1720h221l-524 -1720h-227z" />
<glyph unicode="0" horiz-adv-x="1000" vert-adv-y="1433" d="M68 685q0 333 109 513q120 196 325 196q132 0 233 -84q197 -162 197 -634q0 -326 -108 -506q-118 -199 -320 -199q-229 0 -346 231q-90 176 -90 483zM337 683q0 -230 34 -346q41 -141 131 -141q161 0 161 482q0 235 -34 351q-41 140 -131 140q-161 0 -161 -486z" />
<glyph unicode="1" horiz-adv-x="1000" vert-adv-y="1433" d="M171 898v206q144 5 205 80q43 52 68 181h206v-1365h-269v960q-44 -38 -95 -52q-34 -9 -115 -10z" />
<glyph unicode="2" horiz-adv-x="1000" vert-adv-y="1433" d="M60 0q4 221 71 357q55 113 176 215q35 31 167 125q106 77 145 145q39 67 39 144q0 70 -36 114q-43 55 -119 55q-87 0 -128 -90q-19 -41 -24 -100h-266q11 171 105 288q116 143 314 143q193 0 307 -117q105 -107 105 -277q0 -182 -117 -309q-72 -78 -231 -187 q-134 -93 -175 -145q-42 -53 -50 -120h562v-241h-845z" />
<glyph unicode="3" horiz-adv-x="1000" vert-adv-y="1433" d="M58 381h263q1 -64 25 -106q40 -70 134 -70q79 0 123 56q46 58 46 152q0 96 -52 148q-47 49 -153 49h-40v197h63q68 0 114 51q47 52 47 143q0 79 -41 124q-39 44 -105 44q-130 0 -135 -173h-261q5 154 81 253q111 145 329 145q181 0 289 -105q105 -103 105 -267 q0 -127 -68 -218q-36 -49 -104 -78q80 -27 129 -84q83 -97 83 -247q0 -181 -120 -301q-123 -123 -327 -123q-193 0 -308 106q-117 108 -117 304z" />
<glyph unicode="4" horiz-adv-x="1000" vert-adv-y="1433" d="M60 294v250l486 821h250v-850h141v-221h-141v-294h-261v294h-475zM283 515h252v473z" />
<glyph unicode="5" horiz-adv-x="1000" vert-adv-y="1433" d="M49 342h269q6 -49 24 -78q43 -68 127 -68q95 0 141 90q36 70 36 167q0 104 -37 177q-42 85 -134 85q-64 0 -106 -44q-22 -24 -45 -68h-240l95 762h661v-238h-450l-42 -281q82 69 196 69q159 0 262 -105q117 -120 117 -335q0 -232 -141 -377q-123 -127 -311 -127 q-124 0 -227 52q-185 95 -195 319z" />
<glyph unicode="6" horiz-adv-x="1000" vert-adv-y="1433" d="M66 648q0 383 144 580q122 166 320 166q208 0 312 -153q52 -74 67 -185h-261q-27 129 -122 129q-166 0 -192 -386q93 117 232 117q162 0 266 -123q110 -129 110 -336q0 -228 -135 -365q-119 -121 -288 -121q-137 0 -243 81q-210 159 -210 596zM351 453q0 -97 39 -173 q45 -86 124 -86q67 0 111 71q48 77 48 185q0 107 -44 181q-46 80 -119 80q-76 0 -120 -87q-39 -77 -39 -171z" />
<glyph unicode="7" horiz-adv-x="1000" vert-adv-y="1433" d="M109 1115v250h783v-225q-99 -142 -144 -230q-126 -247 -177 -553q-26 -154 -36 -357h-280q6 322 156 702q110 282 220 413h-522z" />
<glyph unicode="8" horiz-adv-x="1000" vert-adv-y="1433" d="M57 377q0 170 100 277q49 52 124 78q-179 80 -179 301q0 173 126 272q115 89 274 89q171 0 288 -103q108 -94 108 -255q0 -126 -68 -216q-41 -55 -111 -88q224 -84 224 -345q0 -188 -122 -301q-122 -115 -322 -115q-196 0 -319 108t-123 298zM329 407q0 -94 43 -158 q47 -69 131 -69q82 0 126 70q42 66 42 152q0 95 -43 159q-46 69 -130 69t-131 -75q-38 -63 -38 -148zM355 1009q0 -77 33 -133q37 -62 115 -62q58 0 93 40q49 56 49 154q0 87 -39 134t-107 47q-62 0 -98 -41q-46 -52 -46 -139z" />
<glyph unicode="9" horiz-adv-x="1000" vert-adv-y="1433" d="M58 910q0 227 133 363q117 121 284 121q138 0 246 -83q213 -162 213 -607q0 -377 -144 -570q-121 -163 -319 -163q-208 0 -313 153q-52 75 -67 185h261q27 -128 123 -128q103 0 151 153q32 101 40 233q-92 -117 -232 -117q-162 0 -267 123q-109 129 -109 337zM327 920 q0 -108 44 -185q45 -80 119 -80q77 0 120 88q39 77 39 173t-39 170q-45 85 -123 85q-68 0 -112 -70q-48 -77 -48 -181z" />
<glyph unicode=":" horiz-adv-x="546" vert-adv-y="1433" d="M123 0v294h300v-294h-300zM123 648v294h300v-294h-300z" />
<glyph unicode=";" horiz-adv-x="546" vert-adv-y="1433" d="M123 0v294h300v-228q0 -136 -37 -213q-35 -73 -119 -124q-59 -37 -144 -48v143q120 32 127 176h-127zM123 648v294h300v-294h-300z" />
<glyph unicode="&#x3c;" vert-adv-y="1433" d="M68 556v256l887 465v-304l-564 -290l564 -291v-303z" />
<glyph unicode="=" vert-adv-y="1433" d="M41 425v187h942v-187h-942zM41 767v187h942v-187h-942z" />
<glyph unicode="&#x3e;" vert-adv-y="1433" d="M69 89v303l564 291l-564 290v304l887 -466v-255z" />
<glyph unicode="?" horiz-adv-x="957" vert-adv-y="1433" d="M86 927l1 15q7 171 76 280q111 176 335 176q178 0 283 -110q106 -111 106 -282q0 -130 -62 -217q-49 -66 -126 -131q-48 -39 -63 -63q-36 -56 -39 -130q-2 -27 -2 -51h-234q1 9 1 16q2 164 35 235q24 52 134 159q60 59 77 106q13 39 13 80q0 61 -28 101q-35 51 -98 51 q-147 0 -156 -235h-253zM328 0v294h300v-294h-300z" />
<glyph unicode="@" horiz-adv-x="1509" vert-adv-y="1433" d="M65 592q0 231 123 435q114 189 315 286q168 83 351 83q251 0 425 -139q99 -79 151 -191q48 -104 48 -223q0 -174 -97 -317q-76 -111 -183 -159q-69 -31 -138 -31q-91 0 -147 66q-93 -76 -197 -76q-119 0 -193 84q-69 80 -69 208q0 163 102 280q93 106 234 106 q95 0 164 -61l7 39h183l-80 -403q-6 -28 -6 -79q0 -25 22 -25q56 0 126 74q110 116 110 294q0 187 -130 303t-330 116q-253 0 -430 -187q-181 -192 -181 -480q0 -216 118 -348q130 -146 382 -146q195 0 360 73q15 7 105 50l53 -136q-62 -30 -82 -38q-194 -83 -444 -83 q-316 0 -491 167q-181 173 -181 458zM645 625q0 -61 25 -106q26 -49 78 -49q80 0 128 90q38 71 38 161q0 62 -24 100q-26 43 -74 43q-79 0 -128 -83q-43 -70 -43 -156z" />
<glyph unicode="A" horiz-adv-x="1157" vert-adv-y="1433" d="M-4 0l433 1365h300l432 -1365h-305l-85 305h-389l-86 -305h-300zM445 526h265l-132 471z" />
<glyph unicode="B" horiz-adv-x="1146" vert-adv-y="1433" d="M106 0v1365h487q145 0 224 -27q114 -40 169 -130q49 -79 49 -176q0 -201 -196 -292q249 -84 249 -338q0 -222 -168 -333q-105 -69 -281 -69h-533zM399 233h158q123 0 174 41q64 51 64 148q0 113 -85 159q-50 27 -165 27h-146v-375zM399 813h131q108 0 154 33 q62 46 62 130q0 94 -75 134q-40 22 -141 22h-131v-319z" />
<glyph unicode="C" horiz-adv-x="1200" vert-adv-y="1433" d="M57 679q0 326 171 530q157 187 408 187q269 0 419 -216q85 -123 96 -274h-290q-14 79 -43 129q-64 111 -186 111q-136 0 -208 -129q-74 -134 -74 -335q0 -204 77 -340q70 -125 202 -125q114 0 175 99q46 76 62 213h293q-16 -217 -122 -363q-145 -199 -408 -199 q-249 0 -395 171q-177 209 -177 541z" />
<glyph unicode="D" horiz-adv-x="1217" vert-adv-y="1433" d="M106 0v1365h421q278 0 437 -148q195 -180 195 -530q0 -342 -184 -530q-100 -103 -231 -134q-93 -23 -218 -23h-420zM399 250h131q156 0 227 74q109 115 109 364q0 206 -92 323q-81 104 -252 104h-123v-865z" />
<glyph unicode="E" horiz-adv-x="1065" vert-adv-y="1433" d="M106 0v1365h871v-250h-578v-292h528v-238h-528v-335h590v-250h-883z" />
<glyph unicode="F" horiz-adv-x="975" vert-adv-y="1433" d="M106 0v1365h826v-250h-537v-318h465v-238h-465v-559h-289z" />
<glyph unicode="G" horiz-adv-x="1251" vert-adv-y="1433" d="M57 675q0 302 151 504q162 218 431 218q229 0 377 -170q95 -110 120 -246q4 -22 9 -67h-285q-15 84 -48 134q-63 99 -177 99q-138 0 -212 -131q-73 -127 -73 -337q0 -224 82 -351q75 -115 210 -115q124 0 194 105q50 75 59 198h-245v221h510v-737h-215v154 q-56 -72 -98 -106q-100 -81 -240 -81q-257 0 -406 207q-144 200 -144 501z" />
<glyph unicode="H" horiz-adv-x="1234" vert-adv-y="1433" d="M106 0v1365h293v-519h435v519h293v-1365h-293v596h-435v-596h-293z" />
<glyph unicode="I" horiz-adv-x="506" vert-adv-y="1433" d="M106 0v1365h293v-1365h-293z" />
<glyph unicode="J" horiz-adv-x="634" vert-adv-y="1433" d="M0 -19v233q60 -15 100 -15q103 0 136 112q15 54 15 236v818h293v-846q0 -170 -22 -261q-70 -291 -393 -291q-58 0 -129 14z" />
<glyph unicode="K" horiz-adv-x="1160" vert-adv-y="1433" d="M106 0v1365h293v-516l406 516h327l-465 -563l503 -802h-328l-360 576l-83 -100v-476h-293z" />
<glyph unicode="L" horiz-adv-x="987" vert-adv-y="1433" d="M106 0v1365h293v-1111h536v-254h-829z" />
<glyph unicode="M" horiz-adv-x="1484" vert-adv-y="1433" d="M106 0v1365h397l243 -935l237 935h394v-1365h-281v949l-233 -949h-238l-238 937v-937h-281z" />
<glyph unicode="N" horiz-adv-x="1218" vert-adv-y="1433" d="M106 0v1365h296l428 -878v878h281v-1365h-293l-431 877v-877h-281z" />
<glyph unicode="O" horiz-adv-x="1278" vert-adv-y="1433" d="M57 692q0 326 171 520q162 184 414 184q243 0 400 -176q179 -199 179 -538q0 -290 -135 -485q-80 -115 -202 -176q-109 -54 -242 -54q-290 0 -453 235q-132 190 -132 490zM350 690q0 -210 79 -346q36 -62 106 -100q51 -27 108 -27q83 0 150 58t104 184q31 106 31 227 q0 198 -78 333q-74 127 -210 127t-210 -127q-80 -138 -80 -329z" />
<glyph unicode="P" horiz-adv-x="1081" vert-adv-y="1433" d="M106 0v1365h433q162 0 247 -30q125 -46 194 -159q59 -98 59 -238q0 -235 -167 -360q-116 -88 -328 -88h-145v-490h-293zM399 728h142q117 0 162 55q43 53 43 141q0 100 -61 151q-47 40 -158 40h-128v-387z" />
<glyph unicode="Q" horiz-adv-x="1278" vert-adv-y="1433" d="M57 683q0 332 171 529q160 184 413 184q245 0 401 -176q179 -201 179 -537q0 -253 -117 -432q-24 -36 -60 -79l151 -157l-140 -138l-159 168q-130 -78 -270 -78q-179 0 -324 115q-245 193 -245 601zM350 684q0 -209 79 -350q36 -64 106 -103q51 -28 109 -28q39 0 86 19 l-159 169l136 134l156 -163q65 145 65 321q0 199 -78 336q-72 127 -210 127q-136 0 -210 -127q-80 -137 -80 -335z" />
<glyph unicode="R" horiz-adv-x="1195" vert-adv-y="1433" d="M106 0v1365h525q206 0 319 -90q129 -103 129 -291q0 -155 -91 -261q-40 -46 -105 -78q86 -30 129 -104q30 -51 43 -142q7 -45 18 -205q7 -101 22 -144q7 -20 25 -50h-302q-15 35 -20 78q-3 19 -14 176q-10 134 -36 189q-30 66 -92 84q-32 9 -89 9h-168v-536h-293z M399 757h161q133 0 183 56q43 49 43 136q0 105 -72 154q-43 29 -148 29h-167v-375z" />
<glyph unicode="S" horiz-adv-x="1042" vert-adv-y="1433" d="M41 399h295q12 -80 37 -119q52 -80 150 -80q87 0 135 54q42 46 42 116q0 79 -67 134q-32 26 -81 47q-14 6 -101 37q-168 59 -243 118q-149 118 -149 309q0 164 104 267q116 114 321 114q256 0 384 -175q60 -82 79 -216h-286q-10 79 -50 115q-48 42 -129 42 q-69 0 -108 -33q-45 -37 -45 -105q0 -77 68 -124q50 -36 198 -84q173 -56 268 -131q138 -110 138 -296t-128 -302q-133 -120 -355 -120q-265 0 -395 199q-66 102 -82 233z" />
<glyph unicode="T" horiz-adv-x="1026" vert-adv-y="1433" d="M35 1115v250h957v-250h-333v-1115h-293v1115h-331z" />
<glyph unicode="U" horiz-adv-x="1196" vert-adv-y="1433" d="M90 590v775h281v-795q0 -195 54 -272q58 -81 178 -81q130 0 177 111q33 76 33 243v794h293v-779q0 -184 -26 -279q-45 -163 -162 -252q-116 -88 -321 -88q-294 0 -421 198q-55 87 -74 209q-12 78 -12 216z" />
<glyph unicode="V" horiz-adv-x="1069" vert-adv-y="1433" d="M-4 1365h308l235 -984l235 984h299l-378 -1365h-326z" />
<glyph unicode="W" horiz-adv-x="1542" vert-adv-y="1433" d="M0 1365h294l162 -936l176 936h279l174 -938l165 938h292l-308 -1365h-293l-172 927l-169 -927h-296z" />
<glyph unicode="X" horiz-adv-x="1091" vert-adv-y="1433" d="M-16 0l402 714l-371 651h332l204 -415l207 415h316l-365 -651l399 -714h-339l-227 450l-233 -450h-325z" />
<glyph unicode="Y" horiz-adv-x="1131" vert-adv-y="1433" d="M-4 1365h326l246 -540l246 540h321l-423 -837v-528h-293v532z" />
<glyph unicode="Z" horiz-adv-x="1056" vert-adv-y="1433" d="M33 0v238l613 877h-569v250h924v-222l-620 -889h638v-254h-986z" />
<glyph unicode="[" horiz-adv-x="580" vert-adv-y="1433" d="M86 -355v1720h433v-197h-203v-1326h203v-197h-433z" />
<glyph unicode="\" horiz-adv-x="768" vert-adv-y="1433" d="M65 1365h222l529 -1720h-226z" />
<glyph unicode="]" horiz-adv-x="580" vert-adv-y="1433" d="M61 -158h203v1326h-203v197h433v-1720h-433v197z" />
<glyph unicode="^" vert-adv-y="1433" d="M31 718l311 655h339l311 -655h-270l-210 449l-211 -449h-270z" />
<glyph unicode="_" vert-adv-y="1433" d="M41 -109h942v-187h-942v187z" />
<glyph unicode="`" vert-adv-y="1433" d="M241 1365h221l183 -273h-205z" />
<glyph unicode="a" horiz-adv-x="980" vert-adv-y="1433" d="M62 247q0 148 111 234q82 64 238 81q68 7 207 11v75q0 147 -125 147q-117 0 -128 -143h-268q8 149 104 231q103 88 293 88q226 0 328 -108q53 -55 65 -147q4 -35 4 -141v-315q0 -54 12 -67q13 -14 29 -14q9 0 30 11v-178q-53 -24 -113 -24q-121 0 -184 102 q-47 -49 -85 -71q-82 -48 -202 -48q-137 0 -218 64q-98 77 -98 212zM343 269q0 -50 27 -79q24 -26 69 -26q93 0 145 88q34 56 34 127v50q-98 -4 -153 -19q-122 -32 -122 -141z" />
<glyph unicode="b" horiz-adv-x="1028" vert-adv-y="1433" d="M90 0v1365h281v-502q96 108 237 108q112 0 205 -69q170 -126 170 -420q0 -208 -92 -348q-107 -163 -293 -163q-148 0 -237 108v-79h-271zM361 476q0 -118 36 -195q46 -97 138 -97q69 0 113 67q54 84 54 222q0 131 -48 210q-45 75 -122 75q-80 0 -126 -80 q-45 -78 -45 -202z" />
<glyph unicode="c" horiz-adv-x="942" vert-adv-y="1433" d="M45 465q0 246 141 386q121 120 309 120q220 0 334 -146q68 -89 79 -214h-275q-25 164 -138 164q-81 0 -124 -82q-45 -85 -45 -224q0 -143 48 -229q41 -72 117 -72q84 0 124 95q18 41 24 99h271q-18 -143 -90 -238q-117 -153 -331 -153q-193 0 -313 125q-131 137 -131 369 z" />
<glyph unicode="d" horiz-adv-x="1028" vert-adv-y="1433" d="M45 481q0 225 103 356q48 62 120 98q73 36 152 36q140 0 237 -108v502h281v-1365h-271v79q-90 -108 -237 -108q-186 0 -293 163q-92 139 -92 347zM326 478q0 -159 64 -241q42 -53 103 -53q92 0 137 97q37 78 37 192q0 128 -45 205q-47 80 -126 80q-78 0 -122 -75 q-48 -80 -48 -205z" />
<glyph unicode="e" horiz-adv-x="961" vert-adv-y="1433" d="M45 466q0 212 116 353q125 152 323 152q159 0 270 -101q117 -108 149 -309q10 -65 13 -158h-591q12 -244 165 -244q103 0 146 134h266q-19 -83 -71 -156q-117 -166 -337 -166q-202 0 -321 129q-128 138 -128 366zM327 571h308q-5 65 -23 110q-19 49 -59 79q-30 23 -69 23 q-87 0 -129 -95q-22 -48 -28 -117z" />
<glyph unicode="f" horiz-adv-x="583" vert-adv-y="1433" d="M18 758v184h121v84q0 106 12 160q47 211 313 211q8 0 116 -7v-204q-42 6 -72 6q-65 0 -80 -46q-8 -27 -8 -96v-108h149v-184h-149v-758h-281v758h-121z" />
<glyph unicode="g" horiz-adv-x="1006" vert-adv-y="1433" d="M44 487q0 221 105 353q104 131 273 131q139 0 222 -113v84h271v-807q0 -237 -74 -344q-110 -160 -353 -160q-214 0 -322 101q-75 70 -94 187h277q22 -104 134 -104q99 0 134 82q27 65 27 187v42q-87 -110 -228 -110q-167 0 -267 121q-105 129 -105 350zM325 499 q0 -152 59 -234q37 -52 96 -52q88 0 132 95q36 77 36 187q0 124 -43 195q-46 76 -121 76q-73 0 -114 -71q-45 -76 -45 -196z" />
<glyph unicode="h" horiz-adv-x="1002" vert-adv-y="1433" d="M90 0v1365h281v-510q96 116 244 116q172 0 252 -126q49 -78 49 -244v-601h-281v557q0 99 -18 138q-30 63 -98 63q-88 0 -128 -101q-20 -52 -20 -193v-464h-281z" />
<glyph unicode="i" horiz-adv-x="469" vert-adv-y="1433" d="M94 0v942h281v-942h-281zM94 1092v273h281v-273h-281z" />
<glyph unicode="j" horiz-adv-x="469" vert-adv-y="1433" d="M-35 -134q39 -4 51 -4q54 0 68 38q9 25 9 114v928h281v-965q0 -187 -79 -264q-70 -68 -220 -68q-45 0 -110 8v213zM93 1092v273h281v-273h-281z" />
<glyph unicode="k" horiz-adv-x="948" vert-adv-y="1433" d="M90 0v1365h281v-703l252 280h300l-339 -367l366 -575h-296l-241 390l-42 -45v-345h-281z" />
<glyph unicode="l" horiz-adv-x="469" vert-adv-y="1433" d="M94 0v1365h281v-1365h-281z" />
<glyph unicode="m" horiz-adv-x="1487" vert-adv-y="1433" d="M90 0v942h271v-88q90 117 238 117q97 0 167 -52q42 -31 66 -82q94 134 267 134q167 0 248 -119q53 -78 53 -215v-637h-281v565q0 85 -13 123q-23 70 -91 70q-84 0 -116 -98q-14 -42 -14 -146v-514h-280v577q0 77 -13 116q-21 65 -86 65q-86 0 -120 -103q-15 -46 -15 -141 v-514h-281z" />
<glyph unicode="n" horiz-adv-x="1002" vert-adv-y="1433" d="M90 0v942h271v-87q92 116 246 116q178 0 259 -126q50 -78 50 -244v-601h-281v557q0 98 -19 138q-29 63 -97 63q-88 0 -128 -101q-20 -52 -20 -193v-464h-281z" />
<glyph unicode="o" horiz-adv-x="992" vert-adv-y="1433" d="M45 472q0 218 118 353q127 146 335 146q199 0 323 -133q126 -135 126 -373q0 -232 -134 -369q-122 -125 -316 -125q-206 0 -330 140q-122 136 -122 361zM326 472q0 -140 44 -221q45 -83 127 -83q78 0 121 76q48 84 48 224t-43 219q-46 87 -128 87q-80 0 -125 -85 q-44 -83 -44 -217z" />
<glyph unicode="p" horiz-adv-x="1028" vert-adv-y="1433" d="M90 -355v1297h271v-79q89 108 237 108q186 0 293 -163q92 -140 92 -348q0 -223 -103 -355q-48 -62 -120 -97q-73 -37 -152 -37q-140 0 -237 108v-434h-281zM361 473q0 -130 45 -209q46 -80 127 -80q77 0 121 75q48 81 48 210q0 154 -64 236q-42 53 -103 53 q-92 0 -137 -97q-37 -77 -37 -188z" />
<glyph unicode="q" horiz-adv-x="1028" vert-adv-y="1433" d="M45 461q0 208 92 347q107 163 293 163q147 0 237 -108v79h271v-1297h-281v434q-97 -108 -237 -108q-111 0 -205 69q-170 126 -170 421zM326 471q0 -132 48 -212q44 -75 122 -75q81 0 126 80q45 79 45 205q0 115 -37 192q-45 97 -137 97q-69 0 -113 -67q-54 -83 -54 -220z " />
<glyph unicode="r" horiz-adv-x="665" vert-adv-y="1433" d="M90 0v942h271v-120q93 149 233 149q34 0 69 -9v-244q-53 15 -89 15q-124 0 -175 -122q-28 -65 -28 -215v-396h-281z" />
<glyph unicode="s" horiz-adv-x="892" vert-adv-y="1433" d="M61 284h260q17 -131 138 -131q53 0 83 26q31 27 31 72q0 63 -69 101q-30 17 -123 49q-157 54 -209 93q-102 76 -102 196q0 134 100 210q92 71 251 71q212 0 316 -131q47 -60 62 -144h-261q-26 90 -108 90q-89 0 -89 -83q0 -56 64 -90q28 -14 151 -54q118 -38 181 -86 q100 -75 100 -205q0 -135 -102 -217q-99 -80 -268 -80q-164 0 -256 63q-130 88 -150 250z" />
<glyph unicode="t" horiz-adv-x="589" vert-adv-y="1433" d="M0 766v176h133v61l189 252h92v-313h163v-176h-163v-446q2 -74 8 -96q12 -44 77 -44q30 0 68 14v-201q-83 -18 -162 -18q-169 0 -230 91q-33 49 -40 142q-2 27 -2 122v436h-133z" />
<glyph unicode="u" horiz-adv-x="1002" vert-adv-y="1433" d="M86 341v601h281v-557q0 -98 19 -138q29 -63 96 -63q89 0 128 101q21 53 21 193v464h281v-942h-271v87q-92 -116 -246 -116q-178 0 -259 126q-50 79 -50 244z" />
<glyph unicode="v" horiz-adv-x="840" vert-adv-y="1433" d="M-16 942h292l150 -600l150 600h281l-280 -942h-308z" />
<glyph unicode="w" horiz-adv-x="1303" vert-adv-y="1433" d="M-16 942h294l126 -592l112 592h274l115 -588l126 588h283l-256 -942h-288l-119 582l-115 -582h-289z" />
<glyph unicode="x" horiz-adv-x="859" vert-adv-y="1433" d="M-29 0l300 496l-274 446h312l120 -222l119 222h305l-272 -439l306 -503h-313l-147 273l-146 -273h-310z" />
<glyph unicode="y" horiz-adv-x="871" vert-adv-y="1433" d="M-16 942h298l162 -606l155 606h289l-303 -957q-42 -130 -79 -194q-57 -96 -162 -128q-59 -18 -145 -18q-60 0 -120 10v215q49 -12 86 -12q122 0 122 112q0 40 -17 93z" />
<glyph unicode="z" horiz-adv-x="837" vert-adv-y="1433" d="M33 0v194l427 545h-394v203h734v-187l-439 -552h468v-203h-796z" />
<glyph unicode="{" horiz-adv-x="581" vert-adv-y="1433" d="M0 430v162q59 13 85 49q29 38 29 115v331q0 166 97 231q52 35 140 43q38 4 114 4h83v-197h-54q-87 0 -117 -27q-26 -24 -30 -69q-3 -27 -3 -60v-269q0 -111 -37 -168q-22 -34 -83 -71q77 -45 102 -112q18 -48 18 -130v-262q0 -84 16 -110q29 -49 134 -48h54v-197h-83 q-106 0 -160 10q-123 23 -166 125q-25 58 -25 154v318q0 93 -30 130q-28 36 -84 48z" />
<glyph unicode="|" vert-adv-y="1433" d="M359 -341v1706h307v-1706h-307z" />
<glyph unicode="}" horiz-adv-x="580" vert-adv-y="1433" d="M33 -158h53q70 -1 105 18q33 17 40 57q5 30 5 83v262q0 88 21 138q26 61 99 104q-67 40 -89 81q-31 57 -31 158v269q0 74 -11 98q-16 37 -58 49q-36 9 -81 9h-53v197h83q105 0 158 -10q125 -24 167 -121q25 -59 25 -147v-331q0 -77 29 -115q27 -36 86 -49v-162 q-56 -12 -84 -48q-31 -37 -31 -130v-318q0 -96 -25 -154q-43 -102 -166 -125q-54 -10 -159 -10h-83v197z" />
<glyph unicode="~" horiz-adv-x="1365" vert-adv-y="1433" d="M190 1255q40 98 87 161q89 118 216 118q59 0 153 -38q38 -15 138 -58q59 -26 102 -26q76 0 145 127l149 -124q-48 -112 -94 -169q-88 -112 -211 -112q-47 0 -128 33q-49 19 -148 61q-73 30 -116 30q-54 0 -93 -49q-23 -28 -51 -78z" />
<glyph unicode="&#xa0;" horiz-adv-x="300" vert-adv-y="1433" />
<glyph unicode="&#xa1;" horiz-adv-x="546" vert-adv-y="1433" d="M123 648v294h300v-294h-300zM139 54l67 472h135l66 -467v-414h-268v409z" />
<glyph unicode="&#xa2;" horiz-adv-x="970" vert-adv-y="1433" d="M45 685q0 197 93 327q106 149 294 173v139h132v-139q134 -17 220 -79q134 -98 151 -277h-262q-22 131 -109 168v-614q98 44 116 198h257q-23 -178 -134 -283q-91 -86 -239 -105v-152h-132v153q-116 16 -199 75q-188 137 -188 416zM299 687q0 -148 63 -239q22 -31 70 -59 v598q-133 -73 -133 -300z" />
<glyph unicode="&#xa3;" horiz-adv-x="921" vert-adv-y="1433" d="M18 533v199h147q-11 17 -33 48q-89 131 -89 261q0 161 125 262q109 89 278 89q262 0 360 -181q46 -86 49 -198h-253q-5 146 -155 146q-70 0 -107 -39q-39 -43 -39 -104q0 -75 77 -189q43 -64 62 -95h285v-199h-237q-8 -92 -53 -172q-20 -37 -126 -164q91 63 138 63 q29 0 81 -40q30 -23 58 -23q80 0 91 120h216q-9 -153 -64 -239q-68 -107 -197 -107q-68 0 -156 43q-69 33 -132 33q-77 0 -152 -41q-19 -10 -58 -33l-107 172q212 144 212 333q0 22 -4 55h-217z" />
<glyph unicode="&#xa4;" horiz-adv-x="1460" vert-adv-y="1433" d="M89 1177l158 158l213 -212q62 33 99 47q82 32 172 32q99 0 192 -41q26 -12 73 -37l212 209l156 -156l-206 -205q86 -141 86 -279q0 -120 -78 -266l205 -205l-156 -158l-204 204q-135 -86 -270 -86q-137 0 -290 86l-205 -203l-156 156l204 205q-78 129 -78 270 q0 125 84 273zM483 696q0 -103 73 -177q72 -73 175 -73t175 73q73 73 73 177q0 106 -73 177q-75 73 -172 73q-105 0 -178 -73q-73 -72 -73 -177z" />
<glyph unicode="&#xa5;" horiz-adv-x="1131" vert-adv-y="1433" d="M82 1365h307l180 -396l180 396h301l-348 -688h289v-177h-291v-96h291v-177h-291v-227h-268v227h-292v177h292v96h-292v177h292z" />
<glyph unicode="&#xa6;" vert-adv-y="1433" d="M359 314h307v-655h-307v655zM359 646v719h307v-719h-307z" />
<glyph unicode="&#xa7;" horiz-adv-x="1010" vert-adv-y="1433" d="M63 605q0 155 111 241q26 20 64 34q-70 83 -70 193q0 131 85 220q99 103 263 103q151 0 244 -91q97 -95 100 -258h-225q-8 151 -119 151q-47 0 -78 -29q-35 -34 -35 -93q0 -46 22 -76q25 -33 127 -93q242 -142 311 -210q84 -81 84 -213q0 -87 -38 -164q-42 -83 -134 -130 q89 -96 89 -218q0 -151 -105 -248q-101 -93 -262 -93q-250 0 -327 206q-27 72 -27 163h224q1 -5 2 -13q13 -150 122 -150q66 0 99 57q19 32 19 82q0 52 -34 95q-41 50 -228 161q-182 109 -231 186q-53 84 -53 187zM285 630q0 -48 27 -82q32 -42 216 -159q46 -29 60 -40 q40 -29 61 -39q25 12 41 37q33 49 33 101q0 33 -13 61q-16 31 -74 69q-16 10 -59 40q-50 34 -150 94q-53 33 -69 41q-73 -30 -73 -123z" />
<glyph unicode="&#xa8;" vert-adv-y="1433" d="M223 1078v246h237v-246h-237zM564 1078v246h238v-246h-238z" />
<glyph unicode="&#xa9;" horiz-adv-x="1412" vert-adv-y="1433" d="M68 680q0 204 99 379q92 162 249 250q138 77 299 77q181 0 338 -113q144 -104 222 -273q68 -151 68 -319q0 -285 -183 -491q-186 -210 -456 -210q-265 0 -449 205q-85 94 -134 218q-53 135 -53 277zM205 681q0 -235 146 -403q145 -167 353 -167q212 0 359 171 q143 166 143 399q0 238 -146 406q-64 73 -143 114q-100 53 -204 53q-212 0 -358 -164q-68 -75 -107 -178q-43 -112 -43 -231zM359 681q0 194 104 317q97 113 252 113q166 0 258 -131q54 -77 60 -181h-197q-24 140 -124 140q-73 0 -111 -68q-42 -75 -42 -188q0 -116 44 -191 q38 -66 106 -66q76 0 107 75q16 40 23 106h199q-7 -99 -35 -162q-85 -191 -293 -191q-152 0 -243 104q-108 125 -108 323z" />
<glyph unicode="&#xaa;" horiz-adv-x="578" vert-adv-y="1433" d="M23 702q0 91 71 143q52 38 147 47q36 4 110 6v38q0 72 -61 72q-35 0 -50 -24q-10 -15 -13 -53h-184q8 206 248 206q139 0 203 -67q35 -35 42 -93q3 -21 3 -84v-182q0 -33 14 -33q10 0 28 14v-127q-41 -26 -82 -26q-67 0 -109 52q-67 -62 -167 -62q-85 0 -137 40 q-63 49 -63 133zM216 715q0 -47 43 -47q47 0 74 44q18 30 18 68v14q-59 -4 -84 -13q-51 -17 -51 -66z" />
<glyph unicode="&#xab;" horiz-adv-x="770" vert-adv-y="1433" d="M82 382v249l273 262v-249l-147 -140l147 -134v-243zM396 385v248l272 257v-248l-145 -136l145 -134v-241z" />
<glyph unicode="&#xac;" vert-adv-y="1433" d="M68 327v267h887v-594h-298v327h-589z" />
<glyph unicode="&#xad;" horiz-adv-x="453" vert-adv-y="1433" d="M0 387v246h453v-246h-453z" />
<glyph unicode="&#xae;" horiz-adv-x="1412" vert-adv-y="1433" d="M68 680q0 204 99 379q92 162 249 250q138 77 299 77q181 0 338 -113q144 -104 222 -273q68 -151 68 -319q0 -285 -183 -491q-186 -210 -456 -210q-265 0 -449 205q-85 94 -134 218q-53 135 -53 277zM205 681q0 -160 76 -301q76 -140 203 -212q103 -57 220 -57 q212 0 359 171q143 166 143 399q0 238 -146 406q-64 73 -143 114q-99 53 -204 53q-212 0 -358 -164q-68 -75 -107 -178q-43 -112 -43 -231zM402 273v819h323q126 0 197 -55q81 -64 81 -180q0 -126 -97 -195q37 -22 56 -55q19 -32 27 -88q5 -29 11 -119q4 -65 16 -90 q3 -6 22 -37h-211q-14 31 -17 58q-2 11 -7 101q-6 98 -38 130q-21 21 -78 21h-85v-310h-200zM602 739h81q73 0 97 29q23 26 23 69q0 53 -36 77q-22 15 -80 15h-85v-190z" />
<glyph unicode="&#xaf;" vert-adv-y="1433" d="M41 1475v187h942v-187h-942z" />
<glyph unicode="&#xb0;" vert-adv-y="1433" d="M192 1053q0 151 109 243q94 79 213 79q136 0 232 -101q87 -91 87 -224q0 -132 -96 -226q-93 -92 -223 -92q-143 0 -239 105q-83 91 -83 216zM344 1054q0 -65 41 -115q50 -61 128 -61q66 0 116 49q53 52 53 122q0 75 -47 125q-52 55 -124 55q-64 0 -111 -46 q-56 -55 -56 -129z" />
<glyph unicode="&#xb1;" vert-adv-y="1433" d="M41 0v187h942v-187h-942zM41 683v187h374v347h195v-347h373v-187h-373v-348h-195v348h-374z" />
<glyph unicode="&#xb2;" horiz-adv-x="568" vert-adv-y="1433" d="M10 546q3 145 43 227q34 67 108 129q21 18 99 73q103 73 103 157q0 35 -18 57q-22 27 -58 27q-72 0 -79 -110h-184q6 117 66 189q73 88 196 88q119 0 190 -72q66 -66 66 -170q0 -110 -73 -189q-42 -45 -138 -110q-76 -52 -100 -81q-17 -22 -24 -48h329v-167h-526z" />
<glyph unicode="&#xb3;" horiz-adv-x="585" vert-adv-y="1433" d="M18 758v36h182q0 -102 81 -102q40 0 62 27q24 30 24 80q0 100 -108 100h-37v143h51q33 0 57 25t24 73q0 84 -72 84q-65 0 -67 -100h-181q2 107 51 169q70 89 205 89q112 0 180 -65q66 -63 66 -165q0 -112 -82 -170q106 -60 106 -193q0 -111 -75 -184q-77 -76 -203 -76 q-119 0 -190 65q-71 64 -74 164z" />
<glyph unicode="&#xb4;" vert-adv-y="1433" d="M379 1092l184 273h220l-199 -273h-205z" />
<glyph unicode="&#xb5;" horiz-adv-x="1002" vert-adv-y="1433" d="M86 -355v1297h281v-557q0 -98 19 -138q29 -63 96 -63q89 0 128 101q21 53 21 193v464h281v-942h-271v87q-93 -116 -244 -116q-8 0 -30 1v-327h-281z" />
<glyph unicode="&#xb6;" horiz-adv-x="1184" vert-adv-y="1433" d="M106 1003q0 122 56 212q63 100 189 134q62 16 175 16h481v-115h-93v-1482h-161v1482h-129v-1482h-161v885q-18 -1 -26 -1q-133 0 -222 80q-109 96 -109 271z" />
<glyph unicode="&#xb7;" horiz-adv-x="546" vert-adv-y="1433" d="M123 331v294h300v-294h-300z" />
<glyph unicode="&#xb8;" vert-adv-y="1433" d="M303 -299h129q7 -31 51 -31q68 0 68 77q0 36 -19 59q-18 21 -49 21q-37 0 -48 -27h-129l71 200h117l-40 -108q24 12 59 12q83 0 135 -43q48 -40 48 -105q0 -71 -51 -116q-56 -50 -155 -50q-108 0 -159 56q-23 25 -28 55z" />
<glyph unicode="&#xb9;" horiz-adv-x="435" vert-adv-y="1433" d="M10 1067v146q93 3 124 42t40 110h146v-819h-186v550q-35 -30 -104 -30q-7 0 -20 1z" />
<glyph unicode="&#xba;" horiz-adv-x="585" vert-adv-y="1433" d="M13 833q0 133 73 215q80 89 208 89q124 0 201 -81q78 -83 78 -227q0 -139 -83 -223q-76 -77 -196 -77q-128 0 -206 86q-75 83 -75 218zM206 833q0 -78 24 -122q23 -41 64 -41q37 0 59 38q27 45 27 124q0 78 -24 121q-23 43 -64 43q-39 0 -62 -42q-24 -46 -24 -121z" />
<glyph unicode="&#xbb;" horiz-adv-x="770" vert-adv-y="1433" d="M102 131v240l144 135l-144 135v249l270 -257v-248zM414 127v242l147 135l-147 139v250l274 -261v-249z" />
<glyph unicode="&#xbc;" horiz-adv-x="1377" vert-adv-y="1433" d="M10 1067v146q93 3 124 42t40 110h146v-819h-186v550q-35 -30 -104 -30q-7 0 -20 1zM258 0l588 1365h169l-585 -1365h-172zM815 171v163l293 485h168v-492h84v-156h-84v-171h-181v171h-280zM983 327h112v206z" />
<glyph unicode="&#xbd;" horiz-adv-x="1405" vert-adv-y="1433" d="M10 1067v146q93 3 124 42t40 110h146v-819h-186v550q-35 -30 -104 -30q-7 0 -20 1zM258 0l588 1365h169l-585 -1365h-172zM847 0q3 146 43 227q34 68 108 129q21 18 99 74q61 43 82 80q21 36 21 77q0 35 -18 57q-22 27 -58 27q-72 0 -79 -111h-184q6 117 66 190 q72 88 196 88q119 0 190 -72q66 -66 66 -170q0 -112 -73 -190q-43 -46 -138 -110q-77 -52 -100 -81q-17 -22 -24 -48h329v-167h-526z" />
<glyph unicode="&#xbe;" horiz-adv-x="1582" vert-adv-y="1433" d="M18 758v36h182q0 -102 81 -102q40 0 62 27q24 30 24 80q0 100 -108 100h-37v143h51q33 0 57 25t24 73q0 84 -72 84q-65 0 -67 -100h-181q2 107 51 169q70 89 205 89q112 0 180 -65q66 -63 66 -165q0 -112 -82 -170q106 -60 106 -193q0 -111 -75 -184q-77 -76 -203 -76 q-119 0 -190 65q-71 64 -74 164zM463 0l587 1365h169l-584 -1365h-172zM1020 171v163l293 485h168v-492h84v-156h-84v-171h-181v171h-280zM1188 327h112v206z" />
<glyph unicode="&#xbf;" horiz-adv-x="955" vert-adv-y="1433" d="M69 -16q0 120 63 199q48 61 126 120q45 35 62 57t29 61q10 32 12 96v11h233v-14q-3 -147 -36 -211q-19 -37 -65 -80q-8 -7 -68 -62q-54 -49 -67 -75q-23 -45 -23 -91q0 -67 48 -104q30 -23 78 -23q147 0 155 147h253q0 -7 -1 -22q-8 -157 -105 -252q-112 -110 -305 -110 q-177 0 -283 98q-106 99 -106 255zM324 648v294h300v-294h-300z" />
<glyph unicode="&#xc0;" horiz-adv-x="1157" vert-adv-y="1433" d="M-4 0l433 1365h300l432 -1365h-305l-85 305h-389l-86 -305h-300zM294 1720h248l183 -246h-232zM445 526h265l-132 471z" />
<glyph unicode="&#xc1;" horiz-adv-x="1157" vert-adv-y="1433" d="M-4 0l433 1365h300l432 -1365h-305l-85 305h-389l-86 -305h-300zM432 1474l184 246h247l-198 -246h-233zM445 526h265l-132 471z" />
<glyph unicode="&#xc2;" horiz-adv-x="1157" vert-adv-y="1433" d="M-4 0l433 1365h300l432 -1365h-305l-85 305h-389l-86 -305h-300zM271 1475l191 259h233l191 -259h-225l-86 121l-88 -121h-216zM445 526h265l-132 471z" />
<glyph unicode="&#xc3;" horiz-adv-x="1157" vert-adv-y="1433" d="M-4 0l433 1365h300l432 -1365h-305l-85 305h-389l-86 -305h-300zM269 1475q1 10 2 15q12 86 54 146q62 90 141 90q44 0 118 -35q76 -35 106 -35q27 0 42 26q10 15 22 52h133q-38 -253 -204 -253q-34 0 -51 8l-63 28q-92 40 -107 40q-43 0 -59 -82h-134zM445 526h265 l-132 471z" />
<glyph unicode="&#xc4;" horiz-adv-x="1157" vert-adv-y="1433" d="M-4 0l433 1365h300l432 -1365h-305l-85 305h-389l-86 -305h-300zM289 1447v246h237v-246h-237zM445 526h265l-132 471zM630 1447v246h238v-246h-238z" />
<glyph unicode="&#xc5;" horiz-adv-x="1157" vert-adv-y="1433" d="M-4 0l433 1365h300l432 -1365h-305l-85 305h-389l-86 -305h-300zM377 1621q0 83 60 139q61 56 145 56q81 0 140 -57t59 -138q0 -79 -58 -136q-59 -58 -144 -58t-143 57q-59 57 -59 137zM445 526h265l-132 471zM494 1621q0 -37 25 -63t59 -26q37 0 62 27q24 25 24 62 t-25 63q-24 26 -58 26q-37 0 -62 -25q-25 -26 -25 -64z" />
<glyph unicode="&#xc6;" horiz-adv-x="1610" vert-adv-y="1433" d="M-12 0l545 1365h990v-250h-537v-292h487v-238h-487v-335h549v-250h-815v305h-331l-114 -305h-287zM472 526h248v596h-24z" />
<glyph unicode="&#xc7;" horiz-adv-x="1200" vert-adv-y="1433" d="M57 679q0 326 171 530q157 187 408 187q269 0 419 -216q85 -123 96 -274h-290q-14 79 -43 129q-64 111 -186 111q-136 0 -208 -129q-74 -134 -74 -335q0 -204 77 -340q70 -125 202 -125q114 0 175 99q46 76 62 213h293q-16 -217 -122 -363q-145 -199 -404 -199 q-8 0 -30 1l-27 -72q23 10 52 10q87 0 144 -44q49 -38 49 -106q0 -71 -52 -116q-58 -50 -158 -50q-107 0 -159 56q-23 25 -28 55h130q7 -31 51 -31q66 0 66 79q0 78 -67 78q-36 0 -47 -27h-126l66 181q-114 27 -201 97q-115 93 -179 259q-60 154 -60 342z" />
<glyph unicode="&#xc8;" horiz-adv-x="1065" vert-adv-y="1433" d="M106 0v1365h871v-250h-578v-292h528v-238h-528v-335h590v-250h-883zM247 1720h248l183 -246h-232z" />
<glyph unicode="&#xc9;" horiz-adv-x="1065" vert-adv-y="1433" d="M106 0v1365h871v-250h-578v-292h528v-238h-528v-335h590v-250h-883zM386 1474l184 246h247l-198 -246h-233z" />
<glyph unicode="&#xca;" horiz-adv-x="1065" vert-adv-y="1433" d="M106 0v1365h871v-250h-578v-292h528v-238h-528v-335h590v-250h-883zM225 1475l191 259h233l191 -259h-225l-86 121l-88 -121h-216z" />
<glyph unicode="&#xcb;" horiz-adv-x="1065" vert-adv-y="1433" d="M106 0v1365h871v-250h-578v-292h528v-238h-528v-335h590v-250h-883zM243 1447v246h237v-246h-237zM584 1447v246h238v-246h-238z" />
<glyph unicode="&#xcc;" horiz-adv-x="509" vert-adv-y="1433" d="M-29 1720h248l183 -246h-232zM110 0v1365h293v-1365h-293z" />
<glyph unicode="&#xcd;" horiz-adv-x="509" vert-adv-y="1433" d="M106 0v1365h293v-1365h-293zM106 1474l184 246h247l-198 -246h-233z" />
<glyph unicode="&#xce;" horiz-adv-x="512" vert-adv-y="1433" d="M-51 1475l191 259h233l191 -259h-225l-86 121l-88 -121h-216zM110 0v1365h293v-1365h-293z" />
<glyph unicode="&#xcf;" horiz-adv-x="512" vert-adv-y="1433" d="M0 1447v246h204v-246h-204zM110 0v1365h293v-1365h-293zM307 1447v246h205v-246h-205z" />
<glyph unicode="&#xd0;" horiz-adv-x="1217" vert-adv-y="1433" d="M0 585v238h107v542h421q277 0 437 -148q195 -180 195 -530q0 -342 -184 -530q-100 -103 -231 -134q-93 -23 -219 -23h-419v585h-107zM400 250h131q156 0 227 74q109 114 109 364q0 206 -92 323q-82 104 -253 104h-122v-292h223v-238h-223v-335z" />
<glyph unicode="&#xd1;" horiz-adv-x="1218" vert-adv-y="1433" d="M106 0v1365h296l428 -878v878h281v-1365h-293l-431 877v-877h-281zM299 1475q1 10 2 15q12 86 54 146q62 90 141 90q44 0 118 -35q76 -35 106 -35q27 0 42 26q10 15 22 52h133q-38 -253 -204 -253q-34 0 -51 8l-63 28q-92 40 -107 40q-43 0 -59 -82h-134z" />
<glyph unicode="&#xd2;" horiz-adv-x="1278" vert-adv-y="1433" d="M57 692q0 326 171 520q162 184 414 184q243 0 400 -176q179 -199 179 -538q0 -290 -135 -485q-80 -115 -202 -176q-109 -54 -242 -54q-290 0 -453 235q-132 190 -132 490zM350 690q0 -210 79 -346q36 -62 106 -100q51 -27 108 -27q83 0 150 58t104 184q31 106 31 227 q0 198 -78 333q-74 127 -210 127t-210 -127q-80 -138 -80 -329zM354 1720h248l183 -246h-232z" />
<glyph unicode="&#xd3;" horiz-adv-x="1278" vert-adv-y="1433" d="M57 692q0 326 171 520q162 184 414 184q243 0 400 -176q179 -199 179 -538q0 -290 -135 -485q-80 -115 -202 -176q-109 -54 -242 -54q-290 0 -453 235q-132 190 -132 490zM350 690q0 -210 79 -346q36 -62 106 -100q51 -27 108 -27q83 0 150 58t104 184q31 106 31 227 q0 198 -78 333q-74 127 -210 127t-210 -127q-80 -138 -80 -329zM492 1474l184 246h247l-198 -246h-233z" />
<glyph unicode="&#xd4;" horiz-adv-x="1278" vert-adv-y="1433" d="M57 692q0 326 171 520q162 184 414 184q243 0 400 -176q179 -199 179 -538q0 -290 -135 -485q-80 -115 -202 -176q-109 -54 -242 -54q-290 0 -453 235q-132 190 -132 490zM331 1475l191 259h233l191 -259h-225l-86 121l-88 -121h-216zM350 690q0 -210 79 -346 q36 -62 106 -100q51 -27 108 -27q83 0 150 58t104 184q31 106 31 227q0 198 -78 333q-74 127 -210 127t-210 -127q-80 -138 -80 -329z" />
<glyph unicode="&#xd5;" horiz-adv-x="1278" vert-adv-y="1433" d="M57 692q0 326 171 520q162 184 414 184q243 0 400 -176q179 -199 179 -538q0 -290 -135 -485q-80 -115 -202 -176q-109 -54 -242 -54q-290 0 -453 235q-132 190 -132 490zM330 1475q1 10 2 15q12 86 54 146q62 90 141 90q44 0 118 -35q76 -35 106 -35q27 0 42 26 q10 15 22 52h133q-38 -253 -204 -253q-34 0 -51 8l-63 28q-92 40 -107 40q-43 0 -59 -82h-134zM350 690q0 -210 79 -346q36 -62 106 -100q51 -27 108 -27q83 0 150 58t104 184q31 106 31 227q0 198 -78 333q-74 127 -210 127t-210 -127q-80 -138 -80 -329z" />
<glyph unicode="&#xd6;" horiz-adv-x="1278" vert-adv-y="1433" d="M57 692q0 326 171 520q162 184 414 184q243 0 400 -176q179 -199 179 -538q0 -290 -135 -485q-80 -115 -202 -176q-109 -54 -242 -54q-290 0 -453 235q-132 190 -132 490zM349 1447v246h237v-246h-237zM350 690q0 -210 79 -346q36 -62 106 -100q51 -27 108 -27 q83 0 150 58t104 184q31 106 31 227q0 198 -78 333q-74 127 -210 127t-210 -127q-80 -138 -80 -329zM690 1447v246h238v-246h-238z" />
<glyph unicode="&#xd7;" vert-adv-y="1433" d="M113 422l267 267l-267 267l132 133l267 -267l267 267l132 -133l-267 -267l267 -267l-132 -132l-267 267l-267 -267z" />
<glyph unicode="&#xd8;" horiz-adv-x="1278" vert-adv-y="1433" d="M57 682q0 334 171 531q160 184 412 184q154 0 282 -76l46 76h203l-115 -192q165 -201 165 -523q0 -290 -135 -485q-80 -115 -202 -175q-109 -55 -243 -55q-153 0 -283 75l-45 -75h-206l115 192q-165 198 -165 523zM350 685q0 -136 42 -259l387 675q-64 46 -138 46 q-137 0 -211 -127q-80 -138 -80 -335zM502 265q71 -48 140 -48q84 0 151 58t104 184q31 106 31 228q0 135 -41 250z" />
<glyph unicode="&#xd9;" horiz-adv-x="1196" vert-adv-y="1433" d="M90 590v775h281v-795q0 -195 54 -272q58 -81 178 -81q130 0 177 111q33 76 33 243v794h293v-779q0 -184 -26 -279q-45 -163 -162 -252q-116 -88 -321 -88q-294 0 -421 198q-55 87 -74 209q-12 78 -12 216zM313 1720h248l183 -246h-232z" />
<glyph unicode="&#xda;" horiz-adv-x="1196" vert-adv-y="1433" d="M90 590v775h281v-795q0 -195 54 -272q58 -81 178 -81q130 0 177 111q33 76 33 243v794h293v-779q0 -184 -26 -279q-45 -163 -162 -252q-116 -88 -321 -88q-294 0 -421 198q-55 87 -74 209q-12 78 -12 216zM452 1474l184 246h247l-198 -246h-233z" />
<glyph unicode="&#xdb;" horiz-adv-x="1196" vert-adv-y="1433" d="M90 590v775h281v-795q0 -195 54 -272q58 -81 178 -81q130 0 177 111q33 76 33 243v794h293v-779q0 -184 -26 -279q-45 -163 -162 -252q-116 -88 -321 -88q-294 0 -421 198q-55 87 -74 209q-12 78 -12 216zM291 1475l191 259h233l191 -259h-225l-86 121l-88 -121h-216z " />
<glyph unicode="&#xdc;" horiz-adv-x="1196" vert-adv-y="1433" d="M90 590v775h281v-795q0 -195 54 -272q58 -81 178 -81q130 0 177 111q33 76 33 243v794h293v-779q0 -184 -26 -279q-45 -163 -162 -252q-116 -88 -321 -88q-294 0 -421 198q-55 87 -74 209q-12 78 -12 216zM309 1447v246h237v-246h-237zM650 1447v246h238v-246h-238z" />
<glyph unicode="&#xdd;" horiz-adv-x="1131" vert-adv-y="1433" d="M-4 1365h326l246 -540l246 540h321l-423 -837v-528h-293v532zM419 1474l184 246h247l-198 -246h-233z" />
<glyph unicode="&#xde;" horiz-adv-x="1070" vert-adv-y="1433" d="M106 0v1365h293v-232h113q162 0 246 -30q126 -46 195 -159q59 -98 59 -238q0 -235 -167 -360q-116 -88 -328 -88h-118v-258h-293zM399 496h115q117 0 162 55q43 53 43 141q0 100 -61 151q-47 40 -158 40h-101v-387z" />
<glyph unicode="&#xdf;" horiz-adv-x="1046" vert-adv-y="1433" d="M5 758v184h117q2 149 26 218q46 131 178 192q97 45 207 45q151 0 261 -86q105 -81 105 -209q0 -90 -69 -182q-39 -52 -49 -76q-11 -30 -11 -56q0 -41 28 -83q15 -21 64 -69q132 -129 132 -278q0 -118 -74 -219q-116 -159 -348 -159q-48 0 -99 8v221q33 -10 61 -10 q76 0 126 42q56 47 56 138q0 76 -39 136q-18 26 -62 72q-60 62 -79 96q-25 43 -25 91q0 74 66 168q57 82 57 143q0 53 -30 83q-31 31 -77 31q-69 0 -104 -78q-20 -44 -20 -184v-937h-281v758h-117z" />
<glyph unicode="&#xe0;" horiz-adv-x="980" vert-adv-y="1433" d="M62 247q0 148 111 234q82 64 238 81q68 7 207 11v75q0 147 -125 147q-117 0 -128 -143h-268q8 149 104 231q103 88 293 88q226 0 328 -108q53 -55 65 -147q4 -35 4 -141v-315q0 -54 12 -67q13 -14 29 -14q9 0 30 11v-178q-53 -24 -113 -24q-121 0 -184 102 q-47 -49 -85 -71q-82 -48 -202 -48q-137 0 -218 64q-98 77 -98 212zM220 1365h221l183 -273h-205zM343 269q0 -50 27 -79q24 -26 69 -26q93 0 145 88q34 56 34 127v50q-98 -4 -153 -19q-122 -32 -122 -141z" />
<glyph unicode="&#xe1;" horiz-adv-x="980" vert-adv-y="1433" d="M62 247q0 148 111 234q82 64 238 81q68 7 207 11v75q0 147 -125 147q-117 0 -128 -143h-268q8 149 104 231q103 88 293 88q226 0 328 -108q53 -55 65 -147q4 -35 4 -141v-315q0 -54 12 -67q13 -14 29 -14q9 0 30 11v-178q-53 -24 -113 -24q-121 0 -184 102 q-47 -49 -85 -71q-82 -48 -202 -48q-137 0 -218 64q-98 77 -98 212zM343 269q0 -50 27 -79q24 -26 69 -26q93 0 145 88q34 56 34 127v50q-98 -4 -153 -19q-122 -32 -122 -141zM358 1092l184 273h220l-199 -273h-205z" />
<glyph unicode="&#xe2;" horiz-adv-x="980" vert-adv-y="1433" d="M62 247q0 148 111 234q82 64 238 81q68 7 207 11v75q0 147 -125 147q-117 0 -128 -143h-268q8 149 104 231q103 88 293 88q226 0 328 -108q53 -55 65 -147q4 -35 4 -141v-315q0 -54 12 -67q13 -14 29 -14q9 0 30 11v-178q-53 -24 -113 -24q-121 0 -184 102 q-47 -49 -85 -71q-82 -48 -202 -48q-137 0 -218 64q-98 77 -98 212zM195 1092l182 273h228l182 -273h-205l-95 147l-95 -147h-197zM343 269q0 -50 27 -79q24 -26 69 -26q93 0 145 88q34 56 34 127v50q-98 -4 -153 -19q-122 -32 -122 -141z" />
<glyph unicode="&#xe3;" horiz-adv-x="980" vert-adv-y="1433" d="M62 247q0 148 111 234q82 64 238 81q68 7 207 11v75q0 147 -125 147q-117 0 -128 -143h-268q8 149 104 231q103 88 293 88q226 0 328 -108q53 -55 65 -147q4 -35 4 -141v-315q0 -54 12 -67q13 -14 29 -14q9 0 30 11v-178q-53 -24 -113 -24q-121 0 -184 102 q-47 -49 -85 -71q-82 -48 -202 -48q-137 0 -218 64q-98 77 -98 212zM202 1099q8 64 24 109q30 83 85 122q35 25 78 25q45 0 111 -35q70 -38 99 -39q33 -2 56 78h126q-34 -254 -187 -254q-42 0 -91 22q-15 7 -76 42q-26 15 -45 15q-39 0 -54 -85h-126zM343 269q0 -50 27 -79 q24 -26 69 -26q93 0 145 88q34 56 34 127v50q-98 -4 -153 -19q-122 -32 -122 -141z" />
<glyph unicode="&#xe4;" horiz-adv-x="980" vert-adv-y="1433" d="M62 247q0 148 111 234q82 64 238 81q68 7 207 11v75q0 147 -125 147q-117 0 -128 -143h-268q8 149 104 231q103 88 293 88q226 0 328 -108q53 -55 65 -147q4 -35 4 -141v-315q0 -54 12 -67q13 -14 29 -14q9 0 30 11v-178q-53 -24 -113 -24q-121 0 -184 102 q-47 -49 -85 -71q-82 -48 -202 -48q-137 0 -218 64q-98 77 -98 212zM202 1078v246h237v-246h-237zM343 269q0 -50 27 -79q24 -26 69 -26q93 0 145 88q34 56 34 127v50q-98 -4 -153 -19q-122 -32 -122 -141zM543 1078v246h238v-246h-238z" />
<glyph unicode="&#xe5;" horiz-adv-x="980" vert-adv-y="1433" d="M62 247q0 148 111 234q82 64 238 81q68 7 207 11v75q0 147 -125 147q-117 0 -128 -143h-268q8 149 104 231q103 88 293 88q226 0 328 -108q53 -55 65 -147q4 -35 4 -141v-315q0 -54 12 -67q13 -14 29 -14q9 0 30 11v-178q-53 -24 -113 -24q-121 0 -184 102 q-47 -49 -85 -71q-82 -48 -202 -48q-137 0 -218 64q-98 77 -98 212zM285 1261q0 87 61 146q60 58 146 58q82 0 141 -59q59 -60 59 -145q0 -83 -58 -142q-60 -61 -145 -61q-86 0 -145 59q-59 60 -59 144zM343 269q0 -50 27 -79q24 -26 69 -26q93 0 145 88q34 56 34 127v50 q-98 -4 -153 -19q-122 -32 -122 -141zM406 1258q0 -37 25 -64q24 -26 60 -26t61 27q24 27 24 63q0 39 -25 65t-58 26q-37 0 -62 -26t-25 -65z" />
<glyph unicode="&#xe6;" horiz-adv-x="1504" vert-adv-y="1433" d="M62 247q0 147 111 233q82 64 238 81q68 7 207 11v76q0 147 -125 147q-117 0 -128 -143h-268q8 149 104 231q103 88 287 88q186 0 287 -122q107 122 263 122q148 0 260 -100q117 -106 149 -306q10 -63 13 -156h-591q12 -250 166 -250q102 0 145 134h267q-20 -83 -72 -156 q-117 -166 -330 -166q-222 0 -331 199q-34 -54 -67 -89q-105 -110 -275 -110q-131 0 -212 64q-98 77 -98 212zM343 268q0 -49 27 -78q24 -26 69 -26q93 0 145 87q34 57 34 127v51q-98 -5 -153 -19q-122 -33 -122 -142zM871 570h309q-6 65 -24 111q-19 49 -59 79 q-30 23 -69 23q-87 0 -129 -95q-22 -49 -28 -118z" />
<glyph unicode="&#xe7;" horiz-adv-x="942" vert-adv-y="1433" d="M45 465q0 246 141 386q121 120 309 120q220 0 334 -146q68 -89 79 -214h-275q-25 164 -138 164q-81 0 -124 -82q-45 -85 -45 -224q0 -143 48 -229q41 -72 117 -72q84 0 124 95q18 41 24 99h271q-22 -178 -130 -282q-110 -107 -297 -109l-28 -79q23 12 58 12q81 0 132 -43 q47 -41 47 -105q0 -70 -50 -116q-54 -50 -152 -50q-105 0 -156 56q-23 25 -27 55h126q7 -31 51 -31q66 0 66 77q0 36 -18 59q-18 21 -49 21q-37 0 -47 -27h-127l64 183q-83 21 -146 68q-182 136 -182 414z" />
<glyph unicode="&#xe8;" horiz-adv-x="961" vert-adv-y="1433" d="M45 466q0 212 116 353q125 152 323 152q159 0 270 -101q117 -108 149 -309q10 -65 13 -158h-591q12 -244 165 -244q103 0 146 134h266q-19 -83 -71 -156q-117 -166 -337 -166q-202 0 -321 129q-128 138 -128 366zM209 1365h221l183 -273h-205zM327 571h308q-5 65 -23 110 q-19 49 -59 79q-30 23 -69 23q-87 0 -129 -95q-22 -48 -28 -117z" />
<glyph unicode="&#xe9;" horiz-adv-x="961" vert-adv-y="1433" d="M45 466q0 212 116 353q125 152 323 152q159 0 270 -101q117 -108 149 -309q10 -65 13 -158h-591q12 -244 165 -244q103 0 146 134h266q-19 -83 -71 -156q-117 -166 -337 -166q-202 0 -321 129q-128 138 -128 366zM327 571h308q-5 65 -23 110q-19 49 -59 79q-30 23 -69 23 q-87 0 -129 -95q-22 -48 -28 -117zM348 1092l184 273h220l-199 -273h-205z" />
<glyph unicode="&#xea;" horiz-adv-x="961" vert-adv-y="1433" d="M45 466q0 212 116 353q125 152 323 152q159 0 270 -101q117 -108 149 -309q10 -65 13 -158h-591q12 -244 165 -244q103 0 146 134h266q-19 -83 -71 -156q-117 -166 -337 -166q-202 0 -321 129q-128 138 -128 366zM184 1092l182 273h228l182 -273h-205l-95 147l-95 -147 h-197zM327 571h308q-5 65 -23 110q-19 49 -59 79q-30 23 -69 23q-87 0 -129 -95q-22 -48 -28 -117z" />
<glyph unicode="&#xeb;" horiz-adv-x="961" vert-adv-y="1433" d="M45 466q0 212 116 353q125 152 323 152q159 0 270 -101q117 -108 149 -309q10 -65 13 -158h-591q12 -244 165 -244q103 0 146 134h266q-19 -83 -71 -156q-117 -166 -337 -166q-202 0 -321 129q-128 138 -128 366zM191 1078v246h237v-246h-237zM327 571h308q-5 65 -23 110 q-19 49 -59 79q-30 23 -69 23q-87 0 -129 -95q-22 -48 -28 -117zM532 1078v246h238v-246h-238z" />
<glyph unicode="&#xec;" horiz-adv-x="472" vert-adv-y="1433" d="M-34 1365h221l183 -273h-205zM97 0v942h281v-942h-281z" />
<glyph unicode="&#xed;" horiz-adv-x="472" vert-adv-y="1433" d="M94 0v942h281v-942h-281zM102 1092l184 273h220l-199 -273h-205z" />
<glyph unicode="&#xee;" horiz-adv-x="475" vert-adv-y="1433" d="M-58 1092l182 273h228l182 -273h-205l-95 147l-95 -147h-197zM98 0v942h281v-942h-281z" />
<glyph unicode="&#xef;" horiz-adv-x="475" vert-adv-y="1433" d="M0 1078v246h185v-246h-185zM97 0v942h281v-942h-281zM288 1078v246h187v-246h-187z" />
<glyph unicode="&#xf0;" horiz-adv-x="992" vert-adv-y="1433" d="M45 472q0 217 118 353q126 146 332 146q26 0 52 -9q-33 69 -66 122l-123 -86l-77 110l119 84q-43 50 -107 105l132 97q65 -38 130 -94l133 94l78 -111l-112 -78q86 -96 144 -199q149 -265 149 -538q0 -235 -134 -372q-122 -125 -316 -125q-206 0 -330 140 q-122 136 -122 361zM326 472q0 -140 44 -221q45 -83 127 -83q78 0 121 76q48 84 48 224t-43 219q-46 87 -128 87q-80 0 -125 -85q-44 -83 -44 -217z" />
<glyph unicode="&#xf1;" horiz-adv-x="1002" vert-adv-y="1433" d="M90 0v942h271v-87q92 116 246 116q178 0 259 -126q50 -78 50 -244v-601h-281v557q0 98 -19 138q-29 63 -97 63q-88 0 -128 -101q-20 -52 -20 -193v-464h-281zM212 1099q8 64 24 109q30 83 85 122q35 25 78 25q45 0 111 -35q70 -38 99 -39q33 -2 56 78h126 q-34 -254 -187 -254q-42 0 -91 22q-15 7 -76 42q-26 15 -45 15q-39 0 -54 -85h-126z" />
<glyph unicode="&#xf2;" horiz-adv-x="992" vert-adv-y="1433" d="M45 472q0 218 118 353q127 146 335 146q199 0 323 -133q126 -135 126 -373q0 -232 -134 -369q-122 -125 -316 -125q-206 0 -330 140q-122 136 -122 361zM225 1365h221l183 -273h-205zM326 472q0 -140 44 -221q45 -83 127 -83q78 0 121 76q48 84 48 224t-43 219 q-46 87 -128 87q-80 0 -125 -85q-44 -83 -44 -217z" />
<glyph unicode="&#xf3;" horiz-adv-x="992" vert-adv-y="1433" d="M45 472q0 218 118 353q127 146 335 146q199 0 323 -133q126 -135 126 -373q0 -232 -134 -369q-122 -125 -316 -125q-206 0 -330 140q-122 136 -122 361zM326 472q0 -140 44 -221q45 -83 127 -83q78 0 121 76q48 84 48 224t-43 219q-46 87 -128 87q-80 0 -125 -85 q-44 -83 -44 -217zM363 1092l184 273h220l-199 -273h-205z" />
<glyph unicode="&#xf4;" horiz-adv-x="992" vert-adv-y="1433" d="M45 472q0 218 118 353q127 146 335 146q199 0 323 -133q126 -135 126 -373q0 -232 -134 -369q-122 -125 -316 -125q-206 0 -330 140q-122 136 -122 361zM200 1092l182 273h228l182 -273h-205l-95 147l-95 -147h-197zM326 472q0 -140 44 -221q45 -83 127 -83q78 0 121 76 q48 84 48 224t-43 219q-46 87 -128 87q-80 0 -125 -85q-44 -83 -44 -217z" />
<glyph unicode="&#xf5;" horiz-adv-x="992" vert-adv-y="1433" d="M45 472q0 218 118 353q127 146 335 146q199 0 323 -133q126 -135 126 -373q0 -232 -134 -369q-122 -125 -316 -125q-206 0 -330 140q-122 136 -122 361zM207 1099q8 64 24 109q30 83 85 122q35 25 78 25q45 0 111 -35q70 -38 99 -39q33 -2 56 78h126q-34 -254 -187 -254 q-42 0 -91 22q-15 7 -76 42q-26 15 -45 15q-39 0 -54 -85h-126zM326 472q0 -140 44 -221q45 -83 127 -83q78 0 121 76q48 84 48 224t-43 219q-46 87 -128 87q-80 0 -125 -85q-44 -83 -44 -217z" />
<glyph unicode="&#xf6;" horiz-adv-x="992" vert-adv-y="1433" d="M45 472q0 218 118 353q127 146 335 146q199 0 323 -133q126 -135 126 -373q0 -232 -134 -369q-122 -125 -316 -125q-206 0 -330 140q-122 136 -122 361zM207 1078v246h237v-246h-237zM326 472q0 -140 44 -221q45 -83 127 -83q78 0 121 76q48 84 48 224t-43 219 q-46 87 -128 87q-80 0 -125 -85q-44 -83 -44 -217zM548 1078v246h238v-246h-238z" />
<glyph unicode="&#xf7;" vert-adv-y="1433" d="M41 596v187h942v-187h-942zM412 248v229h200v-229h-200zM412 902v229h200v-229h-200z" />
<glyph unicode="&#xf8;" horiz-adv-x="992" vert-adv-y="1433" d="M45 472q0 217 118 353q127 146 335 146q125 0 228 -57l41 57h178l-106 -153q108 -135 108 -346q0 -238 -134 -375q-122 -126 -315 -126q-126 0 -228 57l-41 -57h-182l108 154q-110 138 -110 347zM326 474q0 -56 8 -114l253 376q-44 38 -91 38q-81 0 -126 -85 q-44 -83 -44 -215zM407 204q45 -36 90 -36q78 0 121 76q48 84 48 228q0 54 -8 108z" />
<glyph unicode="&#xf9;" horiz-adv-x="1002" vert-adv-y="1433" d="M86 341v601h281v-557q0 -98 19 -138q29 -63 96 -63q89 0 128 101q21 53 21 193v464h281v-942h-271v87q-92 -116 -246 -116q-178 0 -259 126q-50 79 -50 244zM230 1365h221l183 -273h-205z" />
<glyph unicode="&#xfa;" horiz-adv-x="1002" vert-adv-y="1433" d="M86 341v601h281v-557q0 -98 19 -138q29 -63 96 -63q89 0 128 101q21 53 21 193v464h281v-942h-271v87q-92 -116 -246 -116q-178 0 -259 126q-50 79 -50 244zM368 1092l184 273h220l-199 -273h-205z" />
<glyph unicode="&#xfb;" horiz-adv-x="1002" vert-adv-y="1433" d="M86 341v601h281v-557q0 -98 19 -138q29 -63 96 -63q89 0 128 101q21 53 21 193v464h281v-942h-271v87q-92 -116 -246 -116q-178 0 -259 126q-50 79 -50 244zM205 1092l182 273h228l182 -273h-205l-95 147l-95 -147h-197z" />
<glyph unicode="&#xfc;" horiz-adv-x="1002" vert-adv-y="1433" d="M86 341v601h281v-557q0 -98 19 -138q29 -63 96 -63q89 0 128 101q21 53 21 193v464h281v-942h-271v87q-92 -116 -246 -116q-178 0 -259 126q-50 79 -50 244zM212 1078v246h237v-246h-237zM553 1078v246h238v-246h-238z" />
<glyph unicode="&#xfd;" horiz-adv-x="871" vert-adv-y="1433" d="M-16 942h298l162 -606l155 606h289l-303 -957q-42 -130 -79 -194q-57 -96 -162 -128q-59 -18 -145 -18q-60 0 -120 10v215q49 -12 86 -12q122 0 122 112q0 40 -17 93zM303 1092l184 273h220l-199 -273h-205z" />
<glyph unicode="&#xfe;" horiz-adv-x="1028" vert-adv-y="1433" d="M90 -355v1720h281v-502q86 108 228 108q185 0 292 -163q92 -140 92 -348q0 -223 -103 -355q-48 -62 -120 -97q-73 -37 -152 -37q-140 0 -237 108v-434h-281zM361 473q0 -130 45 -209q46 -80 127 -80q77 0 121 75q48 81 48 210q0 154 -64 236q-42 53 -103 53 q-92 0 -137 -97q-37 -78 -37 -188z" />
<glyph unicode="&#xff;" horiz-adv-x="871" vert-adv-y="1433" d="M-16 942h298l162 -606l155 606h289l-303 -957q-42 -130 -79 -194q-57 -96 -162 -128q-59 -18 -145 -18q-60 0 -120 10v215q49 -12 86 -12q122 0 122 112q0 40 -17 93zM147 1078v246h237v-246h-237zM488 1078v246h238v-246h-238z" />
<glyph unicode="&#x106;" horiz-adv-x="1200" vert-adv-y="1433" d="M57 679q0 326 171 530q157 187 408 187q269 0 419 -216q85 -123 96 -274h-290q-14 79 -43 129q-64 111 -186 111q-136 0 -208 -129q-74 -134 -74 -335q0 -204 77 -340q70 -125 202 -125q114 0 175 99q46 76 62 213h293q-16 -217 -122 -363q-145 -199 -408 -199 q-249 0 -395 171q-177 209 -177 541zM453 1474l184 246h247l-198 -246h-233z" />
<glyph unicode="&#x107;" horiz-adv-x="942" vert-adv-y="1433" d="M45 465q0 246 141 386q121 120 309 120q220 0 334 -146q68 -89 79 -214h-275q-25 164 -138 164q-81 0 -124 -82q-45 -85 -45 -224q0 -143 48 -229q41 -72 117 -72q84 0 124 95q18 41 24 99h271q-18 -143 -90 -238q-117 -153 -331 -153q-193 0 -313 125q-131 137 -131 369 zM339 1092l184 273h220l-199 -273h-205z" />
<glyph unicode="&#x10c;" horiz-adv-x="1200" vert-adv-y="1433" d="M57 679q0 326 171 530q157 187 408 187q269 0 419 -216q85 -123 96 -274h-290q-14 79 -43 129q-64 111 -186 111q-136 0 -208 -129q-74 -134 -74 -335q0 -204 77 -340q70 -125 202 -125q114 0 175 99q46 76 62 213h293q-16 -217 -122 -363q-145 -199 -408 -199 q-249 0 -395 171q-177 209 -177 541zM292 1734h215l89 -121l86 121h225l-190 -259h-234z" />
<glyph unicode="&#x10d;" horiz-adv-x="942" vert-adv-y="1433" d="M45 465q0 246 141 386q121 120 309 120q220 0 334 -146q68 -89 79 -214h-275q-25 164 -138 164q-81 0 -124 -82q-45 -85 -45 -224q0 -143 48 -229q41 -72 117 -72q84 0 124 95q18 41 24 99h271q-18 -143 -90 -238q-117 -153 -331 -153q-193 0 -313 125q-131 137 -131 369 zM175 1365h205l95 -147l96 147h196l-182 -273h-228z" />
<glyph unicode="&#x110;" horiz-adv-x="1217" vert-adv-y="1433" d="M0 585v238h107v542h421q277 0 437 -148q195 -180 195 -530q0 -342 -184 -530q-100 -103 -231 -134q-93 -23 -219 -23h-419v585h-107zM400 250h131q156 0 227 74q109 114 109 364q0 206 -92 323q-82 104 -253 104h-122v-292h223v-238h-223v-335z" />
<glyph unicode="&#x111;" horiz-adv-x="1028" vert-adv-y="1433" d="M45 481q0 225 103 356q48 61 120 97q73 37 151 37q141 0 238 -108v205h-221v146h221v151h281v-151h76v-146h-76v-1068h-271v79q-90 -108 -237 -108q-186 0 -293 163q-92 139 -92 347zM326 478q0 -159 64 -241q42 -53 103 -53q92 0 137 97q37 78 37 192q0 128 -45 205 q-47 80 -126 80q-78 0 -122 -75q-48 -80 -48 -205z" />
<glyph unicode="&#x152;" horiz-adv-x="1780" vert-adv-y="1433" d="M57 683q0 334 163 530q78 93 191 143q92 41 190 41q168 0 289 -145v113h803v-250h-551v-292h501v-238h-501v-335h562v-250h-814v111q-119 -144 -295 -144q-166 0 -305 115q-233 194 -233 601zM350 691q0 -210 75 -347q34 -62 101 -99q48 -28 103 -28q79 0 143 59 q63 58 98 183q30 106 30 227q0 199 -74 333q-70 128 -200 128q-129 0 -200 -127q-76 -138 -76 -329z" />
<glyph unicode="&#x153;" horiz-adv-x="1544" vert-adv-y="1433" d="M45 472q0 218 118 354q126 145 326 145q191 0 299 -162q105 162 288 162q149 0 260 -101q118 -107 150 -309q10 -65 12 -158h-590q11 -244 165 -244q102 0 146 134h266q-20 -83 -71 -156q-118 -166 -329 -166q-194 0 -301 158q-106 -158 -296 -158q-197 0 -321 140 q-122 136 -122 361zM326 473q0 -141 44 -222q45 -83 127 -83q78 0 121 76q48 84 48 225q0 140 -43 220q-46 86 -128 86q-80 0 -125 -85q-44 -83 -44 -217zM909 571h309q-6 65 -24 110q-19 49 -58 79q-30 23 -70 23q-86 0 -129 -95q-22 -48 -28 -117z" />
<glyph unicode="&#x160;" horiz-adv-x="1062" vert-adv-y="1433" d="M41 399h295q12 -80 37 -119q52 -80 150 -80q87 0 135 54q42 46 42 116q0 79 -67 134q-32 26 -81 47q-14 6 -101 37q-168 59 -243 118q-149 118 -149 309q0 164 104 267q116 114 321 114q256 0 384 -175q60 -82 79 -216h-286q-10 79 -50 115q-48 42 -129 42 q-69 0 -108 -33q-45 -37 -45 -105q0 -77 68 -124q50 -36 198 -84q173 -56 268 -131q138 -110 138 -296t-128 -302q-133 -120 -355 -120q-265 0 -395 199q-66 102 -82 233zM224 1734h215l89 -121l86 121h225l-190 -259h-234z" />
<glyph unicode="&#x161;" horiz-adv-x="892" vert-adv-y="1433" d="M61 284h260q17 -131 138 -131q53 0 83 26q31 27 31 72q0 63 -69 101q-30 17 -123 49q-157 54 -209 93q-102 76 -102 196q0 134 100 210q92 71 251 71q212 0 316 -131q47 -60 62 -144h-261q-26 90 -108 90q-89 0 -89 -83q0 -56 64 -90q28 -14 151 -54q118 -38 181 -86 q100 -75 100 -205q0 -135 -102 -217q-99 -80 -268 -80q-164 0 -256 63q-130 88 -150 250zM150 1365h205l95 -147l96 147h196l-182 -273h-228z" />
<glyph unicode="&#x178;" horiz-adv-x="1131" vert-adv-y="1433" d="M-4 1365h326l246 -540l246 540h321l-423 -837v-528h-293v532zM276 1447v246h237v-246h-237zM617 1447v246h238v-246h-238z" />
<glyph unicode="&#x17d;" horiz-adv-x="1056" vert-adv-y="1433" d="M33 0v238l613 877h-569v250h924v-222l-620 -889h638v-254h-986zM221 1734h215l89 -121l86 121h225l-190 -259h-234z" />
<glyph unicode="&#x17e;" horiz-adv-x="837" vert-adv-y="1433" d="M33 0v194l427 545h-394v203h734v-187l-439 -552h468v-203h-796zM123 1365h205l95 -147l96 147h196l-182 -273h-228z" />
<glyph unicode="&#x2c6;" vert-adv-y="1433" d="M216 1092l182 273h228l182 -273h-205l-95 147l-95 -147h-197z" />
<glyph unicode="&#x2da;" vert-adv-y="1433" d="M306 1261q0 87 61 146q60 58 146 58q82 0 141 -59q59 -60 59 -145q0 -83 -58 -142q-60 -61 -145 -61q-86 0 -145 59q-59 60 -59 144zM427 1258q0 -37 25 -64q24 -26 60 -26t61 27q24 27 24 63q0 39 -25 65t-58 26q-37 0 -62 -26t-25 -65z" />
<glyph unicode="&#x2dc;" vert-adv-y="1433" d="M223 1099q8 64 24 109q30 83 85 122q35 25 78 25q45 0 111 -35q70 -38 99 -39q33 -2 56 78h126q-34 -254 -187 -254q-42 0 -91 22q-15 7 -76 42q-26 15 -45 15q-39 0 -54 -85h-126z" />
<glyph unicode="&#x2000;" horiz-adv-x="908" vert-adv-y="0" />
<glyph unicode="&#x2001;" horiz-adv-x="1816" vert-adv-y="0" />
<glyph unicode="&#x2002;" horiz-adv-x="908" vert-adv-y="0" />
<glyph unicode="&#x2003;" horiz-adv-x="1816" vert-adv-y="0" />
<glyph unicode="&#x2004;" horiz-adv-x="605" vert-adv-y="0" />
<glyph unicode="&#x2005;" horiz-adv-x="454" vert-adv-y="0" />
<glyph unicode="&#x2006;" horiz-adv-x="302" vert-adv-y="0" />
<glyph unicode="&#x2007;" horiz-adv-x="302" vert-adv-y="0" />
<glyph unicode="&#x2008;" horiz-adv-x="227" vert-adv-y="0" />
<glyph unicode="&#x2009;" horiz-adv-x="363" vert-adv-y="0" />
<glyph unicode="&#x200a;" horiz-adv-x="100" vert-adv-y="0" />
<glyph unicode="&#x2010;" horiz-adv-x="453" vert-adv-y="1433" d="M0 387v246h453v-246h-453z" />
<glyph unicode="&#x2011;" horiz-adv-x="453" vert-adv-y="1433" d="M0 387v246h453v-246h-453z" />
<glyph unicode="&#x2012;" horiz-adv-x="453" vert-adv-y="1433" d="M0 387v246h453v-246h-453z" />
<glyph unicode="&#x2013;" horiz-adv-x="996" vert-adv-y="1433" d="M102 387v246h793v-246h-793z" />
<glyph unicode="&#x2014;" horiz-adv-x="1487" vert-adv-y="1433" d="M90 387v246h1310v-246h-1310z" />
<glyph unicode="&#x2018;" horiz-adv-x="546" vert-adv-y="1433" d="M123 772v229q0 136 37 212q36 73 119 124q59 37 144 49v-144q-120 -33 -127 -176h127v-294h-300z" />
<glyph unicode="&#x2019;" horiz-adv-x="546" vert-adv-y="1433" d="M123 751v144q120 32 127 176h-127v294h300v-228q0 -136 -37 -213q-35 -73 -119 -124q-59 -37 -144 -49z" />
<glyph unicode="&#x201a;" horiz-adv-x="434" vert-adv-y="1433" d="M67 0v294h300v-228q0 -136 -37 -213q-35 -73 -119 -124q-59 -37 -144 -48v143q120 32 127 176h-127z" />
<glyph unicode="&#x201c;" horiz-adv-x="942" vert-adv-y="1433" d="M123 772v229q0 136 37 212q36 73 119 124q59 37 144 49v-144q-120 -33 -127 -176h127v-294h-300zM519 772v229q0 136 37 212q36 73 119 124q59 37 144 49v-144q-120 -32 -127 -176h127v-294h-300z" />
<glyph unicode="&#x201d;" horiz-adv-x="942" vert-adv-y="1433" d="M123 751v144q120 32 127 176h-127v294h300v-228q0 -136 -37 -213q-35 -73 -119 -124q-59 -37 -144 -49zM519 751v144q120 32 127 176h-127v294h300v-228q0 -137 -37 -213q-36 -73 -119 -124q-59 -37 -144 -49z" />
<glyph unicode="&#x201e;" horiz-adv-x="830" vert-adv-y="1433" d="M67 0v294h300v-228q0 -136 -37 -213q-35 -73 -119 -124q-59 -37 -144 -48v143q120 32 127 176h-127zM463 0v294h300v-228q0 -137 -37 -213q-36 -73 -119 -124q-59 -37 -144 -48v143q120 32 127 176h-127z" />
<glyph unicode="&#x2022;" horiz-adv-x="1365" vert-adv-y="1433" d="M401 693q0 121 84 202q85 83 204 83q113 0 196 -83q84 -83 84 -201t-84 -201q-82 -83 -200 -83t-200 83q-84 83 -84 200z" />
<glyph unicode="&#x2026;" horiz-adv-x="1630" vert-adv-y="1433" d="M123 0v294h300v-294h-300zM665 0v294h300v-294h-300zM1207 0v294h300v-294h-300z" />
<glyph unicode="&#x202f;" horiz-adv-x="363" vert-adv-y="0" />
<glyph unicode="&#x2039;" horiz-adv-x="455" vert-adv-y="1433" d="M82 381v252l271 258v-248l-144 -136l144 -136v-242z" />
<glyph unicode="&#x203a;" horiz-adv-x="455" vert-adv-y="1433" d="M102 129v241l144 137l-144 136v248l271 -257v-252z" />
<glyph unicode="&#x205f;" horiz-adv-x="454" vert-adv-y="0" />
<glyph unicode="&#x20ac;" horiz-adv-x="1283" vert-adv-y="1433" d="M29 460l78 171h90q-1 30 -1 47q0 16 1 43h-156l78 171h99q11 52 31 110q72 201 229 309q127 86 307 86q215 0 394 -131l-102 -240q-76 61 -121 83q-78 39 -162 39q-158 0 -230 -131q-31 -56 -49 -125h496l-72 -171h-449q-1 -25 -1 -39q0 -20 2 -51h410l-72 -171h-311 q66 -244 268 -244q79 0 138 33q40 22 97 69l175 -170q-52 -46 -86 -71q-146 -110 -346 -110q-343 0 -494 338q-32 71 -51 155h-190z" />
<glyph unicode="&#x2122;" horiz-adv-x="1481" vert-adv-y="1433" d="M7 1193v172h592v-172h-197v-647h-200v647h-195zM655 546v819h258l133 -502l129 502h257v-819h-193v453l-113 -453h-162l-116 450v-450h-193z" />
<glyph unicode="&#xe000;" horiz-adv-x="940" vert-adv-y="1880" d="M0 0v940h940v-940h-940z" />
</font>
</defs>
</svg>
