<?xml version="1.0" standalone="no"?>
<!DOCTYPE svg PUBLIC "-//W3C//DTD SVG 1.1//EN" "http://www.w3.org/Graphics/SVG/1.1/DTD/svg11.dtd" >
<svg xmlns="http://www.w3.org/2000/svg">
<metadata></metadata>
<defs>
<font id="tele-grotesknorregular" horiz-adv-x="1024" vert-adv-y="2048" >
<font-face units-per-em="2048" ascent="1679" descent="-369" />
<missing-glyph horiz-adv-x="396" />
<glyph horiz-adv-x="2048" vert-adv-y="0" />
<glyph horiz-adv-x="2048" vert-adv-y="0" />
<glyph unicode="&#xd;" horiz-adv-x="2048" vert-adv-y="0" />
<glyph unicode=" " horiz-adv-x="396" vert-adv-y="1433" />
<glyph unicode="!" horiz-adv-x="459" vert-adv-y="1433" d="M160 0v205h139v-205h-139zM168 965v400h122v-400l-28 -623h-67z" />
<glyph unicode="&#x22;" horiz-adv-x="535" vert-adv-y="1433" d="M82 1365h115l-16 -519h-83zM338 1365h115l-16 -519h-83z" />
<glyph unicode="#" horiz-adv-x="1229" vert-adv-y="1433" d="M135 464v92h213l38 276h-199v92h212l53 373h106l-52 -373h275l53 373h106l-52 -373h202v-92h-215l-39 -276h202v-92h-215l-55 -396h-107l56 396h-276l-55 -396h-107l56 396h-200zM454 556h276l39 276h-276z" />
<glyph unicode="$" horiz-adv-x="1049" vert-adv-y="1433" d="M96 383h117q18 -123 99 -193q61 -53 153 -69v541q-123 37 -180 69q-174 99 -174 297q0 102 55 180q94 134 299 147v92h100v-97q133 -22 217 -97q90 -82 109 -221h-127q-17 91 -62 139q-50 53 -137 73v-494q128 -37 183 -64q103 -50 159 -143q48 -80 48 -175 q0 -123 -76 -215q-104 -126 -314 -143v-92h-100v94q-330 43 -369 371zM231 1025q0 -135 135 -204q31 -16 99 -39v468q-82 -8 -132 -39q-102 -64 -102 -186zM565 119q81 8 136 37q57 30 90 83q37 58 37 127q0 189 -263 265v-512z" />
<glyph unicode="%" horiz-adv-x="1695" vert-adv-y="1433" d="M45 962q0 187 91 302q96 120 242 120q148 0 241 -120q92 -120 92 -310q0 -168 -74 -284q-92 -144 -259 -144q-166 0 -259 144q-74 116 -74 292zM143 963q0 -146 56 -240q64 -106 180 -106q105 0 167 89q67 97 67 248t-65 245t-170 94q-103 0 -169 -92t-66 -238zM506 0 l588 1365h95l-584 -1365h-99zM984 417q0 186 91 301q96 120 242 120q149 0 242 -120q92 -120 92 -310q0 -168 -74 -283q-93 -144 -260 -144q-166 0 -259 144q-74 116 -74 292zM1082 418q0 -147 56 -241q64 -105 180 -105q105 0 168 89q67 96 67 248q0 150 -65 244t-171 94 q-103 0 -169 -92q-66 -91 -66 -237z" />
<glyph unicode="&#x26;" horiz-adv-x="1030" vert-adv-y="1433" d="M83 319q0 160 113 293q45 53 145 136q-12 17 -38 57q-114 167 -114 305t103 223q77 63 176 63q122 0 199 -83q73 -78 73 -195q0 -112 -78 -213q-55 -72 -182 -172l283 -425q44 110 50 259h112q-21 -208 -103 -348l145 -219h-132l-82 123q-46 -53 -88 -82 q-100 -70 -239 -70q-154 0 -243 92q-100 102 -100 256zM201 318q0 -115 72 -186q65 -65 164 -65q158 0 265 135l-307 463q-194 -162 -194 -347zM303 1104q0 -91 63 -197q12 -21 58 -90q86 72 121 114q77 93 77 188q0 70 -41 121q-44 55 -116 55q-62 0 -106 -44 q-56 -58 -56 -147z" />
<glyph unicode="'" horiz-adv-x="279" vert-adv-y="1433" d="M82 1365h115l-16 -519h-83z" />
<glyph unicode="(" horiz-adv-x="505" vert-adv-y="1433" d="M85 504q0 311 110 604q56 151 117 257h85q-203 -398 -203 -864q0 -452 204 -856h-86q-90 180 -141 329q-86 252 -86 530z" />
<glyph unicode=")" horiz-adv-x="505" vert-adv-y="1433" d="M108 -355q204 395 204 864q0 451 -204 856h86q90 -181 141 -329q86 -251 86 -530q0 -311 -110 -604q-56 -150 -117 -257h-86z" />
<glyph unicode="*" horiz-adv-x="819" vert-adv-y="1433" d="M123 1133l22 67l228 -78l-1 243h74l-1 -243l229 78l23 -67l-232 -75l145 -192l-56 -43l-145 194l-150 -194l-57 43l151 192z" />
<glyph unicode="+" vert-adv-y="1433" d="M68 637v105h387v361h113v-361h387v-105h-387v-361h-113v361h-387z" />
<glyph unicode="," horiz-adv-x="410" vert-adv-y="1433" d="M123 -184q71 42 71 161v23h-59v205h139v-148q0 -155 -36 -223q-37 -69 -115 -100v82z" />
<glyph unicode="-" horiz-adv-x="403" vert-adv-y="1433" d="M8 454v106h387v-106h-387z" />
<glyph unicode="." horiz-adv-x="410" vert-adv-y="1433" d="M135 0v205h139v-205h-139z" />
<glyph unicode="/" horiz-adv-x="702" vert-adv-y="1433" d="M-54 -355l588 1720h94l-585 -1720h-97z" />
<glyph unicode="0" horiz-adv-x="971" vert-adv-y="1433" d="M88 668q0 355 97 531q106 193 300 193q201 0 307 -200q90 -170 90 -504q0 -371 -107 -545q-106 -172 -287 -172q-400 0 -400 697zM206 671q0 -598 279 -598t279 609q0 310 -69 455q-74 153 -206 153q-168 0 -233 -209q-50 -162 -50 -410z" />
<glyph unicode="1" horiz-adv-x="972" vert-adv-y="1433" d="M228 1025v93q125 5 180 75q37 48 59 172h91v-1365h-119v1100q-49 -51 -107 -66q-27 -7 -104 -9z" />
<glyph unicode="2" horiz-adv-x="971" vert-adv-y="1433" d="M106 1016q13 162 93 258q102 122 280 122q181 0 283 -123q89 -107 89 -260q0 -184 -132 -323q-59 -62 -129 -113l-129 -93q-150 -109 -196 -235q-22 -62 -24 -143h599v-106h-732q3 205 81 346q56 101 176 197q25 19 168 122q89 63 146 162q51 86 51 194q0 113 -58 185 q-71 87 -195 87q-136 0 -208 -109q-41 -64 -45 -168h-118z" />
<glyph unicode="3" horiz-adv-x="972" vert-adv-y="1433" d="M83 389h109q1 -112 39 -185q67 -131 232 -131q124 0 199 81q81 86 81 227q0 160 -105 240q-77 58 -188 58q-16 0 -51 -3v102q26 -1 39 -1q103 0 169 51q96 74 96 213q0 118 -71 187q-64 62 -168 62q-158 0 -218 -125q-26 -55 -29 -141h-108q4 144 69 235q96 133 291 133 q161 0 258 -97q94 -94 94 -247q0 -220 -194 -311q234 -82 234 -352q0 -188 -114 -306q-105 -108 -280 -108q-177 0 -279 104q-105 106 -105 314z" />
<glyph unicode="4" horiz-adv-x="972" vert-adv-y="1433" d="M84 369v113l524 883h95v-895h169v-101h-169v-369h-104v369h-515zM176 470h423v703z" />
<glyph unicode="5" horiz-adv-x="971" vert-adv-y="1433" d="M99 332h110q8 -101 56 -164q72 -95 203 -95q122 0 198 101q82 110 82 275q0 159 -74 260q-73 100 -207 100q-151 0 -239 -159l-95 15l108 700h568v-106h-483l-78 -469q89 121 244 121q162 0 263 -116q111 -129 111 -338q0 -225 -127 -368q-104 -118 -277 -118 q-185 0 -284 125q-73 92 -79 236z" />
<glyph unicode="6" horiz-adv-x="971" vert-adv-y="1433" d="M100 632q0 392 116 582q108 178 302 178q158 0 250 -113q57 -70 75 -198h-112q-34 209 -219 209q-182 0 -253 -239q-42 -142 -50 -380q32 73 76 120q95 100 227 100q148 0 249 -107q122 -130 122 -341q0 -200 -103 -337q-102 -135 -278 -135q-192 0 -291 154 q-66 102 -88 225q-23 132 -23 282zM229 441q0 -149 69 -255q74 -113 200 -113q130 0 202 116q65 104 65 246t-65 240q-76 115 -205 115q-130 0 -204 -119q-62 -99 -62 -230z" />
<glyph unicode="7" horiz-adv-x="971" vert-adv-y="1433" d="M143 1254v111h727v-108q-229 -280 -330 -564q-116 -324 -121 -693h-120q3 419 166 791q107 245 290 463h-612z" />
<glyph unicode="8" horiz-adv-x="972" vert-adv-y="1433" d="M96 377q0 266 231 380q-187 94 -187 298q0 161 110 257q90 80 235 80q146 0 239 -81q105 -92 105 -243q0 -115 -60 -205q-41 -62 -125 -106q231 -116 231 -375q0 -183 -113 -303q-101 -108 -275 -108q-177 0 -278 105q-113 116 -113 301zM214 389q0 -159 83 -247 q71 -75 193 -75q128 0 201 96q66 87 66 222q0 141 -70 224q-76 90 -201 90q-123 0 -197 -84q-75 -84 -75 -226zM253 1049q0 -114 62 -180q63 -68 173 -68q107 0 168 69q61 68 61 179q0 107 -55 170q-63 71 -175 71q-105 0 -168 -62q-66 -64 -66 -179z" />
<glyph unicode="9" horiz-adv-x="971" vert-adv-y="1433" d="M88 921q0 200 101 336q101 135 275 135q193 0 294 -154q67 -102 89 -225q24 -132 24 -283q0 -389 -116 -581q-107 -178 -302 -178q-161 0 -254 113q-59 71 -78 199h113q35 -210 224 -210q184 0 254 240q42 139 51 379q-97 -219 -304 -219q-148 0 -249 107 q-122 129 -122 341zM206 929q0 -141 65 -240q75 -115 205 -115t204 119q62 100 62 230q0 151 -71 254q-77 113 -203 113q-128 0 -199 -116q-63 -104 -63 -245z" />
<glyph unicode=":" horiz-adv-x="410" vert-adv-y="1433" d="M135 0v205h139v-205h-139zM135 737v205h139v-205h-139z" />
<glyph unicode=";" horiz-adv-x="410" vert-adv-y="1433" d="M123 -184q71 42 71 161v23h-59v205h139v-148q0 -155 -36 -223q-37 -69 -115 -100v82zM135 737v205h139v-205h-139z" />
<glyph unicode="&#x3c;" vert-adv-y="1433" d="M68 630v106l887 407v-121l-757 -339l757 -339v-122z" />
<glyph unicode="=" vert-adv-y="1433" d="M68 501v105h887v-105h-887zM68 774v105h887v-105h-887z" />
<glyph unicode="&#x3e;" vert-adv-y="1433" d="M69 222v122l756 339l-756 339v121l887 -407v-107z" />
<glyph unicode="?" horiz-adv-x="873" vert-adv-y="1433" d="M70 1017q5 146 65 234q97 143 294 143q181 0 280 -115q85 -98 85 -241q0 -115 -59 -215q-41 -69 -107 -142q-72 -80 -88 -109q-37 -67 -38 -232h-112q1 104 9 157q16 94 72 168q22 29 75 90q66 76 96 134q33 65 33 143q0 102 -56 174q-65 82 -184 82q-113 0 -183 -70 q-65 -66 -71 -201h-111zM375 0v205h139v-205h-139z" />
<glyph unicode="@" horiz-adv-x="1517" vert-adv-y="1433" d="M86 589q0 229 116 433q108 190 299 289q163 85 341 85q241 0 407 -138q182 -152 182 -397q0 -171 -89 -314q-71 -113 -168 -163q-64 -33 -129 -33q-71 0 -107 51q-19 26 -21 68q-82 -130 -214 -130q-103 0 -165 82q-57 76 -57 193q0 155 89 269q82 105 208 105 q137 0 182 -149l24 127h100l-74 -385q-10 -79 -10 -85q0 -62 58 -62q84 0 160 82q126 138 126 342q0 208 -149 333q-141 119 -353 119q-269 0 -459 -198q-199 -207 -199 -521q0 -239 134 -384q145 -156 415 -156q228 0 445 108l26 -84q-221 -109 -481 -109q-307 0 -470 170 q-167 174 -167 452zM576 625q0 -79 33 -135q37 -63 112 -63q101 0 162 106q45 80 45 189q0 81 -36 127q-38 50 -107 50q-95 0 -156 -92q-53 -78 -53 -182z" />
<glyph unicode="A" horiz-adv-x="1087" vert-adv-y="1433" d="M20 0l459 1365h133l454 -1365h-133l-136 430h-511l-138 -430h-128zM320 535h444l-220 695z" />
<glyph unicode="B" horiz-adv-x="1118" vert-adv-y="1433" d="M147 0v1365h393q209 0 311 -70q136 -94 136 -266q0 -138 -95 -230q-56 -55 -146 -83q285 -65 285 -332q0 -202 -163 -310q-111 -74 -307 -74h-414zM269 106h258q186 0 269 55q110 71 110 226q0 161 -130 229q-80 42 -250 42h-257v-552zM269 760h196q161 0 245 31 q80 30 123 104q31 53 31 123q0 150 -120 209q-65 32 -205 32h-270v-499z" />
<glyph unicode="C" horiz-adv-x="1182" vert-adv-y="1433" d="M86 677q0 324 151 523q150 197 395 197q142 0 257 -73q173 -111 206 -327h-124q-34 119 -88 180q-101 113 -255 113q-180 0 -291 -153q-127 -177 -127 -456q0 -273 118 -445q52 -76 130 -119q79 -44 173 -44q167 0 271 145q66 93 83 233h124q-19 -165 -99 -284 q-135 -200 -381 -200q-261 0 -416 230q-127 189 -127 480z" />
<glyph unicode="D" horiz-adv-x="1171" vert-adv-y="1433" d="M148 0v1365h343q166 0 271 -47q154 -68 240 -229q82 -155 82 -393q0 -365 -182 -548q-147 -148 -403 -148h-351zM270 106h230q246 0 352 151q108 154 108 437q0 327 -157 467q-109 98 -293 98h-240v-1153z" />
<glyph unicode="E" horiz-adv-x="1017" vert-adv-y="1433" d="M147 0v1365h787v-106h-665v-499h622v-106h-622v-548h672v-106h-794z" />
<glyph unicode="F" horiz-adv-x="919" vert-adv-y="1433" d="M147 0v1365h731v-106h-609v-498h541v-106h-541v-655h-122z" />
<glyph unicode="G" horiz-adv-x="1252" vert-adv-y="1433" d="M86 677q0 324 151 523q150 197 397 197q145 0 262 -73q172 -106 211 -320h-125q-34 114 -91 176q-102 111 -262 111q-181 0 -292 -153q-127 -177 -127 -456q0 -274 118 -446q112 -163 306 -163q139 0 237 102q125 129 142 341q2 24 4 72h-383v106h495v-694h-102v239 q-55 -99 -109 -153q-117 -119 -289 -119q-261 0 -416 230q-127 190 -127 480z" />
<glyph unicode="H" horiz-adv-x="1207" vert-adv-y="1433" d="M147 0v1365h122v-596h668v596h122v-1365h-122v663h-668v-663h-122z" />
<glyph unicode="I" horiz-adv-x="417" vert-adv-y="1433" d="M147 0v1365h122v-1365h-122z" />
<glyph unicode="J" horiz-adv-x="586" vert-adv-y="1433" d="M10 -20v109q53 -16 104 -16q149 0 194 136q25 76 25 286v870h122v-898q0 -166 -15 -236q-56 -264 -326 -264q-47 0 -104 13z" />
<glyph unicode="K" horiz-adv-x="1088" vert-adv-y="1433" d="M147 0v1365h122v-691l645 691h141l-542 -580l564 -785h-138l-505 701l-165 -177v-524h-122z" />
<glyph unicode="L" horiz-adv-x="939" vert-adv-y="1433" d="M147 0v1365h122v-1259h631v-106h-753z" />
<glyph unicode="M" horiz-adv-x="1415" vert-adv-y="1433" d="M147 0v1365h159l405 -1191l397 1191h160v-1365h-116v1170l-387 -1170h-108l-394 1162v-1162h-116z" />
<glyph unicode="N" horiz-adv-x="1205" vert-adv-y="1433" d="M147 0v1365h131l663 -1169v1169h116v-1365h-132l-662 1163v-1163h-116z" />
<glyph unicode="O" horiz-adv-x="1260" vert-adv-y="1433" d="M86 693q0 312 150 504q155 199 394 199q243 0 393 -199q151 -201 151 -518q0 -281 -122 -474q-74 -118 -188 -180q-106 -58 -234 -58q-272 0 -422 238q-122 193 -122 488zM210 696q0 -262 100 -431q57 -97 154 -150q76 -42 167 -42q124 0 224 80q106 86 158 255 q37 121 37 272q0 269 -115 438q-116 172 -305 172q-186 0 -303 -167q-117 -166 -117 -427z" />
<glyph unicode="P" horiz-adv-x="1049" vert-adv-y="1433" d="M147 0v1365h348q147 0 227 -26q114 -37 181 -133q63 -92 63 -228q0 -216 -161 -322q-113 -74 -324 -74h-212v-582h-122zM269 688h222q179 0 257 64q93 75 93 222q0 165 -115 239q-51 32 -124 42q-35 4 -117 4h-216v-571z" />
<glyph unicode="Q" horiz-adv-x="1260" vert-adv-y="1433" d="M86 683q0 318 150 514q152 199 394 199q243 0 393 -199q151 -202 151 -518q0 -345 -180 -550l152 -160l-69 -69l-154 163q-131 -96 -295 -96q-269 0 -420 238q-122 193 -122 478zM210 687q0 -253 100 -422q57 -97 154 -150q76 -42 166 -42q113 0 214 73l-155 165l69 68 l156 -165q136 178 136 466q0 265 -115 438q-113 172 -305 172q-186 0 -303 -167t-117 -436z" />
<glyph unicode="R" horiz-adv-x="1145" vert-adv-y="1433" d="M147 0v1365h443q122 0 194 -25q116 -40 177 -138q50 -80 50 -198q0 -171 -108 -273q-54 -50 -133 -72q101 -22 148 -81q56 -71 71 -292q9 -148 19 -198q9 -51 34 -88h-138q-21 38 -28 75q-10 47 -18 202q-8 143 -35 203q-40 85 -156 115q-63 16 -176 16h-222v-611h-122z M269 714h280q171 0 242 55q95 76 95 231q0 142 -93 211q-65 48 -207 48h-317v-545z" />
<glyph unicode="S" horiz-adv-x="1035" vert-adv-y="1433" d="M68 383h117q17 -121 82 -197q95 -111 261 -111q140 0 221 74q88 80 88 210q0 137 -112 211q-56 37 -269 97q-155 43 -227 93q-142 99 -142 279q0 144 98 244q113 114 306 114q248 0 367 -175q51 -75 66 -190h-127q-19 108 -68 164q-82 94 -236 94q-133 0 -209 -73 q-75 -72 -75 -181q0 -117 86 -180q67 -50 220 -92q154 -43 197 -60q255 -104 255 -344q0 -166 -113 -276q-122 -117 -322 -117q-242 0 -365 154q-81 102 -99 262z" />
<glyph unicode="T" horiz-adv-x="985" vert-adv-y="1433" d="M35 1259v106h916v-106h-397v-1259h-122v1259h-397z" />
<glyph unicode="U" horiz-adv-x="1162" vert-adv-y="1433" d="M131 555v810h122v-814q0 -148 18 -223q31 -131 114 -192q85 -63 202 -63q110 0 190 58q84 60 113 191q19 82 19 230v813h122v-814q0 -196 -33 -291q-51 -148 -157 -219q-109 -74 -256 -74q-149 0 -261 74q-120 80 -166 244q-27 95 -27 270z" />
<glyph unicode="V" horiz-adv-x="1028" vert-adv-y="1433" d="M20 1365h133l364 -1209l363 1209h127l-423 -1365h-138z" />
<glyph unicode="W" horiz-adv-x="1504" vert-adv-y="1433" d="M25 1365h125l259 -1172l276 1172h136l278 -1172l260 1172h120l-315 -1365h-129l-284 1183l-282 -1183h-130z" />
<glyph unicode="X" horiz-adv-x="1005" vert-adv-y="1433" d="M20 0l415 702l-390 663h139l319 -564l327 564h132l-391 -663l413 -702h-141l-341 598l-347 -598h-135z" />
<glyph unicode="Y" horiz-adv-x="1017" vert-adv-y="1433" d="M-2 1365h141l373 -682l372 682h135l-449 -800v-565h-122v565z" />
<glyph unicode="Z" horiz-adv-x="1001" vert-adv-y="1433" d="M57 0v115l745 1144h-691v106h825v-112l-745 -1147h759v-106h-893z" />
<glyph unicode="[" horiz-adv-x="506" vert-adv-y="1433" d="M139 -355v1720h266v-94h-163v-1532h163v-94h-266z" />
<glyph unicode="\" horiz-adv-x="702" vert-adv-y="1433" d="M73 1365h94l588 -1720h-97z" />
<glyph unicode="]" horiz-adv-x="506" vert-adv-y="1433" d="M101 -261h164v1532h-164v94h266v-1720h-266v94z" />
<glyph unicode="^" vert-adv-y="1433" d="M73 779l369 589h140l369 -589h-120l-321 504l-318 -504h-119z" />
<glyph unicode="_" vert-adv-y="1433" d="M68 -109h887v-105h-887v105z" />
<glyph unicode="`" vert-adv-y="1433" d="M295 1365h118l163 -273h-103z" />
<glyph unicode="a" horiz-adv-x="897" vert-adv-y="1433" d="M83 242q0 148 113 229q85 62 241 78q66 6 211 10v89q0 229 -206 229q-199 0 -218 -225h-104q6 148 87 230q88 89 246 89q173 0 255 -111q40 -54 49 -145q4 -35 4 -140v-356q0 -85 7 -106q8 -27 43 -27q17 0 43 10v-89q-40 -17 -79 -17q-72 0 -97 61q-14 33 -14 100v34 q-120 -214 -314 -214q-105 0 -178 64q-89 77 -89 207zM196 245q0 -75 52 -129q50 -51 126 -51q89 0 158 63q68 62 96 161q20 72 20 131v57q-168 -8 -252 -26q-95 -21 -142 -68q-58 -58 -58 -138z" />
<glyph unicode="b" horiz-adv-x="989" vert-adv-y="1433" d="M137 0v1365h112v-579q22 52 65 94q91 91 218 91q169 0 274 -137q102 -133 102 -363q0 -235 -109 -371q-104 -129 -266 -129q-139 0 -232 104q-36 40 -60 98v-173h-104zM245 476q0 -192 79 -306q73 -105 199 -105q124 0 196 106q77 113 77 297q0 180 -68 289 q-74 120 -206 120q-81 0 -147 -50q-68 -51 -101 -154q-29 -89 -29 -197z" />
<glyph unicode="c" horiz-adv-x="879" vert-adv-y="1433" d="M80 472q0 207 91 345q102 154 294 154q158 0 254 -114q59 -70 80 -178h-115q-17 75 -50 117q-64 81 -170 81q-124 0 -196 -108q-76 -114 -76 -297q0 -185 74 -298q71 -109 198 -109q120 0 187 109q32 51 43 128h114q-10 -104 -65 -187q-96 -144 -279 -144 q-187 0 -288 146q-96 139 -96 355z" />
<glyph unicode="d" horiz-adv-x="989" vert-adv-y="1433" d="M80 471q0 230 102 363q105 137 274 137q134 0 228 -101q36 -38 55 -84v579h113v-1365h-104v173q-90 -202 -293 -202q-161 0 -266 129q-109 136 -109 371zM192 474q0 -191 77 -303q73 -106 197 -106q126 0 199 105q79 115 79 300q0 192 -79 304q-73 103 -199 103 q-133 0 -206 -120q-68 -110 -68 -283z" />
<glyph unicode="e" horiz-adv-x="908" vert-adv-y="1433" d="M80 472q0 223 109 362q108 137 271 137q132 0 228 -92q140 -132 141 -434h-637q3 -137 45 -226q73 -154 232 -154q172 0 238 211h108q-21 -98 -73 -170q-99 -135 -274 -135q-190 0 -294 151q-94 137 -94 350zM192 535h523q-5 120 -46 201q-37 74 -101 114q-48 30 -108 30 q-93 0 -164 -72q-86 -88 -104 -273z" />
<glyph unicode="f" horiz-adv-x="474" vert-adv-y="1433" d="M29 848v94h137v150q0 152 29 206q54 98 169 98q39 0 99 -20v-103q-39 22 -87 22q-44 0 -72 -35q-25 -33 -25 -154v-164h164v-94h-164v-848h-113v848h-137z" />
<glyph unicode="g" horiz-adv-x="970" vert-adv-y="1433" d="M80 501q0 225 108 349q104 121 260 121q195 0 277 -187v158h108v-809q0 -130 -14 -197q-28 -128 -124 -208q-100 -83 -240 -83q-151 0 -247 90q-72 68 -93 182h117q14 -69 54 -110q65 -68 173 -68q136 0 207 113q54 86 54 240v109q-22 -54 -61 -96q-88 -93 -209 -93 q-165 0 -269 135q-101 130 -101 354zM192 512q0 -175 64 -287q68 -119 197 -119q77 0 142 50q65 49 98 151q29 89 29 198q0 175 -76 276q-71 96 -190 96t-190 -96q-74 -102 -74 -269z" />
<glyph unicode="h" horiz-adv-x="951" vert-adv-y="1433" d="M137 0v1365h112v-571q96 177 281 177q111 0 188 -65q72 -61 92 -173q10 -53 10 -140v-593h-112v555q0 144 -26 213q-18 47 -63 77q-47 32 -111 32q-110 0 -183 -87q-52 -62 -67 -162q-9 -55 -9 -156v-472h-112z" />
<glyph unicode="i" horiz-adv-x="395" vert-adv-y="1433" d="M141 0v942h112v-942h-112zM141 1174v191h112v-191h-112z" />
<glyph unicode="j" horiz-adv-x="392" vert-adv-y="1433" d="M-8 -250q24 -6 45 -6q84 0 96 83q5 38 5 125v990h112v-986q0 -163 -30 -222q-45 -89 -167 -89q-31 0 -61 8v97zM138 1174v191h112v-191h-112z" />
<glyph unicode="k" horiz-adv-x="890" vert-adv-y="1433" d="M137 0v1365h112v-846l449 423h140l-376 -354l396 -588h-128l-347 514l-134 -127v-387h-112z" />
<glyph unicode="l" horiz-adv-x="395" vert-adv-y="1433" d="M141 0v1365h112v-1365h-112z" />
<glyph unicode="m" horiz-adv-x="1418" vert-adv-y="1433" d="M137 0v942h106v-159q85 188 256 188q177 0 245 -198q93 198 270 198q104 0 177 -65q67 -61 87 -173q9 -54 9 -140v-593h-112v555q0 143 -24 213q-16 46 -58 77q-43 32 -99 32q-97 0 -160 -88q-44 -61 -58 -161q-7 -56 -7 -156v-472h-113v555q0 144 -24 213q-16 46 -58 77 q-43 32 -100 32q-97 0 -160 -88q-44 -62 -58 -161q-7 -55 -7 -156v-472h-112z" />
<glyph unicode="n" horiz-adv-x="951" vert-adv-y="1433" d="M137 0v942h106v-159q99 188 287 188q111 0 188 -65q72 -61 92 -173q10 -53 10 -140v-593h-112v555q0 144 -26 213q-18 47 -63 77q-47 32 -111 32q-110 0 -183 -87q-52 -62 -67 -162q-9 -55 -9 -156v-472h-112z" />
<glyph unicode="o" horiz-adv-x="950" vert-adv-y="1433" d="M80 478q0 204 94 338q108 155 301 155q195 0 301 -155q94 -137 94 -345q0 -215 -99 -354q-105 -146 -295 -146q-192 0 -297 146q-99 139 -99 361zM192 477q0 -190 78 -303q74 -109 205 -109t205 109q78 113 78 298t-80 297q-77 108 -203 108q-127 0 -203 -108 q-80 -114 -80 -292z" />
<glyph unicode="p" horiz-adv-x="988" vert-adv-y="1433" d="M137 -355v1297h104v-166q23 62 69 109q84 86 222 86q168 0 269 -129q107 -138 107 -373q0 -228 -100 -362q-102 -136 -272 -136q-143 0 -232 99q-36 40 -55 86v-511h-112zM245 474q0 -194 79 -306q73 -103 198 -103q133 0 206 120q67 111 67 285q0 187 -77 300 q-74 107 -196 107q-125 0 -198 -105q-79 -113 -79 -298z" />
<glyph unicode="q" horiz-adv-x="988" vert-adv-y="1433" d="M79 469q0 236 107 373q102 129 270 129q207 0 291 -195v166h104v-1297h-113v511q-21 -52 -64 -96q-87 -89 -222 -89q-171 0 -273 136q-100 134 -100 362zM191 475q0 -179 68 -290q72 -120 207 -120q124 0 197 103q80 113 80 301q0 191 -79 303q-75 105 -199 105 t-196 -107q-78 -115 -78 -295z" />
<glyph unicode="r" horiz-adv-x="557" vert-adv-y="1433" d="M137 0v942h106v-204q57 153 166 205q58 28 146 28v-118q-22 1 -31 1q-128 0 -205 -109q-50 -72 -64 -188q-6 -57 -6 -171v-386h-112z" />
<glyph unicode="s" horiz-adv-x="785" vert-adv-y="1433" d="M68 265h112q11 -78 52 -128q62 -72 170 -72q91 0 144 48q58 52 58 134q0 91 -78 140q-37 24 -186 64q-100 27 -157 67q-98 70 -98 193q0 104 73 177q81 83 219 83q175 0 262 -124q36 -52 47 -134h-112q-30 166 -193 166q-87 0 -138 -48q-49 -47 -49 -117q0 -75 59 -117 q42 -29 154 -60q163 -46 212 -84q98 -77 98 -204q0 -118 -82 -195q-87 -83 -234 -83q-172 0 -261 109q-58 70 -72 185z" />
<glyph unicode="t" horiz-adv-x="475" vert-adv-y="1433" d="M6 848v94h141v177l92 123h20v-300h169v-94h-169v-604q0 -93 10 -121q18 -50 86 -50q29 0 73 12v-93q-52 -17 -97 -17q-121 0 -161 79q-23 44 -23 201v593h-141z" />
<glyph unicode="u" horiz-adv-x="951" vert-adv-y="1433" d="M131 349v593h112v-555q0 -144 26 -213q18 -47 63 -77q47 -32 111 -32q111 0 183 87q52 62 67 162q9 55 9 156v472h112v-942h-106v159q-98 -188 -287 -188q-111 0 -188 65q-71 61 -92 173q-10 54 -10 140z" />
<glyph unicode="v" horiz-adv-x="764" vert-adv-y="1433" d="M12 942h120l260 -791l246 791h114l-303 -942h-119z" />
<glyph unicode="w" horiz-adv-x="1212" vert-adv-y="1433" d="M20 942h121l210 -782l195 782h123l198 -780l209 780h115l-266 -942h-121l-198 770l-195 -770h-123z" />
<glyph unicode="x" horiz-adv-x="790" vert-adv-y="1433" d="M8 0l318 495l-294 447h136l223 -350l230 350h128l-292 -439l324 -503h-135l-256 404l-254 -404h-128z" />
<glyph unicode="y" horiz-adv-x="773" vert-adv-y="1433" d="M12 942h121l266 -782l247 782h114l-360 -1087q-35 -105 -80 -153q-54 -57 -144 -57q-39 0 -81 15v96q9 -2 14 -4q32 -9 57 -9q52 0 79 27q32 32 57 111l41 126z" />
<glyph unicode="z" horiz-adv-x="774" vert-adv-y="1433" d="M49 0v92l539 756h-501v94h639v-80l-545 -768h566v-94h-698z" />
<glyph unicode="{" horiz-adv-x="506" vert-adv-y="1433" d="M21 464v84q56 16 86 53q32 39 32 131v364q0 140 55 203q57 66 183 66h28v-94h-21q-75 0 -109 -43q-33 -40 -33 -139v-362q0 -97 -29 -151q-23 -42 -85 -73q69 -35 94 -96q20 -48 20 -133v-373q0 -69 13 -96q32 -66 132 -66h18v-94h-29q-131 0 -185 64q-52 62 -52 204v361 q0 100 -35 141q-27 33 -83 49z" />
<glyph unicode="|" vert-adv-y="1433" d="M452 -341v1706h121v-1706h-121z" />
<glyph unicode="}" horiz-adv-x="506" vert-adv-y="1433" d="M101 -261h18q77 0 111 34q35 36 35 128v373q0 92 24 142q26 54 90 87q-67 34 -90 84q-24 52 -24 140v362q0 104 -37 144q-35 38 -106 38h-21v94h28q127 0 184 -66q55 -63 55 -203v-364q0 -92 32 -131q30 -37 85 -53v-84q-55 -16 -82 -49q-35 -41 -35 -141v-361 q0 -143 -52 -204q-54 -64 -186 -64h-29v94z" />
<glyph unicode="~" horiz-adv-x="1365" vert-adv-y="1433" d="M194 1256q39 76 80 123q79 93 188 93q81 0 239 -82q92 -48 125 -59q43 -15 80 -15q70 0 124 57q36 38 73 104l69 -53q-41 -80 -81 -127q-80 -91 -188 -91q-54 0 -129 32q-39 17 -113 55q-81 42 -113 53q-49 17 -90 17q-73 0 -128 -62q-32 -36 -67 -98z" />
<glyph unicode="&#xa0;" horiz-adv-x="396" vert-adv-y="1433" />
<glyph unicode="&#xa1;" horiz-adv-x="459" vert-adv-y="1433" d="M160 737v205h139v-205h-139zM168 79l28 520h67l27 -520v-434h-122v434z" />
<glyph unicode="&#xa2;" horiz-adv-x="872" vert-adv-y="1433" d="M80 691q0 163 57 283q86 180 274 211v139h100v-137q104 -14 174 -72q93 -78 121 -218h-115q-38 163 -180 194v-803q159 34 190 233h114q-13 -143 -106 -236q-79 -79 -198 -93v-151h-100v153q-110 16 -186 87q-145 134 -145 410zM192 691q0 -255 129 -357q39 -31 90 -44 v798q-65 -17 -111 -63q-108 -109 -108 -334z" />
<glyph unicode="&#xa3;" horiz-adv-x="833" vert-adv-y="1433" d="M41 63q202 184 202 411q0 37 -8 81h-180v100h148q-15 29 -71 125q-76 132 -76 259q0 163 113 264q98 89 250 89q235 0 324 -182q41 -85 43 -197h-116q-3 97 -39 166q-61 116 -211 116q-115 0 -177 -68q-66 -74 -66 -180q0 -67 27 -129q20 -46 51 -102q64 -114 82 -161 h296v-100h-271q4 -34 4 -58q0 -190 -160 -355q73 52 129 52q38 0 75 -20q18 -10 74 -50q55 -40 99 -40q95 0 107 151h107q-7 -117 -54 -183q-58 -81 -163 -81q-52 0 -89 18q-26 12 -70 43q-71 48 -123 48q-64 0 -150 -56q-21 -13 -55 -38z" />
<glyph unicode="&#xa4;" horiz-adv-x="1365" vert-adv-y="1433" d="M130 1206l66 66l188 -188q141 110 299 110q159 0 296 -110l190 188l65 -66l-189 -187q107 -140 107 -295q0 -154 -106 -292l190 -189l-65 -66l-190 189q-137 -107 -295 -107q-152 0 -297 107l-189 -189l-64 66l185 189q-107 134 -107 294q0 151 107 291zM320 725 q0 -150 106 -257q107 -107 257 -107t257 107q106 107 106 257q0 155 -105 259q-109 108 -253 108q-155 0 -263 -108q-105 -107 -105 -259z" />
<glyph unicode="&#xa5;" horiz-adv-x="1017" vert-adv-y="1433" d="M47 1365h137l328 -600l328 600h131l-399 -711h266v-104h-269v-142h269v-104h-269v-304h-119v304h-270v104h270v142h-270v104h267z" />
<glyph unicode="&#xa6;" vert-adv-y="1433" d="M452 314h121v-655h-121v655zM452 690v675h121v-675h-121z" />
<glyph unicode="&#xa7;" horiz-adv-x="965" vert-adv-y="1433" d="M96 624q0 146 94 236q40 39 86 56q-83 92 -83 201q0 138 100 219q75 60 185 60q179 0 256 -133q42 -73 43 -184h-107q-2 44 -12 81q-18 67 -69 104q-47 33 -113 33q-69 0 -116 -39q-58 -48 -58 -136q0 -71 39 -122q31 -40 137 -114q219 -152 283 -212q108 -103 108 -241 q0 -140 -94 -234q-36 -35 -88 -60q38 -38 57 -68q42 -65 42 -152q0 -127 -90 -213q-78 -75 -209 -75q-135 0 -218 82q-86 86 -95 258h109q12 -239 207 -239q90 0 140 59q45 52 45 123q0 63 -38 119q-32 49 -161 142q-31 23 -168 118q-107 76 -160 150q-52 74 -52 181z M203 633q0 -84 61 -152q38 -44 210 -167q100 -72 149 -115q46 22 80 60q57 64 57 156q0 102 -90 187q-66 62 -263 199q-46 32 -71 55q-133 -81 -133 -223z" />
<glyph unicode="&#xa8;" vert-adv-y="1433" d="M307 1106v191h115v-191h-115zM601 1106v191h115v-191h-115z" />
<glyph unicode="&#xa9;" horiz-adv-x="1434" vert-adv-y="1433" d="M68 679q0 208 101 385q93 166 253 255q141 78 305 78q184 0 343 -115q147 -105 226 -278q69 -153 69 -324q0 -290 -186 -499q-190 -214 -464 -214q-269 0 -457 209q-86 95 -136 221q-54 138 -54 282zM156 680q0 -176 85 -332q85 -154 228 -233q115 -63 246 -63 q237 0 401 188q161 185 161 441q0 263 -164 448q-71 80 -160 126q-111 58 -227 58q-238 0 -402 -180q-76 -84 -120 -198q-48 -123 -48 -255zM380 679q0 198 95 320q94 122 248 122q157 0 243 -122q40 -58 52 -135h-97q-46 172 -200 172q-104 0 -169 -88q-75 -103 -75 -267 q0 -160 70 -260q65 -93 176 -93q98 0 157 82q39 55 49 140h97q-13 -109 -63 -183q-86 -124 -242 -124q-164 0 -261 142q-80 117 -80 294z" />
<glyph unicode="&#xaa;" horiz-adv-x="538" vert-adv-y="1433" d="M40 696q0 92 71 143q53 38 148 48q39 3 120 6v42q0 125 -113 125q-76 0 -106 -58q-10 -22 -16 -75h-82q4 94 49 146q56 63 161 63q128 0 175 -91q20 -40 20 -153v-210q0 -45 2 -54q3 -14 16 -14q11 0 38 9v-74q-29 -12 -57 -12q-71 0 -74 97q-70 -108 -181 -108 q-68 0 -114 40q-57 48 -57 130zM128 698q0 -41 28 -69q27 -27 69 -27q80 0 125 80q29 54 29 119v23q-96 -5 -139 -15q-112 -24 -112 -111z" />
<glyph unicode="&#xab;" horiz-adv-x="700" vert-adv-y="1433" d="M90 449v115l222 249v-133l-152 -174l152 -170v-138zM348 447v115l221 250v-132l-151 -175l151 -172v-134z" />
<glyph unicode="&#xac;" vert-adv-y="1433" d="M68 454v107h887v-561h-118v454h-769z" />
<glyph unicode="&#xad;" horiz-adv-x="403" vert-adv-y="1433" d="M8 454v106h387v-106h-387z" />
<glyph unicode="&#xae;" horiz-adv-x="1434" vert-adv-y="1433" d="M68 679q0 208 101 385q93 166 253 255q141 78 305 78q184 0 343 -115q147 -105 226 -278q69 -153 69 -324q0 -290 -186 -499q-190 -214 -464 -214q-269 0 -457 209q-86 95 -136 221q-54 138 -54 282zM156 680q0 -177 85 -332q85 -154 228 -233q115 -63 246 -63 q237 0 401 188q161 184 161 440q0 264 -164 448q-71 80 -160 126q-111 58 -227 58q-238 0 -402 -180q-76 -84 -120 -197q-48 -123 -48 -255zM447 266v836h281q129 0 195 -56q73 -62 73 -171q0 -143 -128 -206q46 -14 73 -50q33 -43 41 -174q6 -90 12 -118q6 -32 26 -61h-107 q-14 23 -19 42q-8 34 -12 115q-4 96 -21 132q-36 74 -196 74h-122v-363h-96zM543 711h160q101 0 141 31q55 42 55 129q0 82 -53 119q-38 27 -120 27h-183v-306z" />
<glyph unicode="&#xaf;" vert-adv-y="1433" d="M68 1475v105h887v-105h-887z" />
<glyph unicode="&#xb0;" vert-adv-y="1433" d="M230 1094q0 112 82 191q85 80 200 80q116 0 199 -80q83 -81 83 -194q0 -114 -82 -195q-83 -81 -199 -81q-118 0 -201 81q-82 81 -82 198zM317 1093q0 -84 57 -141q57 -58 138 -58t138 58q57 57 57 138q0 83 -57 138q-59 58 -138 58q-81 0 -138 -58q-57 -57 -57 -135z" />
<glyph unicode="&#xb1;" vert-adv-y="1433" d="M68 140v105h887v-105h-887zM68 698v105h387v362h113v-362h387v-105h-387v-361h-113v361h-387z" />
<glyph unicode="&#xb2;" horiz-adv-x="571" vert-adv-y="1433" d="M47 1146q6 72 28 116q60 122 207 122q112 0 177 -75q56 -65 56 -157q0 -111 -81 -193q-36 -37 -156 -122q-124 -87 -128 -208h359v-83h-460q1 69 15 125q21 82 70 141q37 44 102 90q98 68 129 104q57 67 57 150q0 62 -33 101q-39 46 -109 46q-75 0 -115 -59 q-24 -35 -26 -98h-92z" />
<glyph unicode="&#xb3;" horiz-adv-x="579" vert-adv-y="1433" d="M41 773v16h86q1 -179 149 -179q68 0 110 44q44 47 44 124q0 89 -58 133q-42 33 -105 33q-8 0 -43 -3v81h38q56 0 92 28q53 41 53 116q0 64 -39 101q-34 33 -91 33q-135 0 -135 -150h-85q4 99 43 150q60 81 180 81q99 0 160 -59q58 -58 58 -151q0 -126 -106 -182 q129 -53 129 -208q0 -115 -71 -187q-64 -65 -172 -65q-146 0 -206 109q-31 55 -31 135z" />
<glyph unicode="&#xb4;" vert-adv-y="1433" d="M448 1092l163 273h118l-178 -273h-103z" />
<glyph unicode="&#xb5;" horiz-adv-x="951" vert-adv-y="1433" d="M131 -355v1297h112v-555q0 -144 26 -213q18 -47 63 -77q47 -32 111 -32q111 0 183 87q52 62 67 162q9 55 9 156v472h112v-942h-106v159q-98 -188 -283 -188q-103 0 -182 63v-389h-112z" />
<glyph unicode="&#xb6;" horiz-adv-x="998" vert-adv-y="1433" d="M39 997q0 125 58 220q91 148 318 148h440v-90h-115v-1481h-100v1481h-159v-1481h-100v846h-30q-101 0 -176 54q-63 45 -99 124q-37 82 -37 179z" />
<glyph unicode="&#xb7;" horiz-adv-x="397" vert-adv-y="1433" d="M131 403v205h135v-205h-135z" />
<glyph unicode="&#xb8;" vert-adv-y="1433" d="M382 -286h86q9 -41 57 -41q72 0 72 82q0 38 -20 61q-20 21 -52 21q-43 0 -53 -31h-87l75 194h75l-40 -108q20 6 42 6q50 0 91 -27q55 -37 55 -110q0 -64 -39 -105q-43 -44 -118 -44q-83 0 -123 52q-17 22 -21 50z" />
<glyph unicode="&#xb9;" horiz-adv-x="396" vert-adv-y="1433" d="M34 1144v75q130 -1 144 146h74v-819h-92v633q-26 -22 -55 -29q-16 -4 -71 -6z" />
<glyph unicode="&#xba;" horiz-adv-x="570" vert-adv-y="1433" d="M38 835q0 124 58 206q68 95 190 95q120 0 188 -95q59 -82 59 -209q0 -132 -62 -216q-65 -90 -185 -90q-121 0 -186 90q-62 84 -62 219zM126 834q0 -108 44 -172q42 -60 116 -60q73 0 115 60q44 64 44 169q0 106 -46 169q-43 60 -114 60t-113 -60q-46 -64 -46 -166z" />
<glyph unicode="&#xbb;" horiz-adv-x="700" vert-adv-y="1433" d="M131 199v131l151 175l-151 173v133l221 -247v-115zM387 198v132l152 174l-152 171v138l223 -252v-114z" />
<glyph unicode="&#xbc;" horiz-adv-x="1165" vert-adv-y="1433" d="M34 1144v75q131 -1 145 146h74v-819h-92v633q-26 -22 -56 -29q-15 -4 -71 -6zM194 0l588 1365h94l-585 -1365h-97zM645 217v75l317 527h72v-529h97v-73h-97v-217h-80v217h-309zM723 290h231v371z" />
<glyph unicode="&#xbd;" horiz-adv-x="1301" vert-adv-y="1433" d="M34 1144v75q131 -1 145 146h74v-819h-92v633q-26 -22 -56 -29q-15 -4 -71 -6zM189 0l588 1365h94l-585 -1365h-97zM777 599q6 72 28 116q60 122 207 122q113 0 177 -75q56 -65 56 -157q0 -111 -81 -193q-36 -37 -156 -121q-123 -88 -128 -208h359v-83h-459q0 101 32 179 q31 76 109 141q22 18 116 84q52 36 86 93q29 50 29 111q0 62 -32 101q-39 46 -109 46q-76 0 -116 -59q-24 -35 -26 -97h-92z" />
<glyph unicode="&#xbe;" horiz-adv-x="1370" vert-adv-y="1433" d="M41 773v16h86q1 -179 149 -179q68 0 110 44q44 47 44 124q0 89 -58 133q-42 33 -105 33q-8 0 -43 -3v81h38q56 0 92 28q53 41 53 116q0 64 -39 101q-34 33 -91 33q-135 0 -135 -150h-85q4 99 43 150q60 81 180 81q99 0 160 -59q58 -58 58 -151q0 -126 -106 -182 q129 -53 129 -208q0 -115 -71 -187q-64 -65 -172 -65q-146 0 -206 109q-31 55 -31 135zM399 0l588 1365h94l-585 -1365h-97zM850 217v75l317 527h72v-529h97v-73h-97v-217h-80v217h-309zM928 290h231v371z" />
<glyph unicode="&#xbf;" horiz-adv-x="874" vert-adv-y="1433" d="M97 -41q0 120 65 213q26 38 126 144q52 56 69 89q27 57 29 197h112q-1 -137 -23 -198q-18 -52 -75 -117q-11 -14 -87 -96q-99 -108 -99 -224q0 -92 53 -156q61 -73 170 -73q113 0 181 83q62 77 69 235h104q-3 -159 -55 -253t-151 -140q-67 -32 -150 -32q-158 0 -252 99 q-86 90 -86 229zM374 737v205h139v-205h-139z" />
<glyph unicode="&#xc0;" horiz-adv-x="1087" vert-adv-y="1433" d="M20 0l459 1365h133l454 -1365h-133l-136 430h-511l-138 -430h-128zM315 1737h126l181 -258h-105zM320 535h444l-220 695z" />
<glyph unicode="&#xc1;" horiz-adv-x="1087" vert-adv-y="1433" d="M20 0l459 1365h133l454 -1365h-133l-136 430h-511l-138 -430h-128zM320 535h444l-220 695zM464 1479l180 258h127l-202 -258h-105z" />
<glyph unicode="&#xc2;" horiz-adv-x="1087" vert-adv-y="1433" d="M20 0l459 1365h133l454 -1365h-133l-136 430h-511l-138 -430h-128zM285 1475l200 259h113l202 -259h-113l-148 189l-151 -189h-103zM320 535h444l-220 695z" />
<glyph unicode="&#xc3;" horiz-adv-x="1087" vert-adv-y="1433" d="M20 0l459 1365h133l454 -1365h-133l-136 430h-511l-138 -430h-128zM271 1509q9 60 30 101q46 92 129 92q59 0 127 -50q64 -47 92 -47q62 0 83 98h82q-11 -70 -35 -113q-47 -80 -124 -80q-53 0 -130 55q-58 42 -92 42q-63 0 -82 -98h-80zM320 535h444l-220 695z" />
<glyph unicode="&#xc4;" horiz-adv-x="1087" vert-adv-y="1433" d="M20 0l459 1365h133l454 -1365h-133l-136 430h-511l-138 -430h-128zM320 535h444l-220 695zM325 1488v191h119v-191h-119zM643 1488v191h119v-191h-119z" />
<glyph unicode="&#xc5;" horiz-adv-x="1087" vert-adv-y="1433" d="M20 0l459 1365h133l454 -1365h-133l-136 430h-511l-138 -430h-128zM320 535h444l-220 695zM355 1619q0 80 56 134q55 53 133 53q74 0 129 -54q54 -55 54 -133q0 -75 -53 -129q-55 -56 -133 -56t-132 54q-54 55 -54 131zM438 1618q0 -45 31 -77q30 -32 74 -32t75 33 q30 31 30 76q0 46 -31 77q-31 32 -72 32q-45 0 -76 -31q-31 -32 -31 -78z" />
<glyph unicode="&#xc6;" horiz-adv-x="1494" vert-adv-y="1433" d="M-14 0l594 1365h832v-106h-583v-499h540v-106h-540v-548h590v-106h-712v430h-407l-182 -430h-132zM344 535h363v724h-57z" />
<glyph unicode="&#xc7;" horiz-adv-x="1182" vert-adv-y="1433" d="M86 677q0 324 151 523q150 197 395 197q142 0 257 -73q173 -111 206 -327h-124q-34 119 -88 180q-101 113 -255 113q-180 0 -291 -153q-127 -177 -127 -456q0 -273 118 -445q52 -76 130 -119q79 -44 173 -44q167 0 271 145q66 93 83 233h124q-19 -165 -99 -284 q-69 -102 -175 -154q-93 -46 -203 -46q-7 0 -27 1l-32 -76q21 8 43 8q58 0 97 -27q58 -40 58 -112q0 -65 -41 -107q-44 -44 -122 -44q-88 0 -130 53q-19 23 -23 51h92q9 -41 57 -41q72 0 72 82q0 38 -20 60t-52 22q-40 0 -54 -31h-87l66 171q-130 28 -226 115 q-217 200 -217 585z" />
<glyph unicode="&#xc8;" horiz-adv-x="1017" vert-adv-y="1433" d="M147 0v1365h787v-106h-665v-499h622v-106h-622v-548h672v-106h-794zM281 1737h126l181 -258h-105z" />
<glyph unicode="&#xc9;" horiz-adv-x="1017" vert-adv-y="1433" d="M147 0v1365h787v-106h-665v-499h622v-106h-622v-548h672v-106h-794zM430 1479l180 258h127l-202 -258h-105z" />
<glyph unicode="&#xca;" horiz-adv-x="1017" vert-adv-y="1433" d="M147 0v1365h787v-106h-665v-499h622v-106h-622v-548h672v-106h-794zM251 1475l200 259h113l202 -259h-113l-148 189l-151 -189h-103z" />
<glyph unicode="&#xcb;" horiz-adv-x="1017" vert-adv-y="1433" d="M147 0v1365h787v-106h-665v-499h622v-106h-622v-548h672v-106h-794zM290 1488v191h119v-191h-119zM608 1488v191h119v-191h-119z" />
<glyph unicode="&#xcc;" horiz-adv-x="420" vert-adv-y="1433" d="M-18 1737h126l181 -258h-105zM149 0v1365h122v-1365h-122z" />
<glyph unicode="&#xcd;" horiz-adv-x="420" vert-adv-y="1433" d="M131 1479l180 258h127l-202 -258h-105zM149 0v1365h122v-1365h-122z" />
<glyph unicode="&#xce;" horiz-adv-x="420" vert-adv-y="1433" d="M-48 1475l200 259h113l202 -259h-113l-148 189l-151 -189h-103zM148 0v1365h122v-1365h-122z" />
<glyph unicode="&#xcf;" horiz-adv-x="420" vert-adv-y="1433" d="M29 1488v191h119v-191h-119zM149 0v1365h122v-1365h-122zM272 1488v191h119v-191h-119z" />
<glyph unicode="&#xd0;" horiz-adv-x="1171" vert-adv-y="1433" d="M0 654v106h147v605h344q166 0 272 -47q154 -68 240 -230q82 -154 82 -392q0 -364 -183 -548q-146 -148 -403 -148h-352v654h-147zM269 106h231q247 0 353 151q108 155 108 437q0 327 -158 467q-109 98 -293 98h-241v-499h323v-106h-323v-548z" />
<glyph unicode="&#xd1;" horiz-adv-x="1205" vert-adv-y="1433" d="M147 0v1365h131l663 -1169v1169h116v-1365h-132l-662 1163v-1163h-116zM330 1509q9 60 30 101q46 92 129 92q59 0 127 -50q64 -47 92 -47q62 0 83 98h82q-11 -70 -35 -113q-47 -80 -124 -80q-53 0 -130 55q-58 42 -92 42q-63 0 -82 -98h-80z" />
<glyph unicode="&#xd2;" horiz-adv-x="1260" vert-adv-y="1433" d="M86 693q0 312 150 504q155 199 394 199q243 0 393 -199q151 -201 151 -518q0 -281 -122 -474q-74 -118 -188 -180q-106 -58 -234 -58q-272 0 -422 238q-122 193 -122 488zM210 696q0 -262 100 -431q57 -97 154 -150q76 -42 167 -42q124 0 224 80q106 86 158 255 q37 121 37 272q0 269 -115 438q-116 172 -305 172q-186 0 -303 -167q-117 -166 -117 -427zM402 1737h126l181 -258h-105z" />
<glyph unicode="&#xd3;" horiz-adv-x="1260" vert-adv-y="1433" d="M86 693q0 312 150 504q155 199 394 199q243 0 393 -199q151 -201 151 -518q0 -281 -122 -474q-74 -118 -188 -180q-106 -58 -234 -58q-272 0 -422 238q-122 193 -122 488zM210 696q0 -262 100 -431q57 -97 154 -150q76 -42 167 -42q124 0 224 80q106 86 158 255 q37 121 37 272q0 269 -115 438q-116 172 -305 172q-186 0 -303 -167q-117 -166 -117 -427zM551 1479l180 258h127l-202 -258h-105z" />
<glyph unicode="&#xd4;" horiz-adv-x="1260" vert-adv-y="1433" d="M86 693q0 312 150 504q155 199 394 199q243 0 393 -199q151 -201 151 -518q0 -281 -122 -474q-74 -118 -188 -180q-106 -58 -234 -58q-272 0 -422 238q-122 193 -122 488zM210 696q0 -262 100 -431q57 -97 154 -150q76 -42 167 -42q124 0 224 80q106 86 158 255 q37 121 37 272q0 269 -115 438q-116 172 -305 172q-186 0 -303 -167q-117 -166 -117 -427zM372 1475l200 259h113l202 -259h-113l-148 189l-151 -189h-103z" />
<glyph unicode="&#xd5;" horiz-adv-x="1260" vert-adv-y="1433" d="M86 693q0 312 150 504q155 199 394 199q243 0 393 -199q151 -201 151 -518q0 -281 -122 -474q-74 -118 -188 -180q-106 -58 -234 -58q-272 0 -422 238q-122 193 -122 488zM210 696q0 -262 100 -431q57 -97 154 -150q76 -42 167 -42q124 0 224 80q106 86 158 255 q37 121 37 272q0 269 -115 438q-116 172 -305 172q-186 0 -303 -167q-117 -166 -117 -427zM358 1509q9 60 30 101q46 92 129 92q59 0 127 -50q64 -47 92 -47q62 0 83 98h82q-11 -70 -35 -113q-47 -80 -124 -80q-53 0 -130 55q-58 42 -92 42q-63 0 -82 -98h-80z" />
<glyph unicode="&#xd6;" horiz-adv-x="1260" vert-adv-y="1433" d="M86 693q0 312 150 504q155 199 394 199q243 0 393 -199q151 -201 151 -518q0 -281 -122 -474q-74 -118 -188 -180q-106 -58 -234 -58q-272 0 -422 238q-122 193 -122 488zM210 696q0 -262 100 -431q57 -97 154 -150q76 -42 167 -42q124 0 224 80q106 86 158 255 q37 121 37 272q0 269 -115 438q-116 172 -305 172q-186 0 -303 -167q-117 -166 -117 -427zM411 1488v191h119v-191h-119zM729 1488v191h119v-191h-119z" />
<glyph unicode="&#xd7;" vert-adv-y="1433" d="M161 413l277 276l-277 277l74 74l277 -276l277 276l74 -74l-277 -277l277 -276l-74 -74l-277 276l-277 -276z" />
<glyph unicode="&#xd8;" horiz-adv-x="1260" vert-adv-y="1433" d="M86 682q0 320 150 516q152 199 393 199q173 0 310 -112l68 112h107l-107 -180q167 -209 167 -537q0 -282 -122 -475q-74 -117 -188 -180q-106 -58 -234 -58q-177 0 -309 108l-65 -108h-110l106 177q-166 204 -166 538zM210 687q0 -268 115 -444l546 951q-106 96 -242 96 q-185 0 -302 -167t-117 -436zM390 168q109 -94 241 -94q124 0 224 80q107 86 158 254q37 121 37 273q0 262 -116 438z" />
<glyph unicode="&#xd9;" horiz-adv-x="1162" vert-adv-y="1433" d="M131 555v810h122v-814q0 -148 18 -223q31 -131 114 -192q85 -63 202 -63q110 0 190 58q84 60 113 191q19 82 19 230v813h122v-814q0 -196 -33 -291q-51 -148 -157 -219q-109 -74 -256 -74q-149 0 -261 74q-120 80 -166 244q-27 95 -27 270zM353 1737h126l181 -258h-105z " />
<glyph unicode="&#xda;" horiz-adv-x="1162" vert-adv-y="1433" d="M131 555v810h122v-814q0 -148 18 -223q31 -131 114 -192q85 -63 202 -63q110 0 190 58q84 60 113 191q19 82 19 230v813h122v-814q0 -196 -33 -291q-51 -148 -157 -219q-109 -74 -256 -74q-149 0 -261 74q-120 80 -166 244q-27 95 -27 270zM502 1479l180 258h127 l-202 -258h-105z" />
<glyph unicode="&#xdb;" horiz-adv-x="1162" vert-adv-y="1433" d="M131 555v810h122v-814q0 -148 18 -223q31 -131 114 -192q85 -63 202 -63q110 0 190 58q84 60 113 191q19 82 19 230v813h122v-814q0 -196 -33 -291q-51 -148 -157 -219q-109 -74 -256 -74q-149 0 -261 74q-120 80 -166 244q-27 95 -27 270zM324 1475l200 259h113 l202 -259h-113l-148 189l-151 -189h-103z" />
<glyph unicode="&#xdc;" horiz-adv-x="1162" vert-adv-y="1433" d="M131 555v810h122v-814q0 -148 18 -223q31 -131 114 -192q85 -63 202 -63q110 0 190 58q84 60 113 191q19 82 19 230v813h122v-814q0 -196 -33 -291q-51 -148 -157 -219q-109 -74 -256 -74q-149 0 -261 74q-120 80 -166 244q-27 95 -27 270zM363 1488v191h119v-191h-119z M681 1488v191h119v-191h-119z" />
<glyph unicode="&#xdd;" horiz-adv-x="1017" vert-adv-y="1433" d="M-2 1365h141l373 -682l372 682h135l-449 -800v-565h-122v565zM429 1479l180 258h127l-202 -258h-105z" />
<glyph unicode="&#xde;" horiz-adv-x="1012" vert-adv-y="1433" d="M147 0v1365h122v-273h185q147 0 227 -26q114 -37 181 -133q63 -92 63 -228q0 -216 -161 -322q-113 -74 -324 -74h-171v-309h-122zM269 415h181q179 0 257 64q93 75 93 223q0 164 -116 238q-50 32 -123 42q-35 4 -117 4h-175v-571z" />
<glyph unicode="&#xdf;" horiz-adv-x="902" vert-adv-y="1433" d="M8 848v94h126q2 149 19 216q34 132 130 193q71 45 163 45q125 0 207 -77q82 -76 82 -186q0 -65 -35 -135q-11 -23 -69 -103q-49 -68 -49 -118q0 -37 24 -84q15 -28 67 -84q69 -75 100 -127q51 -87 51 -187q0 -161 -125 -251q-89 -64 -220 -64q-64 0 -120 20v101 q60 -27 122 -27q98 0 159 54q70 62 70 165q0 72 -37 141q-19 36 -86 118q-58 71 -80 114q-26 50 -26 99q0 68 72 179q65 100 65 174q0 75 -44 127q-49 57 -136 57q-112 0 -162 -106q-30 -63 -30 -252v-944h-112v848h-126z" />
<glyph unicode="&#xe0;" horiz-adv-x="897" vert-adv-y="1433" d="M83 242q0 148 113 229q85 62 241 78q66 6 211 10v89q0 229 -206 229q-199 0 -218 -225h-104q6 148 87 230q88 89 246 89q173 0 255 -111q40 -54 49 -145q4 -35 4 -140v-356q0 -85 7 -106q8 -27 43 -27q17 0 43 10v-89q-40 -17 -79 -17q-72 0 -97 61q-14 33 -14 100v34 q-120 -214 -314 -214q-105 0 -178 64q-89 77 -89 207zM196 245q0 -75 52 -129q50 -51 126 -51q89 0 158 63q68 62 96 161q20 72 20 131v57q-168 -8 -252 -26q-95 -21 -142 -68q-58 -58 -58 -138zM232 1365h118l163 -273h-103z" />
<glyph unicode="&#xe1;" horiz-adv-x="897" vert-adv-y="1433" d="M83 242q0 148 113 229q85 62 241 78q66 6 211 10v89q0 229 -206 229q-199 0 -218 -225h-104q6 148 87 230q88 89 246 89q173 0 255 -111q40 -54 49 -145q4 -35 4 -140v-356q0 -85 7 -106q8 -27 43 -27q17 0 43 10v-89q-40 -17 -79 -17q-72 0 -97 61q-14 33 -14 100v34 q-120 -214 -314 -214q-105 0 -178 64q-89 77 -89 207zM196 245q0 -75 52 -129q50 -51 126 -51q89 0 158 63q68 62 96 161q20 72 20 131v57q-168 -8 -252 -26q-95 -21 -142 -68q-58 -58 -58 -138zM385 1092l163 273h118l-178 -273h-103z" />
<glyph unicode="&#xe2;" horiz-adv-x="897" vert-adv-y="1433" d="M83 242q0 148 113 229q85 62 241 78q66 6 211 10v89q0 229 -206 229q-199 0 -218 -225h-104q6 148 87 230q88 89 246 89q173 0 255 -111q40 -54 49 -145q4 -35 4 -140v-356q0 -85 7 -106q8 -27 43 -27q17 0 43 10v-89q-40 -17 -79 -17q-72 0 -97 61q-14 33 -14 100v34 q-120 -214 -314 -214q-105 0 -178 64q-89 77 -89 207zM196 245q0 -75 52 -129q50 -51 126 -51q89 0 158 63q68 62 96 161q20 72 20 131v57q-168 -8 -252 -26q-95 -21 -142 -68q-58 -58 -58 -138zM221 1092l172 273h110l174 -273h-108l-124 197l-126 -197h-98z" />
<glyph unicode="&#xe3;" horiz-adv-x="897" vert-adv-y="1433" d="M83 242q0 148 113 229q85 62 241 78q66 6 211 10v89q0 229 -206 229q-199 0 -218 -225h-104q6 148 87 230q88 89 246 89q173 0 255 -111q40 -54 49 -145q4 -35 4 -140v-356q0 -85 7 -106q8 -27 43 -27q17 0 43 10v-89q-40 -17 -79 -17q-72 0 -97 61q-14 33 -14 100v34 q-120 -214 -314 -214q-105 0 -178 64q-89 77 -89 207zM188 1113q7 65 28 111q46 101 130 101q58 0 124 -68q54 -55 85 -55q59 0 79 116h76q-11 -76 -35 -124q-44 -88 -118 -88q-54 0 -128 73q-55 55 -89 55q-62 0 -79 -121h-73zM196 245q0 -75 52 -129q50 -51 126 -51 q89 0 158 63q68 62 96 161q20 72 20 131v57q-168 -8 -252 -26q-95 -21 -142 -68q-58 -58 -58 -138z" />
<glyph unicode="&#xe4;" horiz-adv-x="897" vert-adv-y="1433" d="M83 242q0 148 113 229q85 62 241 78q66 6 211 10v89q0 229 -206 229q-199 0 -218 -225h-104q6 148 87 230q88 89 246 89q173 0 255 -111q40 -54 49 -145q4 -35 4 -140v-356q0 -85 7 -106q8 -27 43 -27q17 0 43 10v-89q-40 -17 -79 -17q-72 0 -97 61q-14 33 -14 100v34 q-120 -214 -314 -214q-105 0 -178 64q-89 77 -89 207zM196 245q0 -75 52 -129q50 -51 126 -51q89 0 158 63q68 62 96 161q20 72 20 131v57q-168 -8 -252 -26q-95 -21 -142 -68q-58 -58 -58 -138zM244 1106v191h115v-191h-115zM538 1106v191h115v-191h-115z" />
<glyph unicode="&#xe5;" horiz-adv-x="897" vert-adv-y="1433" d="M83 242q0 148 113 229q85 62 241 78q66 6 211 10v89q0 229 -206 229q-199 0 -218 -225h-104q6 148 87 230q88 89 246 89q173 0 255 -111q40 -54 49 -145q4 -35 4 -140v-356q0 -85 7 -106q8 -27 43 -27q17 0 43 10v-89q-40 -17 -79 -17q-72 0 -97 61q-14 33 -14 100v34 q-120 -214 -314 -214q-105 0 -178 64q-89 77 -89 207zM196 245q0 -75 52 -129q50 -51 126 -51q89 0 158 63q68 62 96 161q20 72 20 131v57q-168 -8 -252 -26q-95 -21 -142 -68q-58 -58 -58 -138zM264 1249q0 79 55 132t132 53q74 0 128 -54t54 -131q0 -75 -53 -129 q-54 -55 -132 -55q-77 0 -130 54q-54 54 -54 130zM347 1248q0 -44 30 -76q29 -32 72 -32t73 33q29 31 29 76t-30 77t-70 32q-44 0 -74 -31q-30 -32 -30 -79z" />
<glyph unicode="&#xe6;" horiz-adv-x="1459" vert-adv-y="1433" d="M83 240q0 143 112 220q84 58 242 69q71 5 211 6v86q0 123 -51 185q-59 71 -169 71q-123 0 -170 -88q-27 -50 -34 -137h-104q6 147 81 231q79 88 235 88q207 0 283 -173q116 173 292 173q130 0 227 -91q139 -133 140 -435h-636q3 -139 45 -226q73 -154 232 -154 q171 0 237 211h109q-21 -98 -73 -170q-99 -135 -272 -135q-239 0 -337 260q-26 -63 -63 -112q-111 -148 -270 -148q-105 0 -178 64q-89 77 -89 205zM196 242q0 -72 52 -126q50 -51 126 -51q89 0 158 63q68 62 96 161q20 72 20 131v25q-193 -4 -252 -15q-96 -18 -143 -61 q-57 -53 -57 -127zM742 535h523q-6 120 -46 201q-37 74 -102 114q-47 30 -107 30q-94 0 -164 -72q-87 -88 -104 -273z" />
<glyph unicode="&#xe7;" horiz-adv-x="879" vert-adv-y="1433" d="M80 472q0 208 91 345q102 154 294 154q158 0 254 -114q59 -70 80 -178h-115q-17 75 -50 117q-64 81 -170 81q-124 0 -196 -107q-76 -115 -76 -297q0 -186 74 -298q71 -109 198 -109q120 0 187 108q32 52 43 128h114q-13 -143 -105 -236q-91 -92 -238 -94l-28 -80 q20 6 41 6q49 0 89 -27q54 -37 54 -110q0 -65 -39 -105q-41 -44 -115 -44q-82 0 -121 52q-16 22 -20 50h85q7 -41 55 -41q71 0 71 82q0 38 -20 60q-18 22 -51 22q-41 0 -52 -31h-85l65 172q-98 17 -170 85q-144 133 -144 409z" />
<glyph unicode="&#xe8;" horiz-adv-x="908" vert-adv-y="1433" d="M80 472q0 223 109 362q108 137 271 137q132 0 228 -92q140 -132 141 -434h-637q3 -137 45 -226q73 -154 232 -154q172 0 238 211h108q-21 -98 -73 -170q-99 -135 -274 -135q-190 0 -294 151q-94 137 -94 350zM192 535h523q-5 120 -46 201q-37 74 -101 114q-48 30 -108 30 q-93 0 -164 -72q-86 -88 -104 -273zM237 1365h118l163 -273h-103z" />
<glyph unicode="&#xe9;" horiz-adv-x="908" vert-adv-y="1433" d="M80 472q0 223 109 362q108 137 271 137q132 0 228 -92q140 -132 141 -434h-637q3 -137 45 -226q73 -154 232 -154q172 0 238 211h108q-21 -98 -73 -170q-99 -135 -274 -135q-190 0 -294 151q-94 137 -94 350zM192 535h523q-5 120 -46 201q-37 74 -101 114q-48 30 -108 30 q-93 0 -164 -72q-86 -88 -104 -273zM390 1092l163 273h118l-178 -273h-103z" />
<glyph unicode="&#xea;" horiz-adv-x="908" vert-adv-y="1433" d="M80 472q0 223 109 362q108 137 271 137q132 0 228 -92q140 -132 141 -434h-637q3 -137 45 -226q73 -154 232 -154q172 0 238 211h108q-21 -98 -73 -170q-99 -135 -274 -135q-190 0 -294 151q-94 137 -94 350zM192 535h523q-5 120 -46 201q-37 74 -101 114q-48 30 -108 30 q-93 0 -164 -72q-86 -88 -104 -273zM226 1092l172 273h110l174 -273h-108l-124 197l-126 -197h-98z" />
<glyph unicode="&#xeb;" horiz-adv-x="908" vert-adv-y="1433" d="M80 472q0 223 109 362q108 137 271 137q132 0 228 -92q140 -132 141 -434h-637q3 -137 45 -226q73 -154 232 -154q172 0 238 211h108q-21 -98 -73 -170q-99 -135 -274 -135q-190 0 -294 151q-94 137 -94 350zM192 535h523q-5 120 -46 201q-37 74 -101 114q-48 30 -108 30 q-93 0 -164 -72q-86 -88 -104 -273zM250 1106v191h115v-191h-115zM544 1106v191h115v-191h-115z" />
<glyph unicode="&#xec;" horiz-adv-x="397" vert-adv-y="1433" d="M-18 1365h118l163 -273h-103zM143 0v942h112v-942h-112z" />
<glyph unicode="&#xed;" horiz-adv-x="397" vert-adv-y="1433" d="M134 1092l163 273h118l-178 -273h-103zM142 0v942h112v-942h-112z" />
<glyph unicode="&#xee;" horiz-adv-x="397" vert-adv-y="1433" d="M-30 1092l172 273h110l174 -273h-108l-124 197l-126 -197h-98zM142 0v942h112v-942h-112z" />
<glyph unicode="&#xef;" horiz-adv-x="397" vert-adv-y="1433" d="M17 1106v191h115v-191h-115zM142 0v942h112v-942h-112zM264 1106v191h115v-191h-115z" />
<glyph unicode="&#xf0;" horiz-adv-x="950" vert-adv-y="1433" d="M80 471q0 208 94 345q52 76 136 118q73 37 155 37q98 0 178 -56q-88 145 -131 197q-34 41 -71 79l-168 -97l-43 73l146 85q-43 36 -104 79l44 63q73 -36 146 -93l160 93l43 -74l-135 -78q108 -105 178 -228q162 -282 162 -543q0 -215 -99 -354q-105 -146 -296 -146 t-296 146q-99 139 -99 354zM192 477q0 -190 78 -303q74 -109 205 -109t205 109q78 113 78 298t-80 297q-77 108 -203 108q-127 0 -203 -108q-80 -114 -80 -292z" />
<glyph unicode="&#xf1;" horiz-adv-x="951" vert-adv-y="1433" d="M137 0v942h106v-159q99 188 287 188q111 0 188 -65q72 -61 92 -173q10 -53 10 -140v-593h-112v555q0 144 -26 213q-18 47 -63 77q-47 32 -111 32q-110 0 -183 -87q-52 -62 -67 -162q-9 -55 -9 -156v-472h-112zM214 1113q7 65 28 111q46 101 130 101q58 0 124 -68 q54 -55 85 -55q59 0 79 116h76q-11 -76 -35 -124q-44 -88 -118 -88q-54 0 -128 73q-55 55 -89 55q-62 0 -79 -121h-73z" />
<glyph unicode="&#xf2;" horiz-adv-x="950" vert-adv-y="1433" d="M80 478q0 204 94 338q108 155 301 155q195 0 301 -155q94 -137 94 -345q0 -215 -99 -354q-105 -146 -295 -146q-192 0 -297 146q-99 139 -99 361zM192 477q0 -190 78 -303q74 -109 205 -109t205 109q78 113 78 298t-80 297q-77 108 -203 108q-127 0 -203 -108 q-80 -114 -80 -292zM258 1365h118l163 -273h-103z" />
<glyph unicode="&#xf3;" horiz-adv-x="950" vert-adv-y="1433" d="M80 478q0 204 94 338q108 155 301 155q195 0 301 -155q94 -137 94 -345q0 -215 -99 -354q-105 -146 -295 -146q-192 0 -297 146q-99 139 -99 361zM192 477q0 -190 78 -303q74 -109 205 -109t205 109q78 113 78 298t-80 297q-77 108 -203 108q-127 0 -203 -108 q-80 -114 -80 -292zM411 1092l163 273h118l-178 -273h-103z" />
<glyph unicode="&#xf4;" horiz-adv-x="950" vert-adv-y="1433" d="M80 478q0 204 94 338q108 155 301 155q195 0 301 -155q94 -137 94 -345q0 -215 -99 -354q-105 -146 -295 -146q-192 0 -297 146q-99 139 -99 361zM192 477q0 -190 78 -303q74 -109 205 -109t205 109q78 113 78 298t-80 297q-77 108 -203 108q-127 0 -203 -108 q-80 -114 -80 -292zM247 1092l172 273h110l174 -273h-108l-124 197l-126 -197h-98z" />
<glyph unicode="&#xf5;" horiz-adv-x="950" vert-adv-y="1433" d="M80 478q0 204 94 338q108 155 301 155q195 0 301 -155q94 -137 94 -345q0 -215 -99 -354q-105 -146 -295 -146q-192 0 -297 146q-99 139 -99 361zM192 477q0 -190 78 -303q74 -109 205 -109t205 109q78 113 78 298t-80 297q-77 108 -203 108q-127 0 -203 -108 q-80 -114 -80 -292zM214 1113q7 65 28 111q46 101 130 101q58 0 124 -68q54 -55 85 -55q59 0 79 116h76q-11 -76 -35 -124q-44 -88 -118 -88q-54 0 -128 73q-55 55 -89 55q-62 0 -79 -121h-73z" />
<glyph unicode="&#xf6;" horiz-adv-x="950" vert-adv-y="1433" d="M80 478q0 204 94 338q108 155 301 155q195 0 301 -155q94 -137 94 -345q0 -215 -99 -354q-105 -146 -295 -146q-192 0 -297 146q-99 139 -99 361zM192 477q0 -190 78 -303q74 -109 205 -109t205 109q78 113 78 298t-80 297q-77 108 -203 108q-127 0 -203 -108 q-80 -114 -80 -292zM270 1106v191h115v-191h-115zM564 1106v191h115v-191h-115z" />
<glyph unicode="&#xf7;" vert-adv-y="1433" d="M68 637v105h887v-105h-887zM453 288v174h118v-174h-118zM453 916v174h118v-174h-118z" />
<glyph unicode="&#xf8;" horiz-adv-x="950" vert-adv-y="1433" d="M80 471q0 208 94 345q106 155 300 155q114 0 209 -62l36 62h100l-70 -121q121 -141 121 -378q0 -216 -99 -355q-105 -146 -295 -146q-113 0 -207 60l-34 -60h-104l70 120q-121 146 -121 380zM192 471q0 -175 74 -291l356 647q-69 49 -147 49q-128 0 -203 -108 q-80 -114 -80 -297zM330 113q67 -47 146 -47q129 0 204 109q78 112 78 297q0 171 -74 288z" />
<glyph unicode="&#xf9;" horiz-adv-x="951" vert-adv-y="1433" d="M131 349v593h112v-555q0 -144 26 -213q18 -47 63 -77q47 -32 111 -32q111 0 183 87q52 62 67 162q9 55 9 156v472h112v-942h-106v159q-98 -188 -287 -188q-111 0 -188 65q-71 61 -92 173q-10 54 -10 140zM258 1365h118l163 -273h-103z" />
<glyph unicode="&#xfa;" horiz-adv-x="951" vert-adv-y="1433" d="M131 349v593h112v-555q0 -144 26 -213q18 -47 63 -77q47 -32 111 -32q111 0 183 87q52 62 67 162q9 55 9 156v472h112v-942h-106v159q-98 -188 -287 -188q-111 0 -188 65q-71 61 -92 173q-10 54 -10 140zM411 1092l163 273h118l-178 -273h-103z" />
<glyph unicode="&#xfb;" horiz-adv-x="951" vert-adv-y="1433" d="M131 349v593h112v-555q0 -144 26 -213q18 -47 63 -77q47 -32 111 -32q111 0 183 87q52 62 67 162q9 55 9 156v472h112v-942h-106v159q-98 -188 -287 -188q-111 0 -188 65q-71 61 -92 173q-10 54 -10 140zM247 1092l172 273h110l174 -273h-108l-124 197l-126 -197h-98z " />
<glyph unicode="&#xfc;" horiz-adv-x="951" vert-adv-y="1433" d="M131 349v593h112v-555q0 -144 26 -213q18 -47 63 -77q47 -32 111 -32q111 0 183 87q52 62 67 162q9 55 9 156v472h112v-942h-106v159q-98 -188 -287 -188q-111 0 -188 65q-71 61 -92 173q-10 54 -10 140zM271 1106v191h115v-191h-115zM565 1106v191h115v-191h-115z" />
<glyph unicode="&#xfd;" horiz-adv-x="773" vert-adv-y="1433" d="M12 942h121l266 -782l247 782h114l-360 -1087q-35 -105 -80 -153q-54 -57 -144 -57q-39 0 -81 15v96q9 -2 14 -4q32 -9 57 -9q52 0 79 27q32 32 57 111l41 126zM322 1092l163 273h118l-178 -273h-103z" />
<glyph unicode="&#xfe;" horiz-adv-x="988" vert-adv-y="1433" d="M137 -355v1720h111v-589q21 61 67 109q82 86 218 86q167 0 268 -129q107 -138 107 -373q0 -228 -100 -362q-102 -136 -272 -136q-143 0 -232 99q-36 40 -55 86v-511h-112zM245 474q0 -195 79 -306q73 -103 197 -103q135 0 207 120q67 111 67 285q0 186 -77 300 q-74 107 -196 107q-125 0 -199 -105q-78 -112 -78 -298z" />
<glyph unicode="&#xff;" horiz-adv-x="773" vert-adv-y="1433" d="M12 942h121l266 -782l247 782h114l-360 -1087q-35 -105 -80 -153q-54 -57 -144 -57q-39 0 -81 15v96q9 -2 14 -4q32 -9 57 -9q52 0 79 27q32 32 57 111l41 126zM181 1106v191h115v-191h-115zM475 1106v191h115v-191h-115z" />
<glyph unicode="&#x106;" horiz-adv-x="1182" vert-adv-y="1433" d="M86 677q0 324 151 523q150 197 395 197q142 0 257 -73q173 -111 206 -327h-124q-34 119 -88 180q-101 113 -255 113q-180 0 -291 -153q-127 -177 -127 -456q0 -273 118 -445q52 -76 130 -119q79 -44 173 -44q167 0 271 145q66 93 83 233h124q-19 -165 -99 -284 q-135 -200 -381 -200q-261 0 -416 230q-127 189 -127 480zM512 1479l180 258h127l-202 -258h-105z" />
<glyph unicode="&#x107;" horiz-adv-x="879" vert-adv-y="1433" d="M80 472q0 207 91 345q102 154 294 154q158 0 254 -114q59 -70 80 -178h-115q-17 75 -50 117q-64 81 -170 81q-124 0 -196 -108q-76 -114 -76 -297q0 -185 74 -298q71 -109 198 -109q120 0 187 109q32 51 43 128h114q-10 -104 -65 -187q-96 -144 -279 -144 q-187 0 -288 146q-96 139 -96 355zM375 1092l163 273h118l-178 -273h-103z" />
<glyph unicode="&#x10c;" horiz-adv-x="1182" vert-adv-y="1433" d="M86 677q0 324 151 523q150 197 395 197q142 0 257 -73q173 -111 206 -327h-124q-34 119 -88 180q-101 113 -255 113q-180 0 -291 -153q-127 -177 -127 -456q0 -273 118 -445q52 -76 130 -119q79 -44 173 -44q167 0 271 145q66 93 83 233h124q-19 -165 -99 -284 q-135 -200 -381 -200q-261 0 -416 230q-127 189 -127 480zM333 1734h114l147 -190l151 190h103l-200 -259h-113z" />
<glyph unicode="&#x10d;" horiz-adv-x="879" vert-adv-y="1433" d="M80 472q0 207 91 345q102 154 294 154q158 0 254 -114q59 -70 80 -178h-115q-17 75 -50 117q-64 81 -170 81q-124 0 -196 -108q-76 -114 -76 -297q0 -185 74 -298q71 -109 198 -109q120 0 187 109q32 51 43 128h114q-10 -104 -65 -187q-96 -144 -279 -144 q-187 0 -288 146q-96 139 -96 355zM211 1365h108l124 -197l126 197h98l-172 -273h-109z" />
<glyph unicode="&#x110;" horiz-adv-x="1171" vert-adv-y="1433" d="M0 654v106h147v605h344q166 0 272 -47q154 -68 240 -230q82 -154 82 -392q0 -364 -183 -548q-146 -148 -403 -148h-352v654h-147zM269 106h231q247 0 353 151q108 155 108 437q0 327 -158 467q-109 98 -293 98h-241v-499h323v-106h-323v-548z" />
<glyph unicode="&#x111;" horiz-adv-x="989" vert-adv-y="1433" d="M80 471q0 231 102 363q105 137 275 137q133 0 227 -101q36 -39 55 -84v316h-273v90h273v173h113v-173h137v-90h-137v-1102h-104v173q-90 -202 -292 -202q-162 0 -267 129q-109 136 -109 371zM192 474q0 -190 77 -303q72 -106 197 -106q126 0 199 105q79 115 79 300 q0 192 -79 304q-73 103 -198 103q-134 0 -207 -120q-68 -111 -68 -283z" />
<glyph unicode="&#x152;" horiz-adv-x="1786" vert-adv-y="1433" d="M87 683q0 319 150 515q151 198 389 198q164 0 269 -92q21 -18 49 -49v110h759v-106h-637v-499h594v-106h-594v-548h644v-106h-766v113q-29 -34 -50 -55q-95 -91 -271 -91q-180 0 -312 117q-224 198 -224 599zM211 687q0 -253 100 -422q57 -98 154 -151q76 -41 166 -41 q195 0 313 182v850q-117 185 -314 185q-186 0 -302 -167q-117 -167 -117 -436z" />
<glyph unicode="&#x153;" horiz-adv-x="1494" vert-adv-y="1433" d="M80 471q0 208 90 345q101 155 287 155q207 0 310 -205q109 205 297 205q125 0 217 -92q133 -133 134 -434h-602q2 -137 41 -226q69 -154 218 -154q159 0 221 211h109q-21 -98 -71 -169q-95 -136 -259 -136q-204 0 -307 205q-100 -205 -309 -205q-181 0 -281 146 q-95 139 -95 354zM192 477q0 -190 73 -303q70 -109 193 -109q122 0 192 109q73 113 73 298t-75 297q-72 108 -190 108q-120 0 -191 -108q-75 -114 -75 -292zM813 535h488q-5 120 -43 201q-33 73 -94 114q-44 30 -101 30q-87 0 -154 -73q-80 -87 -96 -272z" />
<glyph unicode="&#x160;" horiz-adv-x="1035" vert-adv-y="1433" d="M68 383h117q17 -121 82 -197q95 -111 261 -111q140 0 221 74q88 80 88 210q0 137 -112 211q-56 37 -269 97q-155 43 -227 93q-142 99 -142 279q0 144 98 244q113 114 306 114q248 0 367 -175q51 -75 66 -190h-127q-19 108 -68 164q-82 94 -236 94q-133 0 -209 -73 q-75 -72 -75 -181q0 -117 86 -180q67 -50 220 -92q154 -43 197 -60q255 -104 255 -344q0 -166 -113 -276q-122 -117 -322 -117q-242 0 -365 154q-81 102 -99 262zM260 1734h114l147 -190l151 190h103l-200 -259h-113z" />
<glyph unicode="&#x161;" horiz-adv-x="785" vert-adv-y="1433" d="M68 265h112q11 -78 52 -128q62 -72 170 -72q91 0 144 48q58 52 58 134q0 91 -78 140q-37 24 -186 64q-100 27 -157 67q-98 70 -98 193q0 104 73 177q81 83 219 83q175 0 262 -124q36 -52 47 -134h-112q-30 166 -193 166q-87 0 -138 -48q-49 -47 -49 -117q0 -75 59 -117 q42 -29 154 -60q163 -46 212 -84q98 -77 98 -204q0 -118 -82 -195q-87 -83 -234 -83q-172 0 -261 109q-58 70 -72 185zM164 1365h108l124 -197l126 197h98l-172 -273h-109z" />
<glyph unicode="&#x178;" horiz-adv-x="1017" vert-adv-y="1433" d="M-2 1365h141l373 -682l372 682h135l-449 -800v-565h-122v565zM290 1488v191h119v-191h-119zM608 1488v191h119v-191h-119z" />
<glyph unicode="&#x17d;" horiz-adv-x="1001" vert-adv-y="1433" d="M57 0v115l745 1144h-691v106h825v-112l-745 -1147h759v-106h-893zM243 1734h114l147 -190l151 190h103l-200 -259h-113z" />
<glyph unicode="&#x17e;" horiz-adv-x="774" vert-adv-y="1433" d="M49 0v92l539 756h-501v94h639v-80l-545 -768h566v-94h-698zM159 1365h108l124 -197l126 197h98l-172 -273h-109z" />
<glyph unicode="&#x2c6;" vert-adv-y="1433" d="M284 1092l172 273h110l174 -273h-108l-124 197l-126 -197h-98z" />
<glyph unicode="&#x2da;" vert-adv-y="1433" d="M327 1249q0 79 55 132t132 53q74 0 128 -54t54 -131q0 -75 -53 -129q-54 -55 -132 -55q-77 0 -130 54q-54 54 -54 130zM410 1248q0 -44 30 -76q29 -32 72 -32t73 33q29 31 29 76t-30 77t-70 32q-44 0 -74 -31q-30 -32 -30 -79z" />
<glyph unicode="&#x2dc;" horiz-adv-x="1036" vert-adv-y="1433" d="M257 1113q7 65 28 111q46 101 130 101q58 0 124 -68q54 -55 85 -55q59 0 79 116h76q-11 -76 -35 -124q-44 -88 -118 -88q-54 0 -128 73q-55 55 -89 55q-62 0 -79 -121h-73z" />
<glyph unicode="&#x2000;" horiz-adv-x="903" vert-adv-y="0" />
<glyph unicode="&#x2001;" horiz-adv-x="1806" vert-adv-y="0" />
<glyph unicode="&#x2002;" horiz-adv-x="903" vert-adv-y="0" />
<glyph unicode="&#x2003;" horiz-adv-x="1806" vert-adv-y="0" />
<glyph unicode="&#x2004;" horiz-adv-x="602" vert-adv-y="0" />
<glyph unicode="&#x2005;" horiz-adv-x="451" vert-adv-y="0" />
<glyph unicode="&#x2006;" horiz-adv-x="301" vert-adv-y="0" />
<glyph unicode="&#x2007;" horiz-adv-x="301" vert-adv-y="0" />
<glyph unicode="&#x2008;" horiz-adv-x="225" vert-adv-y="0" />
<glyph unicode="&#x2009;" horiz-adv-x="361" vert-adv-y="0" />
<glyph unicode="&#x200a;" horiz-adv-x="100" vert-adv-y="0" />
<glyph unicode="&#x2010;" horiz-adv-x="403" vert-adv-y="1433" d="M8 454v106h387v-106h-387z" />
<glyph unicode="&#x2011;" horiz-adv-x="403" vert-adv-y="1433" d="M8 454v106h387v-106h-387z" />
<glyph unicode="&#x2012;" horiz-adv-x="403" vert-adv-y="1433" d="M8 454v106h387v-106h-387z" />
<glyph unicode="&#x2013;" horiz-adv-x="966" vert-adv-y="1433" d="M120 454v106h725v-106h-725z" />
<glyph unicode="&#x2014;" horiz-adv-x="1429" vert-adv-y="1433" d="M141 454v106h1152v-106h-1152z" />
<glyph unicode="&#x2018;" horiz-adv-x="410" vert-adv-y="1433" d="M135 915v148q0 154 36 222q38 72 116 101v-82q-72 -39 -72 -161v-24h59v-204h-139z" />
<glyph unicode="&#x2019;" horiz-adv-x="410" vert-adv-y="1433" d="M123 894v82q71 42 71 161v23h-59v205h139v-148q0 -155 -36 -222q-37 -70 -115 -101z" />
<glyph unicode="&#x201a;" horiz-adv-x="410" vert-adv-y="1433" d="M123 -184q71 42 71 161v23h-59v205h139v-148q0 -155 -36 -223q-37 -69 -115 -100v82z" />
<glyph unicode="&#x201c;" horiz-adv-x="661" vert-adv-y="1433" d="M135 915v148q0 154 36 222q38 72 116 101v-82q-72 -39 -72 -161v-24h59v-204h-139zM387 915v148q0 155 36 222q37 70 115 101v-82q-71 -42 -71 -161v-24h59v-204h-139z" />
<glyph unicode="&#x201d;" horiz-adv-x="661" vert-adv-y="1433" d="M123 894v82q71 42 71 161v23h-59v205h139v-148q0 -155 -36 -222q-37 -70 -115 -101zM375 894v82q71 42 71 161v23h-59v205h139v-148q0 -155 -36 -222q-37 -70 -115 -101z" />
<glyph unicode="&#x201e;" horiz-adv-x="661" vert-adv-y="1433" d="M123 -184q71 42 71 161v23h-59v205h139v-148q0 -155 -36 -223q-37 -69 -115 -100v82zM375 -184q71 42 71 161v23h-59v205h139v-148q0 -155 -36 -223q-37 -69 -115 -100v82z" />
<glyph unicode="&#x2022;" horiz-adv-x="1365" vert-adv-y="1433" d="M401 693q0 121 84 202q85 83 204 83q113 0 196 -83q84 -83 84 -201t-84 -201q-82 -83 -200 -83t-200 83q-84 83 -84 200z" />
<glyph unicode="&#x2026;" horiz-adv-x="1221" vert-adv-y="1433" d="M135 0v205h139v-205h-139zM541 0v205h139v-205h-139zM946 0v205h139v-205h-139z" />
<glyph unicode="&#x202f;" horiz-adv-x="361" vert-adv-y="0" />
<glyph unicode="&#x2039;" horiz-adv-x="442" vert-adv-y="1433" d="M90 446v115l221 250v-131l-151 -175l151 -173v-133z" />
<glyph unicode="&#x203a;" horiz-adv-x="442" vert-adv-y="1433" d="M131 199v131l151 175l-151 173v133l221 -247v-115z" />
<glyph unicode="&#x205f;" horiz-adv-x="451" vert-adv-y="0" />
<glyph unicode="&#x20ac;" horiz-adv-x="1187" vert-adv-y="1433" d="M27 512l37 100h111q-2 33 -2 64q0 36 3 75h-149l37 100h123q24 157 87 270q152 276 456 276q212 0 359 -135l-41 -111q-83 73 -145 101q-86 38 -179 38q-257 0 -372 -287q-27 -68 -41 -152h626l-37 -100h-600q-2 -34 -2 -70q0 -35 2 -69h549l-37 -100h-501 q18 -110 59 -196q116 -243 356 -243q116 0 197 59q47 33 112 120l86 -65q-66 -93 -122 -135q-114 -85 -280 -85q-192 0 -328 125q-169 155 -206 420h-158z" />
<glyph unicode="&#x2122;" horiz-adv-x="1440" vert-adv-y="1433" d="M14 1282v83h563v-83h-234v-736h-94v736h-235zM666 546v819h120l232 -679l227 679h121v-819h-90v655l-217 -655h-81l-222 652v-652h-90z" />
<glyph unicode="&#xe000;" horiz-adv-x="940" vert-adv-y="1880" d="M0 0v940h940v-940h-940z" />
</font>
</defs>
</svg>
