<?xml version="1.0" standalone="no"?>
<!DOCTYPE svg PUBLIC "-//W3C//DTD SVG 1.1//EN" "http://www.w3.org/Graphics/SVG/1.1/DTD/svg11.dtd" >
<svg xmlns="http://www.w3.org/2000/svg">
<metadata></metadata>
<defs>
<font id="tele-groteskfetregular" horiz-adv-x="1024" vert-adv-y="2048" >
<font-face units-per-em="2048" ascent="1679" descent="-369" />
<missing-glyph horiz-adv-x="396" />
<glyph horiz-adv-x="2048" vert-adv-y="0" />
<glyph horiz-adv-x="2048" vert-adv-y="0" />
<glyph unicode="&#xd;" horiz-adv-x="2048" vert-adv-y="0" />
<glyph unicode=" " horiz-adv-x="396" vert-adv-y="1433" />
<glyph unicode="!" horiz-adv-x="561" vert-adv-y="1433" d="M158 0v246h246v-246h-246zM175 971v394h213v-392l-57 -596h-106z" />
<glyph unicode="&#x22;" horiz-adv-x="704" vert-adv-y="1433" d="M75 1365h222l-35 -520h-152zM407 1365h222l-36 -520h-151z" />
<glyph unicode="#" horiz-adv-x="1229" vert-adv-y="1433" d="M133 436v147h206l31 222h-185v147h206l49 345h168l-49 -345h187l49 345h168l-49 -345h188v-147h-209l-31 -222h188v-147h-209l-51 -368h-168l52 368h-188l-51 -368h-168l51 368h-185zM507 583h187l31 222h-187z" />
<glyph unicode="$" horiz-adv-x="1049" vert-adv-y="1433" d="M74 417h228q5 -158 133 -215v432q-125 51 -193 103q-145 112 -145 284q0 124 78 210q95 103 260 121v95h160v-98q117 -17 201 -75q129 -88 143 -271h-212q-8 73 -44 111q-29 31 -88 48v-383q143 -56 215 -104q180 -118 180 -300q0 -122 -77 -215q-106 -129 -318 -150v-92 h-160v98q-116 18 -196 76q-154 111 -165 325zM302 1020q0 -107 133 -186v331q-133 -33 -133 -145zM595 188q58 11 96 36q78 52 78 144q0 130 -174 214v-394z" />
<glyph unicode="%" horiz-adv-x="1752" vert-adv-y="1433" d="M29 961q0 191 98 307q97 115 245 115q147 0 241 -113q100 -120 100 -314q0 -169 -77 -285q-94 -144 -264 -144q-171 0 -268 146q-75 113 -75 288zM189 962q0 -134 47 -215q24 -41 68 -64q32 -17 69 -17q77 0 122 66q58 84 58 225q0 131 -51 211q-49 76 -131 76 q-81 0 -129 -74q-53 -81 -53 -208zM511 0l588 1365h141l-584 -1365h-145zM1038 415q0 191 98 307q97 115 245 115q147 0 241 -113q100 -120 100 -314q0 -169 -77 -285q-94 -144 -264 -144q-171 0 -268 146q-75 113 -75 288zM1198 416q0 -134 47 -215q24 -41 68 -64 q32 -17 69 -17q77 0 122 66q58 84 58 225q0 131 -51 211q-48 76 -131 76q-81 0 -129 -74q-53 -81 -53 -208z" />
<glyph unicode="&#x26;" horiz-adv-x="1072" vert-adv-y="1433" d="M68 340q0 220 243 420q-10 15 -15 23q-71 105 -92 156q-37 88 -37 170q0 138 119 222q88 63 201 63q133 0 217 -82q78 -77 78 -198q0 -150 -154 -305q-29 -29 -84 -76l223 -334q19 78 23 168h198q-20 -206 -100 -350l144 -217h-220l-46 69q-125 -98 -297 -98 q-174 0 -282 98q-119 109 -119 271zM272 331q0 -96 62 -153q57 -53 142 -53q110 0 195 89l-264 400q-135 -131 -135 -283zM366 1104q0 -103 87 -235q147 111 147 237q0 54 -30 92q-32 42 -85 42q-45 0 -78 -31q-41 -40 -41 -105z" />
<glyph unicode="'" horiz-adv-x="372" vert-adv-y="1433" d="M75 1365h222l-35 -520h-152z" />
<glyph unicode="(" horiz-adv-x="558" vert-adv-y="1433" d="M68 492q0 285 87 548q34 102 102 239q25 52 48 86h164q-5 -9 -10 -19q-184 -383 -184 -846q0 -213 50 -441q46 -209 135 -392l10 -22h-165q-111 211 -155 346q-82 249 -82 501z" />
<glyph unicode=")" horiz-adv-x="558" vert-adv-y="1433" d="M88 -355l6 13q189 403 189 842q0 292 -80 574q-33 120 -113 291h163q30 -44 80 -151q157 -336 157 -720q0 -254 -82 -503q-45 -136 -154 -346h-166z" />
<glyph unicode="*" horiz-adv-x="819" vert-adv-y="1433" d="M98 1102l36 108l218 -79l-2 234h118l-4 -234l218 79l39 -108l-222 -72l138 -185l-91 -69l-139 191l-138 -191l-93 69l142 185z" />
<glyph unicode="+" vert-adv-y="1433" d="M41 596v180h381v355h181v-355h380v-173h-380v-355h-188v348h-374z" />
<glyph unicode="," horiz-adv-x="504" vert-adv-y="1433" d="M129 0v246h246v-171q0 -129 -29 -197q-54 -127 -217 -165v119q107 27 111 168h-111z" />
<glyph unicode="-" horiz-adv-x="433" vert-adv-y="1433" d="M6 414v197h421v-197h-421z" />
<glyph unicode="." horiz-adv-x="504" vert-adv-y="1433" d="M129 0v246h246v-246h-246z" />
<glyph unicode="/" horiz-adv-x="746" vert-adv-y="1433" d="M-46 -355l551 1720h171l-550 -1720h-172z" />
<glyph unicode="0" horiz-adv-x="966" vert-adv-y="1433" d="M85 686q0 354 100 526q105 182 296 182q400 0 400 -714q0 -351 -99 -529q-101 -180 -296 -180q-401 0 -401 715zM293 676q0 -268 40 -385q47 -135 152 -135q114 0 155 158q33 125 33 378q0 242 -37 372q-42 145 -154 145t-156 -154q-33 -117 -33 -379z" />
<glyph unicode="1" horiz-adv-x="966" vert-adv-y="1433" d="M172 942v169q146 5 210 78q43 49 69 176h158v-1365h-209v1003q-48 -38 -103 -51q-37 -9 -125 -10z" />
<glyph unicode="2" horiz-adv-x="966" vert-adv-y="1433" d="M64 0q0 197 47 310q49 117 167 223q55 49 200 148q198 137 198 318q0 80 -37 134q-55 82 -162 82q-114 0 -166 -107q-30 -59 -30 -144h-206q8 187 102 299q113 134 302 134q130 0 237 -65q174 -105 174 -334q0 -193 -148 -339q-73 -72 -249 -191q-125 -85 -174 -158 q-34 -51 -46 -126h603v-184h-812z" />
<glyph unicode="3" horiz-adv-x="966" vert-adv-y="1433" d="M69 393q0 6 1 27h199q7 -252 200 -252q91 0 142 60q57 67 57 182q0 126 -64 191q-51 52 -152 52q-23 0 -65 -3v168q109 0 154 22q50 25 75 92q15 42 15 92q0 109 -65 163q-43 35 -104 35q-162 0 -169 -222h-197q5 150 66 246q100 160 307 160q170 0 271 -106 q95 -100 95 -259q0 -206 -168 -290q87 -29 142 -101q72 -93 72 -240q0 -192 -119 -311q-116 -115 -298 -115q-248 0 -349 203q-46 93 -46 206z" />
<glyph unicode="4" horiz-adv-x="966" vert-adv-y="1433" d="M70 335v211l478 819h193v-850h139v-180h-139v-335h-198v335h-473zM243 515h300v540z" />
<glyph unicode="5" horiz-adv-x="966" vert-adv-y="1433" d="M69 343h204q10 -76 44 -121q52 -67 144 -67q110 0 161 92q41 75 41 195q0 123 -45 203q-53 95 -160 95q-110 0 -178 -120l-178 6l104 739h596v-190h-442l-49 -348q79 85 205 85q154 0 250 -116q110 -132 110 -339q0 -212 -114 -348q-116 -138 -306 -138q-117 0 -211 55 q-169 99 -176 317z" />
<glyph unicode="6" horiz-adv-x="966" vert-adv-y="1433" d="M90 664q0 328 104 521q113 209 329 209q113 0 198 -63q124 -91 142 -278h-200q-24 165 -152 165q-194 0 -218 -458q93 143 241 143q160 0 259 -130q95 -125 95 -323q0 -195 -95 -326q-111 -153 -292 -153q-193 0 -296 165q-115 184 -115 528zM315 445q0 -114 42 -196 q49 -94 142 -94q89 0 135 89q41 81 41 194q0 114 -41 194q-48 95 -138 95q-59 0 -105 -45q-76 -74 -76 -237z" />
<glyph unicode="7" horiz-adv-x="966" vert-adv-y="1433" d="M111 1164v201h770v-185q-149 -177 -266 -496q-121 -330 -136 -684h-222q2 185 80 464q89 318 267 593q41 63 78 107h-571z" />
<glyph unicode="8" horiz-adv-x="966" vert-adv-y="1433" d="M79 373q0 166 89 275q44 55 121 88q-62 31 -96 78q-70 97 -70 228q0 158 98 253q103 99 266 99q160 0 260 -99q94 -94 94 -249q0 -148 -84 -246q-32 -37 -81 -64q68 -29 104 -64q106 -103 106 -291q0 -170 -95 -280q-113 -130 -309 -130q-186 0 -298 116 q-105 109 -105 286zM292 401q0 -119 56 -191q50 -63 138 -63q100 0 147 78q40 65 40 166q0 107 -43 175q-54 84 -148 84q-85 0 -136 -68q-54 -72 -54 -181zM319 1020q0 -93 47 -155q43 -57 118 -57q71 0 112 51q49 61 49 158q0 91 -43 144q-44 55 -118 55q-78 0 -121 -54 q-44 -56 -44 -142z" />
<glyph unicode="9" horiz-adv-x="966" vert-adv-y="1433" d="M78 916q0 195 95 326q111 152 292 152q193 0 296 -165q115 -183 115 -526q0 -329 -104 -523q-112 -209 -328 -209q-114 0 -200 64q-122 93 -141 284h200q25 -172 153 -172q191 0 217 460q-93 -143 -241 -143q-160 0 -259 130q-95 124 -95 322zM291 932q0 -115 41 -197 q47 -95 139 -95q95 0 142 98q38 78 38 186q0 114 -42 193q-50 93 -141 93q-89 0 -136 -89q-41 -79 -41 -189z" />
<glyph unicode=":" horiz-adv-x="504" vert-adv-y="1433" d="M129 0v246h246v-246h-246zM129 696v246h246v-246h-246z" />
<glyph unicode=";" horiz-adv-x="504" vert-adv-y="1433" d="M129 0v246h246v-171q0 -129 -29 -197q-54 -127 -217 -165v119q107 27 111 168h-111zM129 696v246h246v-246h-246z" />
<glyph unicode="&#x3c;" vert-adv-y="1433" d="M68 590v186l887 438v-218l-654 -313l654 -313v-218z" />
<glyph unicode="=" vert-adv-y="1433" d="M41 432v173h942v-173h-942zM41 774v173h942v-173h-942z" />
<glyph unicode="&#x3e;" vert-adv-y="1433" d="M69 152v218l654 313l-654 313v218l887 -438v-186z" />
<glyph unicode="?" horiz-adv-x="917" vert-adv-y="1433" d="M96 961q0 9 1 22q7 179 90 283q104 130 279 130q171 0 277 -109q102 -104 102 -267q0 -116 -59 -215q-30 -51 -60 -82l-74 -75q-89 -91 -95 -197q-1 -14 -1 -51v-25h-183q4 114 14 165q15 72 52 130q23 35 83 104q68 77 90 127q23 53 23 109q0 84 -45 141q-44 56 -126 56 q-164 0 -173 -246h-195zM336 0v246h246v-246h-246z" />
<glyph unicode="@" horiz-adv-x="1502" vert-adv-y="1433" d="M69 592q0 228 119 430q112 190 309 289q168 85 350 85q250 0 420 -143q188 -157 188 -408q0 -171 -91 -312q-73 -112 -175 -162q-68 -33 -137 -33q-104 0 -140 82q-43 -42 -73 -60q-58 -33 -126 -33q-117 0 -187 89q-62 79 -62 202q0 158 94 274q90 111 226 111 q114 0 174 -89l13 67h149l-79 -399q-11 -73 -11 -80q0 -43 35 -43q73 0 142 71q120 123 120 313q0 196 -141 317q-135 114 -338 114q-255 0 -436 -186q-190 -195 -190 -493q0 -225 126 -361q136 -145 392 -145q198 0 367 72q21 9 77 36l14 6l43 -119q-39 -19 -55 -26 q-199 -91 -456 -91q-317 0 -487 172q-174 174 -174 453zM607 624q0 -73 30 -123q31 -50 91 -50q87 0 141 93q42 74 42 178q0 72 -31 112q-32 42 -86 42q-84 0 -138 -82q-49 -75 -49 -170z" />
<glyph unicode="A" horiz-adv-x="1134" vert-adv-y="1433" d="M10 0l440 1365h235l438 -1365h-236l-107 366h-431l-108 -366h-231zM402 546h325l-161 552z" />
<glyph unicode="B" horiz-adv-x="1143" vert-adv-y="1433" d="M125 0v1365h455q145 0 221 -24q120 -39 174 -136q43 -76 43 -171q0 -131 -85 -223q-40 -44 -110 -76q247 -72 247 -334q0 -133 -67 -234q-79 -118 -212 -151q-64 -16 -151 -16h-515zM350 188h216q147 0 200 38q79 57 79 181q0 84 -40 141q-41 59 -132 70q-37 5 -126 5 h-197v-435zM350 797h189q112 0 158 18q54 22 81 84q16 38 16 87q0 133 -91 174q-38 17 -157 17h-196v-380z" />
<glyph unicode="C" horiz-adv-x="1180" vert-adv-y="1433" d="M73 679q0 283 130 481q154 236 426 236q244 0 387 -199q83 -116 97 -269h-222q-19 110 -69 176q-77 100 -199 100q-153 0 -234 -138q-91 -156 -91 -386q0 -225 87 -379q80 -141 234 -141q241 0 280 363h222q-11 -208 -117 -358q-139 -198 -385 -198q-243 0 -386 181 q-160 203 -160 531z" />
<glyph unicode="D" horiz-adv-x="1196" vert-adv-y="1433" d="M125 0v1365h419q273 0 413 -153q166 -182 166 -520q0 -397 -215 -585q-83 -72 -191 -94q-65 -13 -162 -13h-430zM350 188h174q102 0 158 19.5t101 71.5q115 132 115 413q0 262 -117 387q-53 56 -119 79q-54 19 -135 19h-177v-989z" />
<glyph unicode="E" horiz-adv-x="1039" vert-adv-y="1433" d="M125 0v1365h823v-193h-598v-370h553v-193h-553v-416h608v-193h-833z" />
<glyph unicode="F" horiz-adv-x="969" vert-adv-y="1433" d="M125 0v1365h797v-193h-572v-382h500v-193h-500v-597h-225z" />
<glyph unicode="G" horiz-adv-x="1255" vert-adv-y="1433" d="M73 673q0 336 174 543q152 181 396 181q267 0 408 -221q69 -107 82 -247h-218q-18 111 -71 179q-77 96 -206 96q-156 0 -243 -135q-97 -148 -97 -393q0 -261 111 -404q86 -112 234 -112q196 0 270 205q24 65 30 180h-301v184h505v-729h-173v158q-60 -75 -113 -114 q-103 -77 -243 -77q-219 0 -362 158q-183 202 -183 548z" />
<glyph unicode="H" horiz-adv-x="1210" vert-adv-y="1433" d="M125 0v1365h225v-552h510v552h225v-1365h-225v620h-510v-620h-225z" />
<glyph unicode="I" horiz-adv-x="475" vert-adv-y="1433" d="M125 0v1365h225v-1365h-225z" />
<glyph unicode="J" horiz-adv-x="624" vert-adv-y="1433" d="M6 -19v199q66 -18 112 -18q121 0 156 115q15 50 16 127q0 20 1 116v845h225v-873q0 -175 -18 -249q-65 -276 -365 -276q-56 0 -127 14z" />
<glyph unicode="K" horiz-adv-x="1108" vert-adv-y="1433" d="M125 0v1365h224v-580l473 580h262l-477 -564l506 -801h-258l-393 629l-113 -134v-495h-224z" />
<glyph unicode="L" horiz-adv-x="966" vert-adv-y="1433" d="M125 0v1365h225v-1172h565v-193h-790z" />
<glyph unicode="M" horiz-adv-x="1454" vert-adv-y="1433" d="M125 0v1365h302l305 -1064l295 1064h302v-1365h-209v1080l-292 -1080h-190l-304 1067v-1067h-209z" />
<glyph unicode="N" horiz-adv-x="1198" vert-adv-y="1433" d="M125 0v1365h231l508 -1012v1012h209v-1365h-233l-506 1007v-1007h-209z" />
<glyph unicode="O" horiz-adv-x="1260" vert-adv-y="1433" d="M73 692q0 320 160 513q158 191 399 191q238 0 391 -186q164 -202 164 -527q0 -284 -126 -479q-75 -116 -191 -178q-109 -59 -238 -59q-279 0 -436 241q-123 189 -123 484zM298 694q0 -237 84 -383q44 -77 124 -120q59 -32 128 -32q92 0 168 61q83 66 126 207 q34 112 34 257q0 233 -90 377q-89 143 -242 143q-150 0 -239 -139q-93 -145 -93 -371z" />
<glyph unicode="P" horiz-adv-x="1073" vert-adv-y="1433" d="M125 0v1365h427q147 0 226 -28q125 -44 191 -168q49 -91 49 -221q0 -222 -139 -337q-61 -50 -136 -70q-64 -16 -164 -16h-229v-525h-225zM350 717h198q128 0 181 51q64 63 64 177q0 131 -90 189q-50 32 -173 32h-180v-449z" />
<glyph unicode="Q" horiz-adv-x="1260" vert-adv-y="1433" d="M73 683q0 325 160 522q155 191 399 191q239 0 391 -186q164 -202 164 -534q0 -275 -134 -466q-16 -22 -38 -49l148 -155l-121 -118l-151 161q-126 -82 -268 -82q-182 0 -321 120q-229 196 -229 596zM298 687q0 -230 84 -376q45 -79 124 -120q62 -32 137 -32q60 0 120 26 l-144 153l117 115l148 -155q78 147 78 384q0 232 -90 380q-88 142 -242 142q-150 0 -239 -139q-93 -145 -93 -378z" />
<glyph unicode="R" horiz-adv-x="1202" vert-adv-y="1433" d="M145 0v1365h505q118 0 186 -23q116 -40 180 -143q55 -89 55 -211q0 -250 -221 -337q85 -24 126 -80q40 -55 53 -120q10 -52 16 -124q16 -201 30 -256q9 -32 39 -71h-237q-17 34 -24 67q-7 37 -12 136q-8 144 -24 201q-30 111 -104 140q-52 20 -144 20h-199v-564h-225z M370 739h198q144 0 197 38q81 57 81 185q0 135 -93 187q-50 28 -159 28h-224v-438z" />
<glyph unicode="S" horiz-adv-x="1045" vert-adv-y="1433" d="M68 417h234q4 -103 42 -164q63 -102 188 -102q105 0 164 70q47 56 47 134q0 115 -106 181q-50 31 -222 102q-135 56 -215 135q-102 101 -102 257q0 169 124 274q109 92 280 92q235 0 353 -156q67 -87 78 -237h-219q-8 87 -42 130q-54 70 -169 70q-82 0 -130 -40 q-57 -48 -57 -131q0 -88 70 -146q56 -46 187 -98q128 -51 180 -80q224 -124 224 -351q0 -165 -117 -274q-123 -116 -330 -116q-239 0 -365 160q-88 113 -97 290z" />
<glyph unicode="T" horiz-adv-x="1014" vert-adv-y="1433" d="M39 1172v193h936v-193h-355v-1172h-225v1172h-356z" />
<glyph unicode="U" horiz-adv-x="1176" vert-adv-y="1433" d="M109 597v768h225v-781q0 -145 14 -212q44 -213 245 -213q162 0 217 139q33 84 33 286v781h225v-772q0 -171 -18 -256q-81 -370 -461 -370q-278 0 -400 205q-51 85 -68 201q-12 81 -12 224z" />
<glyph unicode="V" horiz-adv-x="1037" vert-adv-y="1433" d="M10 1365h238l275 -1098l278 1098h226l-387 -1365h-246z" />
<glyph unicode="W" horiz-adv-x="1536" vert-adv-y="1433" d="M14 1365h228l196 -1055l218 1055h226l215 -1057l200 1057h224l-308 -1365h-229l-218 1055l-219 -1055h-231z" />
<glyph unicode="X" horiz-adv-x="1070" vert-adv-y="1433" d="M2 0l407 709l-378 656h257l250 -480l257 480h244l-376 -656l405 -709h-263l-273 514l-280 -514h-250z" />
<glyph unicode="Y" horiz-adv-x="1040" vert-adv-y="1433" d="M-18 1365h253l291 -597l288 597h245l-424 -822v-543h-225v545z" />
<glyph unicode="Z" horiz-adv-x="1050" vert-adv-y="1433" d="M61 0v186l657 986h-606v193h875v-181l-661 -991h677v-193h-942z" />
<glyph unicode="[" horiz-adv-x="557" vert-adv-y="1433" d="M128 -355v1720h369v-164h-192v-1392h192v-164h-369z" />
<glyph unicode="\" horiz-adv-x="746" vert-adv-y="1433" d="M71 1365h170l552 -1720h-172z" />
<glyph unicode="]" horiz-adv-x="557" vert-adv-y="1433" d="M61 -191h192v1392h-192v164h369v-1720h-369v164z" />
<glyph unicode="^" vert-adv-y="1433" d="M51 747l338 624h246l338 -624h-200l-262 475l-261 -475h-199z" />
<glyph unicode="_" vert-adv-y="1433" d="M41 -110h942v-173h-942v173z" />
<glyph unicode="`" vert-adv-y="1433" d="M268 1365h180l170 -273h-165z" />
<glyph unicode="a" horiz-adv-x="948" vert-adv-y="1433" d="M68 247q0 146 111 232q83 64 239 80q68 7 208 11v78q0 167 -165 167q-151 0 -167 -163h-191q8 149 97 231q97 88 272 88q194 0 287 -111q46 -53 56 -145q4 -35 4 -140v-356q0 -52 8 -67q11 -21 39 -21q17 0 39 11v-142q-57 -25 -126 -25q-65 0 -98 32q-23 24 -39 76 q-104 -112 -272 -112q-121 0 -202 64q-100 77 -100 212zM277 256q0 -64 42 -100q38 -32 103 -32q108 0 166 104q38 68 38 151v75q-124 -6 -194 -24q-71 -18 -110 -61q-45 -48 -45 -113z" />
<glyph unicode="b" horiz-adv-x="1018" vert-adv-y="1433" d="M117 0v1365h201v-527q89 133 252 133q111 0 203 -65q178 -126 178 -433q0 -213 -97 -355q-101 -147 -279 -147q-177 0 -269 135v-106h-189zM314 477q0 -151 52 -240q59 -98 165 -98q103 0 160 98q55 97 55 238q0 154 -62 244q-57 84 -153 84q-98 0 -156 -84 q-61 -89 -61 -242z" />
<glyph unicode="c" horiz-adv-x="921" vert-adv-y="1433" d="M68 464q0 222 107 357q118 150 315 150q191 0 293 -132q60 -77 71 -192h-200q-10 54 -34 89q-47 67 -131 67q-106 0 -162 -96q-54 -91 -54 -239q0 -152 58 -244q54 -85 153 -85q103 0 153 95q22 40 30 99h199q-19 -144 -95 -236q-106 -126 -288 -126q-181 0 -289 119 q-126 138 -126 374z" />
<glyph unicode="d" horiz-adv-x="1018" vert-adv-y="1433" d="M68 473q0 229 105 363q52 67 131 103q70 32 145 32q162 0 252 -133v527h201v-1365h-188v106q-96 -135 -270 -135q-178 0 -279 147q-97 142 -97 355zM273 479q0 -145 55 -242q57 -98 160 -98q106 0 164 98q53 90 53 234q0 160 -62 248q-58 84 -155 84q-98 0 -153 -84 q-62 -93 -62 -240z" />
<glyph unicode="e" horiz-adv-x="944" vert-adv-y="1433" d="M68 461q0 214 110 361q112 149 297 149q150 0 255 -100q146 -141 147 -451h-608q3 -90 26 -150q55 -143 191 -143q98 0 148 77q19 30 35 78h190q-17 -78 -56 -141q-107 -170 -319 -170q-196 0 -308 143q-108 137 -108 347zM272 561h403q-6 81 -34 139q-56 115 -167 115 q-106 0 -160 -102q-32 -61 -42 -152z" />
<glyph unicode="f" horiz-adv-x="537" vert-adv-y="1433" d="M18 786v156h134v129q0 166 48 232q67 93 212 93q38 0 106 -13v-168q-44 13 -71 13q-63 0 -81 -45q-13 -29 -13 -116v-125h153v-156h-151v-786h-203v786h-134z" />
<glyph unicode="g" horiz-adv-x="998" vert-adv-y="1433" d="M67 481q0 223 104 357q104 133 273 133q162 0 248 -139v110h189v-763q0 -149 -16 -226q-66 -308 -396 -308q-337 0 -371 276h203q24 -127 172 -127q124 0 171 93q40 80 40 211v49q-82 -139 -251 -139q-167 0 -265 126q-101 131 -101 347zM272 484q0 -158 71 -243 q55 -65 134 -65q91 0 145 78q64 93 64 242q0 160 -73 243q-55 62 -135 62q-93 0 -144 -75q-62 -90 -62 -242z" />
<glyph unicode="h" horiz-adv-x="973" vert-adv-y="1433" d="M117 0v1365h201v-534q92 140 252 140q105 0 178 -53q80 -58 101 -166q11 -55 11 -146v-606h-201v575q0 113 -23 157q-38 71 -127 71q-102 0 -154 -96q-23 -43 -32 -107q-5 -43 -5 -146v-454h-201z" />
<glyph unicode="i" horiz-adv-x="442" vert-adv-y="1433" d="M121 0v942h201v-942h-201zM121 1160v205h201v-205h-201z" />
<glyph unicode="j" horiz-adv-x="440" vert-adv-y="1433" d="M-18 -183q29 -6 50 -6q67 0 81 66q6 29 6 107v958h201v-931q0 -185 -30 -250q-27 -57 -85 -87q-58 -29 -129 -29q-36 0 -77 4l-17 2v166zM119 1160v205h201v-205h-201z" />
<glyph unicode="k" horiz-adv-x="908" vert-adv-y="1433" d="M117 0v1365h201v-762l315 339h234l-334 -348l366 -594h-235l-268 452l-78 -82v-370h-201z" />
<glyph unicode="l" horiz-adv-x="442" vert-adv-y="1433" d="M121 0v1365h201v-1365h-201z" />
<glyph unicode="m" horiz-adv-x="1444" vert-adv-y="1433" d="M117 0v942h189v-114q97 143 252 143q165 0 230 -151q99 151 265 151q97 0 169 -53q109 -80 109 -275v-643h-201v579q0 102 -15 142q-30 82 -120 82q-112 0 -153 -120q-17 -47 -17 -177v-506h-201v591q0 119 -28 161q-34 51 -100 51t-115 -52q-47 -49 -58 -137 q-5 -42 -5 -108v-506h-201z" />
<glyph unicode="n" horiz-adv-x="973" vert-adv-y="1433" d="M117 0v942h189v-119q96 148 266 148q108 0 186 -62q78 -63 96 -180q6 -43 6 -127v-602h-201v549q0 108 -14 158q-12 43 -46 69q-36 27 -88 27q-85 0 -139 -70q-36 -47 -47 -124q-7 -48 -7 -136v-473h-201z" />
<glyph unicode="o" horiz-adv-x="986" vert-adv-y="1433" d="M68 478q0 204 103 340q117 153 325 153q192 0 309 -137q114 -133 114 -363q0 -243 -128 -380q-112 -120 -295 -120q-203 0 -318 143q-110 137 -110 364zM273 476q0 -163 62 -253q58 -84 161 -84q94 0 149 74q69 92 69 261q0 156 -60 243q-60 86 -160 86t-158 -85 q-63 -92 -63 -242z" />
<glyph unicode="p" horiz-adv-x="1018" vert-adv-y="1433" d="M117 -355v1297h189v-106q92 135 269 135q178 0 279 -147q97 -142 97 -354q0 -228 -106 -364q-105 -135 -275 -135q-163 0 -252 133v-459h-201zM314 475q0 -163 61 -252q58 -84 156 -84t153 84q62 93 62 244q0 143 -55 238q-58 98 -160 98q-106 0 -165 -98 q-52 -88 -52 -230z" />
<glyph unicode="q" horiz-adv-x="1018" vert-adv-y="1433" d="M68 469q0 213 97 355q101 147 279 147q174 0 270 -135v106h188v-1297h-201v459q-90 -133 -253 -133q-172 0 -275 135q-105 136 -105 363zM273 471q0 -155 62 -248q55 -84 153 -84t155 84q62 90 62 248q0 147 -53 234q-59 98 -164 98q-103 0 -160 -98q-55 -97 -55 -234z " />
<glyph unicode="r" horiz-adv-x="623" vert-adv-y="1433" d="M117 0v942h189v-156q86 185 265 185q10 0 42 -2v-205q-48 6 -71 6q-134 0 -193 -135q-31 -73 -31 -254v-381h-201z" />
<glyph unicode="s" horiz-adv-x="849" vert-adv-y="1433" d="M67 267h200q10 -66 39 -97q43 -47 127 -47q79 0 120 42q33 35 33 90q0 81 -86 121q-32 16 -163 47q-257 62 -257 273q0 122 89 198q90 77 239 77q204 0 297 -125q41 -56 50 -145h-200q-18 119 -151 119q-63 0 -100 -32q-37 -31 -37 -82q0 -56 41 -85q33 -23 122 -43 q157 -36 216 -68q145 -76 145 -234q0 -135 -99 -222q-93 -83 -259 -83q-324 0 -366 296z" />
<glyph unicode="t" horiz-adv-x="546" vert-adv-y="1433" d="M18 786v156h134v117l147 196h56v-313h160v-156h-162v-492q0 -83 11 -105q19 -38 78 -38q31 0 73 14v-165q-51 -21 -137 -21q-145 0 -193 88q-29 53 -29 207v512h-138z" />
<glyph unicode="u" horiz-adv-x="973" vert-adv-y="1433" d="M113 340v602h201v-549q0 -108 14 -158q12 -43 46 -69q36 -27 88 -27q85 0 139 70q36 47 47 124q7 48 7 136v473h201v-942h-189v119q-96 -148 -265 -148q-112 0 -188 61q-76 62 -94 181q-7 43 -7 127z" />
<glyph unicode="v" horiz-adv-x="832" vert-adv-y="1433" d="M6 942h217l200 -708l196 708h207l-296 -942h-222z" />
<glyph unicode="w" horiz-adv-x="1243" vert-adv-y="1433" d="M10 942h214l157 -688l140 688h202l146 -681l158 681h206l-260 -942h-205l-147 675l-143 -675h-207z" />
<glyph unicode="x" horiz-adv-x="852" vert-adv-y="1433" d="M-6 0l310 496l-285 446h239l165 -281l171 281h230l-284 -437l319 -505h-240l-196 339l-196 -339h-233z" />
<glyph unicode="y" horiz-adv-x="850" vert-adv-y="1433" d="M6 942h219l209 -689l200 689h209l-306 -922q-72 -219 -118 -281q-70 -94 -196 -94q-53 0 -134 11v172q66 -13 100 -13q61 0 91 67q38 85 48 139z" />
<glyph unicode="z" horiz-adv-x="824" vert-adv-y="1433" d="M51 0v159l473 615h-441v168h690v-146l-474 -628h498v-168h-746z" />
<glyph unicode="{" horiz-adv-x="558" vert-adv-y="1433" d="M14 430v161q59 14 85 49q29 38 29 116v331q0 166 89 231q48 35 128 43q36 4 105 4h50v-164h-26q-99 0 -132 -29q-30 -25 -34 -73q-3 -29 -3 -62v-294q0 -111 -37 -168q-23 -35 -84 -71q78 -45 103 -112q18 -49 18 -130v-286q0 -82 12 -108q20 -39 65 -50q40 -10 91 -10 h27v-163h-50q-102 0 -150 9q-172 35 -172 279v318q0 94 -30 131q-28 35 -84 48z" />
<glyph unicode="|" vert-adv-y="1433" d="M402 -341v1706h220v-1706h-220z" />
<glyph unicode="}" horiz-adv-x="558" vert-adv-y="1433" d="M58 -192h27q98 0 131 28q30 26 34 73q3 38 3 67v286q0 88 21 138q26 61 100 104q-68 40 -90 81q-31 56 -31 158v294q0 78 -12 103q-19 39 -66 51q-40 10 -91 10h-26v164h50q97 0 146 -10q114 -24 153 -122q23 -57 23 -146v-331q0 -78 29 -116q27 -35 85 -49v-161 q-55 -13 -84 -48q-30 -37 -30 -131v-318q0 -172 -86 -239q-47 -37 -127 -46q-32 -3 -108 -3h-51v163z" />
<glyph unicode="~" horiz-adv-x="1365" vert-adv-y="1433" d="M192 1255q38 85 84 144q84 106 203 106q76 0 230 -74q85 -41 112 -50q41 -14 74 -14q91 0 170 143l111 -91q-44 -97 -87 -149q-85 -102 -200 -102q-48 0 -115 27q-36 14 -109 48q-139 64 -193 64q-63 0 -110 -55q-27 -32 -59 -87z" />
<glyph unicode="&#xa0;" horiz-adv-x="396" vert-adv-y="1433" />
<glyph unicode="&#xa1;" horiz-adv-x="561" vert-adv-y="1433" d="M158 696v246h246v-246h-246zM175 39l57 526h106l50 -524v-396h-213v394z" />
<glyph unicode="&#xa2;" horiz-adv-x="921" vert-adv-y="1433" d="M53 682q0 299 189 433q70 49 161 67v142h141v-139q109 -17 181 -72q113 -86 129 -247h-201q-18 104 -109 145v-642q102 41 123 182h199q-23 -171 -129 -268q-79 -72 -193 -89v-153h-141v154q-100 15 -172 68q-178 134 -178 419zM258 686q0 -252 145 -315v635 q-145 -68 -145 -320z" />
<glyph unicode="&#xa3;" horiz-adv-x="860" vert-adv-y="1433" d="M-7 97q82 67 135 150q74 117 74 241q0 28 -7 67h-191v168h126q-11 18 -33 52q-82 126 -82 248q0 168 123 276q107 93 276 93q264 0 363 -181q47 -85 50 -198h-205q-2 71 -33 122q-52 85 -176 85q-92 0 -138 -57q-50 -64 -50 -150q0 -62 28 -119q20 -42 53 -94 q28 -44 48 -77h296v-168h-236q3 -28 3 -46q0 -68 -26 -130q-22 -52 -57 -96.5t-110 -115.5q111 72 181 72q36 0 94 -36q36 -23 65 -23q82 0 92 144h196q-8 -155 -63 -244q-66 -109 -194 -109q-68 0 -166 44q-78 35 -128 35q-69 0 -158 -46q-21 -10 -57 -31z" />
<glyph unicode="&#xa4;" horiz-adv-x="1365" vert-adv-y="1433" d="M78 1241l111 112l203 -203q143 98 292 98q148 0 287 -96l202 200l110 -111l-200 -200q100 -143 100 -289t-97 -285l202 -202l-110 -111l-202 201q-138 -98 -290 -98q-145 0 -293 98l-202 -201l-110 111l200 201q-97 133 -97 288q0 146 98 285zM369 752q0 -130 92 -222 q93 -92 222 -92q131 0 223 92t92 222q0 133 -92 223q-94 92 -218 92q-135 0 -227 -92t-92 -223z" />
<glyph unicode="&#xa5;" horiz-adv-x="1040" vert-adv-y="1433" d="M48 1365h242l236 -483l233 483h234l-362 -702h232v-145h-236v-101h236v-145h-236v-272h-209v272h-240v145h240v101h-240v145h237z" />
<glyph unicode="&#xa6;" vert-adv-y="1433" d="M402 314h220v-655h-220v655zM402 667v698h220v-698h-220z" />
<glyph unicode="&#xa7;" horiz-adv-x="975" vert-adv-y="1433" d="M69 614q0 138 90 223q37 34 82 51q-72 88 -72 195q0 123 74 208q93 105 252 105q120 0 204 -65q61 -47 90 -125q30 -81 31 -154v5h-183q-10 167 -144 167q-53 0 -89 -30q-43 -38 -43 -104q0 -55 30 -92t133 -103q195 -125 259 -179q122 -103 122 -249q0 -134 -82 -226 q-34 -39 -87 -66q33 -35 48 -59q42 -67 42 -161q0 -144 -101 -240q-89 -84 -232 -84q-151 0 -243 86q-101 94 -105 269h185q16 -179 164 -179q72 0 110 50q29 39 29 92q0 47 -27 89q-37 56 -287 216q-132 84 -181 146q-69 87 -69 214zM245 631q0 -75 71 -135 q48 -41 188 -133q45 -29 67 -46q41 -31 59 -41q33 14 60 53q35 50 35 106q0 76 -70 133q-68 55 -249 169l-51 35l-15 10q-29 -14 -56 -42q-39 -43 -39 -109z" />
<glyph unicode="&#xa8;" vert-adv-y="1433" d="M253 1106v205h192v-205h-192zM578 1106v205h192v-205h-192z" />
<glyph unicode="&#xa9;" horiz-adv-x="1412" vert-adv-y="1433" d="M68 680q0 204 99 379q92 162 249 250q138 77 299 77q181 0 338 -113q144 -104 222 -273q68 -151 68 -319q0 -285 -183 -491q-186 -210 -456 -210q-265 0 -449 205q-85 94 -134 218q-53 135 -53 277zM192 681q0 -164 78 -308q78 -143 209 -216q105 -59 226 -59 q217 0 368 175q147 171 147 408q0 245 -150 416q-65 74 -147 117q-102 54 -209 54q-218 0 -368 -168q-70 -77 -110 -182q-44 -114 -44 -237zM369 681q0 169 79 287q95 143 262 143q153 0 240 -121q54 -75 61 -178h-157q-27 160 -147 160q-82 0 -126 -73q-52 -87 -52 -217 q0 -127 50 -213q43 -75 126 -75q130 0 153 210h157q-9 -143 -72 -229q-87 -120 -238 -120q-150 0 -239 110q-97 120 -97 316z" />
<glyph unicode="&#xaa;" horiz-adv-x="559" vert-adv-y="1433" d="M26 703q0 92 71 145q53 40 148 49q39 5 110 6v33q0 82 -84 82q-49 0 -70 -30q-12 -18 -16 -64h-139q11 212 231 212q121 0 180 -69q30 -34 37 -91q2 -21 2 -83v-206q0 -29 5 -33q6 -5 15 -5q12 0 31 14v-105q-44 -26 -90 -26q-59 0 -85 51q-66 -54 -154 -54 q-76 0 -128 40q-64 49 -64 134zM176 708q0 -63 72 -63q56 0 86 54q21 36 21 81v29q-60 -4 -98 -13q-81 -21 -81 -88z" />
<glyph unicode="&#xab;" horiz-adv-x="769" vert-adv-y="1433" d="M88 409v206l262 243v-204l-155 -140l155 -143v-210zM402 406v209l259 244v-208l-152 -139l152 -142v-207z" />
<glyph unicode="&#xac;" vert-adv-y="1433" d="M68 387v192h887v-579h-213v387h-674z" />
<glyph unicode="&#xad;" horiz-adv-x="433" vert-adv-y="1433" d="M6 414v197h421v-197h-421z" />
<glyph unicode="&#xae;" horiz-adv-x="1412" vert-adv-y="1433" d="M68 680q0 204 99 379q92 162 249 250q138 77 299 77q181 0 338 -113q144 -104 222 -273q68 -151 68 -319q0 -285 -183 -491q-186 -210 -456 -210q-265 0 -449 205q-85 94 -134 218q-53 135 -53 277zM192 681q0 -164 78 -308q78 -143 209 -216q105 -59 226 -59 q217 0 368 175q147 171 147 408q0 245 -150 416q-65 74 -147 117q-102 54 -209 54q-218 0 -368 -168q-70 -77 -110 -182q-44 -114 -44 -237zM423 273v819h312q121 0 185 -54q77 -66 77 -179q0 -127 -107 -193q55 -34 73 -83q16 -44 25 -181q6 -83 42 -129h-170 q-12 23 -16 36q-6 21 -10 94q-9 134 -36 165q-29 32 -111 32h-104v-327h-160zM583 729h103q81 0 109 19q42 29 42 96q0 70 -48 97q-26 14 -88 14h-118v-226z" />
<glyph unicode="&#xaf;" vert-adv-y="1433" d="M41 1475v173h942v-173h-942z" />
<glyph unicode="&#xb0;" vert-adv-y="1433" d="M211 1074q0 120 88 204q91 87 213 87q125 0 214 -86q88 -86 88 -209q0 -122 -87 -208q-89 -88 -214 -88q-126 0 -214 88q-88 86 -88 212zM350 1072q0 -71 47 -119q48 -49 116 -49q67 0 115 49q47 48 47 117q0 70 -48 116q-49 49 -115 49t-115 -49q-47 -47 -47 -114z" />
<glyph unicode="&#xb1;" vert-adv-y="1433" d="M41 0v173h942v-173h-942zM41 623v180h381v355h181v-355h380v-173h-380v-354h-188v347h-374z" />
<glyph unicode="&#xb2;" horiz-adv-x="562" vert-adv-y="1433" d="M19 1105q2 87 30 143q67 135 226 135q124 0 200 -80q59 -63 59 -165q0 -115 -90 -203q-42 -41 -146 -111q-102 -68 -118 -137h346v-141h-506q-1 129 28 198q29 70 100 133q33 29 117 86q109 74 109 172q0 40 -18 68q-28 40 -83 40q-98 0 -98 -138h-156z" />
<glyph unicode="&#xb3;" horiz-adv-x="566" vert-adv-y="1433" d="M18 793v24h151q2 -58 14 -89q21 -50 86 -50q49 0 77 28q32 33 32 93q0 125 -113 125q-11 0 -53 -2v126q21 -1 29 -1q62 0 86 23q29 29 29 83t-34 79q-21 16 -52 16q-83 0 -87 -122h-150q3 103 43 164q65 99 199 99q109 0 174 -66q62 -62 62 -159q0 -108 -88 -166 q114 -65 114 -201q0 -116 -76 -189q-74 -71 -190 -71q-159 0 -224 125q-29 56 -29 131z" />
<glyph unicode="&#xb4;" vert-adv-y="1433" d="M407 1092l170 273h180l-186 -273h-164z" />
<glyph unicode="&#xb5;" horiz-adv-x="973" vert-adv-y="1433" d="M113 -355v1297h201v-549q0 -108 14 -158q12 -43 46 -69q36 -27 88 -27q85 0 139 70q36 47 47 124q7 48 7 136v473h201v-942h-189v119q-96 -148 -251 -148q-56 0 -102 28v-354h-201z" />
<glyph unicode="&#xb6;" horiz-adv-x="1172" vert-adv-y="1433" d="M49 1001q0 121 55 211q61 101 183 133q77 20 169 20h569v-156h-135v-1405h-172v1405h-153v-1405h-172v846h-26q-127 0 -214 80q-104 96 -104 271z" />
<glyph unicode="&#xb7;" horiz-adv-x="504" vert-adv-y="1433" d="M129 355v246h246v-246h-246z" />
<glyph unicode="&#xb8;" horiz-adv-x="1036" vert-adv-y="1433" d="M342 -299h107q8 -31 56 -31q72 0 72 77q0 36 -20 59q-19 21 -52 21q-42 0 -53 -27h-107l75 200h95l-40 -108q21 12 46 12q57 0 105 -31q64 -41 64 -122q0 -69 -46 -113q-50 -48 -138 -48q-95 0 -140 56q-20 25 -24 55z" />
<glyph unicode="&#xb9;" horiz-adv-x="449" vert-adv-y="1433" d="M27 1085v132q93 2 128 41q29 33 39 107h118v-819h-150v569q-45 -30 -111 -30h-24z" />
<glyph unicode="&#xba;" horiz-adv-x="582" vert-adv-y="1433" d="M26 837q0 124 64 206q73 94 202 94q120 0 193 -84q70 -81 70 -220q0 -148 -79 -230q-71 -74 -184 -74q-126 0 -198 88q-68 83 -68 220zM174 836q0 -90 34 -139q30 -43 84 -43q49 0 77 37q38 50 38 143q0 87 -33 134q-31 44 -83 44t-82 -43q-35 -50 -35 -133z" />
<glyph unicode="&#xbb;" horiz-adv-x="769" vert-adv-y="1433" d="M109 163v204l152 139l-152 142v208l258 -244v-206zM420 160v205l155 139l-155 145v210l262 -250v-206z" />
<glyph unicode="&#xbc;" horiz-adv-x="1345" vert-adv-y="1433" d="M27 1085v132q93 2 128 41q29 33 39 107h118v-819h-150v569q-45 -30 -111 -30h-24zM281 0l588 1365h149l-585 -1365h-152zM805 194v140l288 485h131v-493h86v-132h-86v-194h-140v194h-279zM940 326h144v261z" />
<glyph unicode="&#xbd;" horiz-adv-x="1413" vert-adv-y="1433" d="M27 1085v132q93 2 128 41q29 33 39 107h118v-819h-150v569q-45 -30 -111 -30h-24zM281 0l588 1365h149l-585 -1365h-152zM870 559q3 89 30 143q67 135 226 135q124 0 200 -80q59 -63 59 -165q0 -115 -90 -203q-43 -42 -145 -111q-103 -68 -119 -137h346v-141h-506 q-1 129 28 198t100 133q34 29 117 86q109 74 109 172q0 40 -18 68q-28 40 -83 40q-98 0 -98 -138h-156z" />
<glyph unicode="&#xbe;" horiz-adv-x="1454" vert-adv-y="1433" d="M18 793v24h151q2 -58 14 -89q21 -50 86 -50q49 0 77 28q32 33 32 93q0 125 -113 125q-11 0 -53 -2v126q21 -1 29 -1q62 0 86 23q29 29 29 83t-34 79q-21 16 -52 16q-83 0 -87 -122h-150q3 103 43 164q65 99 199 99q109 0 174 -66q62 -62 62 -159q0 -108 -88 -166 q114 -65 114 -201q0 -116 -76 -189q-74 -71 -190 -71q-159 0 -224 125q-29 56 -29 131zM391 0l588 1365h148l-585 -1365h-151zM914 194v140l288 485h131v-493h86v-132h-86v-194h-140v194h-279zM1049 326h144v261z" />
<glyph unicode="&#xbf;" horiz-adv-x="917" vert-adv-y="1433" d="M96 7q0 117 62 196q39 51 129 127q49 42 65 69q32 56 33 156v12h183q1 -85 -9 -141q-15 -79 -68 -137q-17 -20 -97 -97q-52 -51 -69 -91q-18 -45 -18 -92q0 -67 32 -117q45 -71 139 -71q165 0 173 193h194q0 -7 -1 -19q-7 -158 -90 -249q-103 -115 -277 -115 q-173 0 -279 108q-102 103 -102 268zM353 696v246h246v-246h-246z" />
<glyph unicode="&#xc0;" horiz-adv-x="1134" vert-adv-y="1433" d="M10 0l440 1365h235l438 -1365h-236l-107 366h-431l-108 -366h-231zM319 1734h187l169 -259h-171zM402 546h325l-161 552z" />
<glyph unicode="&#xc1;" horiz-adv-x="1134" vert-adv-y="1433" d="M10 0l440 1365h235l438 -1365h-236l-107 366h-431l-108 -366h-231zM402 546h325l-161 552zM458 1475l170 259h186l-185 -259h-171z" />
<glyph unicode="&#xc2;" horiz-adv-x="1134" vert-adv-y="1433" d="M10 0l440 1365h235l438 -1365h-236l-107 366h-431l-108 -366h-231zM287 1475l183 259h194l184 -259h-180l-101 148l-100 -148h-180zM402 546h325l-161 552z" />
<glyph unicode="&#xc3;" horiz-adv-x="1134" vert-adv-y="1433" d="M10 0l440 1365h235l438 -1365h-236l-107 366h-431l-108 -366h-231zM259 1481q34 232 196 232q46 0 93 -23q16 -8 60 -35q48 -30 76 -30q53 0 75 88h116q-36 -232 -190 -232q-57 0 -162 61q-52 30 -78 30q-53 0 -71 -91h-115zM402 546h325l-161 552z" />
<glyph unicode="&#xc4;" horiz-adv-x="1134" vert-adv-y="1433" d="M10 0l440 1365h235l438 -1365h-236l-107 366h-431l-108 -366h-231zM308 1447v205h192v-205h-192zM402 546h325l-161 552zM633 1447v205h192v-205h-192z" />
<glyph unicode="&#xc5;" horiz-adv-x="1134" vert-adv-y="1433" d="M10 0l440 1365h235l438 -1365h-236l-107 366h-431l-108 -366h-231zM369 1629q0 84 59 141q58 56 140 56q79 0 136 -57q57 -58 57 -140q0 -79 -56 -136q-58 -59 -140 -59t-139 57q-57 58 -57 138zM402 546h325l-161 552zM473 1627q0 -42 28 -71q27 -29 66 -29q40 0 68 30 q27 29 27 70t-28 71q-27 29 -65 29q-40 0 -68 -29t-28 -71z" />
<glyph unicode="&#xc6;" horiz-adv-x="1590" vert-adv-y="1433" d="M12 0l569 1365h917v-193h-598v-370h553v-193h-553v-416h608v-193h-819v366h-298l-145 -366h-234zM463 546h226v567z" />
<glyph unicode="&#xc7;" horiz-adv-x="1180" vert-adv-y="1433" d="M73 679q0 283 130 481q154 236 426 236q244 0 387 -199q83 -116 97 -269h-222q-19 110 -69 176q-77 100 -199 100q-153 0 -234 -138q-91 -156 -91 -386q0 -225 87 -379q80 -141 234 -141q241 0 280 363h222q-14 -259 -170 -422q-118 -123 -307 -133l-28 -76q21 12 46 12 q57 0 106 -31q65 -41 65 -122q0 -69 -47 -113q-50 -48 -139 -48q-96 0 -142 56q-20 25 -24 55h108q10 -31 57 -31q73 0 73 77q0 36 -20 59q-19 21 -53 21q-42 0 -54 -27h-108l65 172q-151 20 -257 114q-100 89 -157 235q-62 158 -62 358z" />
<glyph unicode="&#xc8;" horiz-adv-x="1039" vert-adv-y="1433" d="M125 0v1365h823v-193h-598v-370h553v-193h-553v-416h608v-193h-833zM272 1734h187l169 -259h-171z" />
<glyph unicode="&#xc9;" horiz-adv-x="1039" vert-adv-y="1433" d="M125 0v1365h823v-193h-598v-370h553v-193h-553v-416h608v-193h-833zM412 1475l170 259h186l-185 -259h-171z" />
<glyph unicode="&#xca;" horiz-adv-x="1039" vert-adv-y="1433" d="M125 0v1365h823v-193h-598v-370h553v-193h-553v-416h608v-193h-833zM240 1475l183 259h194l184 -259h-180l-101 148l-100 -148h-180z" />
<glyph unicode="&#xcb;" horiz-adv-x="1039" vert-adv-y="1433" d="M125 0v1365h823v-193h-598v-370h553v-193h-553v-416h608v-193h-833zM262 1447v205h192v-205h-192zM587 1447v205h192v-205h-192z" />
<glyph unicode="&#xcc;" horiz-adv-x="477" vert-adv-y="1433" d="M-8 1734h187l169 -259h-171zM127 0v1365h225v-1365h-225z" />
<glyph unicode="&#xcd;" horiz-adv-x="477" vert-adv-y="1433" d="M125 0v1365h225v-1365h-225zM129 1475l170 259h186l-185 -259h-171z" />
<glyph unicode="&#xce;" horiz-adv-x="479" vert-adv-y="1433" d="M-41 1475l183 259h194l184 -259h-180l-101 148l-100 -148h-180zM127 0v1365h225v-1365h-225z" />
<glyph unicode="&#xcf;" horiz-adv-x="479" vert-adv-y="1433" d="M14 1447v205h192v-205h-192zM128 0v1365h225v-1365h-225zM274 1447v205h192v-205h-192z" />
<glyph unicode="&#xd0;" horiz-adv-x="1196" vert-adv-y="1433" d="M0 609v193h125v563h419q273 0 413 -153q166 -182 166 -520q0 -397 -216 -585q-82 -72 -190 -94q-65 -13 -162 -13h-430v609h-125zM350 188h174q107 0 161 21q100 38 159 169q54 123 54 314q0 262 -117 387q-53 56 -119 79q-54 19 -135 19h-177v-375h273v-193h-273v-421z " />
<glyph unicode="&#xd1;" horiz-adv-x="1198" vert-adv-y="1433" d="M125 0v1365h231l508 -1012v1012h209v-1365h-233l-506 1007v-1007h-209zM291 1481q34 232 196 232q46 0 93 -23q16 -8 60 -35q48 -30 76 -30q53 0 75 88h116q-36 -232 -190 -232q-57 0 -162 61q-52 30 -78 30q-53 0 -71 -91h-115z" />
<glyph unicode="&#xd2;" horiz-adv-x="1260" vert-adv-y="1433" d="M73 692q0 320 160 513q158 191 399 191q238 0 391 -186q164 -202 164 -527q0 -284 -126 -479q-75 -116 -191 -178q-109 -59 -238 -59q-279 0 -436 241q-123 189 -123 484zM298 694q0 -237 84 -383q44 -77 124 -120q59 -32 128 -32q92 0 168 61q83 66 126 207 q34 112 34 257q0 233 -90 377q-89 143 -242 143q-150 0 -239 -139q-93 -145 -93 -371zM382 1734h187l169 -259h-171z" />
<glyph unicode="&#xd3;" horiz-adv-x="1260" vert-adv-y="1433" d="M73 692q0 320 160 513q158 191 399 191q238 0 391 -186q164 -202 164 -527q0 -284 -126 -479q-75 -116 -191 -178q-109 -59 -238 -59q-279 0 -436 241q-123 189 -123 484zM298 694q0 -237 84 -383q44 -77 124 -120q59 -32 128 -32q92 0 168 61q83 66 126 207 q34 112 34 257q0 233 -90 377q-89 143 -242 143q-150 0 -239 -139q-93 -145 -93 -371zM521 1475l170 259h186l-185 -259h-171z" />
<glyph unicode="&#xd4;" horiz-adv-x="1260" vert-adv-y="1433" d="M73 692q0 320 160 513q158 191 399 191q238 0 391 -186q164 -202 164 -527q0 -284 -126 -479q-75 -116 -191 -178q-109 -59 -238 -59q-279 0 -436 241q-123 189 -123 484zM298 694q0 -237 84 -383q44 -77 124 -120q59 -32 128 -32q92 0 168 61q83 66 126 207 q34 112 34 257q0 233 -90 377q-89 143 -242 143q-150 0 -239 -139q-93 -145 -93 -371zM350 1475l183 259h194l184 -259h-180l-101 148l-100 -148h-180z" />
<glyph unicode="&#xd5;" horiz-adv-x="1260" vert-adv-y="1433" d="M73 692q0 320 160 513q158 191 399 191q238 0 391 -186q164 -202 164 -527q0 -284 -126 -479q-75 -116 -191 -178q-109 -59 -238 -59q-279 0 -436 241q-123 189 -123 484zM298 694q0 -237 84 -383q44 -77 124 -120q59 -32 128 -32q92 0 168 61q83 66 126 207 q34 112 34 257q0 233 -90 377q-89 143 -242 143q-150 0 -239 -139q-93 -145 -93 -371zM322 1481q34 232 196 232q46 0 93 -23q16 -8 60 -35q48 -30 76 -30q53 0 75 88h116q-36 -232 -190 -232q-57 0 -162 61q-52 30 -78 30q-53 0 -71 -91h-115z" />
<glyph unicode="&#xd6;" horiz-adv-x="1260" vert-adv-y="1433" d="M73 692q0 320 160 513q158 191 399 191q238 0 391 -186q164 -202 164 -527q0 -284 -126 -479q-75 -116 -191 -178q-109 -59 -238 -59q-279 0 -436 241q-123 189 -123 484zM298 694q0 -237 84 -383q44 -77 124 -120q59 -32 128 -32q92 0 168 61q83 66 126 207 q34 112 34 257q0 233 -90 377q-89 143 -242 143q-150 0 -239 -139q-93 -145 -93 -371zM371 1447v205h192v-205h-192zM696 1447v205h192v-205h-192z" />
<glyph unicode="&#xd7;" vert-adv-y="1433" d="M118 418l272 272l-272 271l123 123l271 -272l272 272l123 -123l-272 -272l272 -271l-123 -123l-272 272l-271 -272z" />
<glyph unicode="&#xd8;" horiz-adv-x="1260" vert-adv-y="1433" d="M73 682q0 327 160 524q156 191 398 191q158 0 288 -89l53 89h176l-118 -197q157 -202 157 -517q0 -283 -126 -479q-75 -116 -191 -178q-109 -59 -239 -59q-157 0 -288 88l-53 -88h-178l117 196q-156 201 -156 519zM298 687q0 -187 59 -329l449 781q-80 65 -176 65 q-150 0 -239 -139q-93 -145 -93 -378zM457 224q83 -64 176 -64t168 61q85 67 127 207q34 112 34 256q0 184 -60 320z" />
<glyph unicode="&#xd9;" horiz-adv-x="1176" vert-adv-y="1433" d="M109 597v768h225v-781q0 -145 14 -212q44 -213 245 -213q162 0 217 139q33 84 33 286v781h225v-772q0 -171 -18 -256q-81 -370 -461 -370q-278 0 -400 205q-51 85 -68 201q-12 81 -12 224zM341 1734h187l169 -259h-171z" />
<glyph unicode="&#xda;" horiz-adv-x="1176" vert-adv-y="1433" d="M109 597v768h225v-781q0 -145 14 -212q44 -213 245 -213q162 0 217 139q33 84 33 286v781h225v-772q0 -171 -18 -256q-81 -370 -461 -370q-278 0 -400 205q-51 85 -68 201q-12 81 -12 224zM480 1475l170 259h186l-185 -259h-171z" />
<glyph unicode="&#xdb;" horiz-adv-x="1176" vert-adv-y="1433" d="M109 597v768h225v-781q0 -145 14 -212q44 -213 245 -213q162 0 217 139q33 84 33 286v781h225v-772q0 -171 -18 -256q-81 -370 -461 -370q-278 0 -400 205q-51 85 -68 201q-12 81 -12 224zM308 1475l183 259h194l184 -259h-180l-101 148l-100 -148h-180z" />
<glyph unicode="&#xdc;" horiz-adv-x="1176" vert-adv-y="1433" d="M109 597v768h225v-781q0 -145 14 -212q44 -213 245 -213q162 0 217 139q33 84 33 286v781h225v-772q0 -171 -18 -256q-81 -370 -461 -370q-278 0 -400 205q-51 85 -68 201q-12 81 -12 224zM330 1447v205h192v-205h-192zM655 1447v205h192v-205h-192z" />
<glyph unicode="&#xdd;" horiz-adv-x="1040" vert-adv-y="1433" d="M-18 1365h253l291 -597l288 597h245l-424 -822v-543h-225v545zM412 1475l170 259h186l-185 -259h-171z" />
<glyph unicode="&#xde;" horiz-adv-x="1050" vert-adv-y="1433" d="M125 0v1365h225v-232h162q146 0 225 -28q125 -44 191 -168q49 -91 49 -221q0 -223 -139 -338q-61 -50 -136 -70q-64 -16 -164 -16h-188v-292h-225zM350 484h157q129 0 181 51q64 63 64 177q0 132 -90 190q-50 32 -173 32h-139v-450z" />
<glyph unicode="&#xdf;" horiz-adv-x="957" vert-adv-y="1433" d="M7 786v156h112q2 149 22 217q39 131 150 192q82 45 187 45q142 0 233 -81q92 -82 92 -203q0 -67 -32 -124q-14 -25 -74 -98q-50 -60 -50 -110q0 -42 24 -85q14 -27 67 -82q68 -71 99 -123q52 -84 52 -183q0 -166 -135 -260q-95 -67 -235 -67q-65 0 -122 20v171 q60 -27 119 -27q74 0 118 40q50 45 50 123q0 68 -37 135q-19 35 -85 112q-57 68 -78 109q-26 49 -26 95q0 67 74 175q66 98 66 167q0 52 -34 88q-37 40 -99 40q-86 0 -123 -84q-22 -50 -22 -200v-944h-201v786h-112z" />
<glyph unicode="&#xe0;" horiz-adv-x="948" vert-adv-y="1433" d="M68 247q0 146 111 232q83 64 239 80q68 7 208 11v78q0 167 -165 167q-151 0 -167 -163h-191q8 149 97 231q97 88 272 88q194 0 287 -111q46 -53 56 -145q4 -35 4 -140v-356q0 -52 8 -67q11 -21 39 -21q17 0 39 11v-142q-57 -25 -126 -25q-65 0 -98 32q-23 24 -39 76 q-104 -112 -272 -112q-121 0 -202 64q-100 77 -100 212zM230 1365h180l170 -273h-165zM277 256q0 -64 42 -100q38 -32 103 -32q108 0 166 104q38 68 38 151v75q-124 -6 -194 -24q-71 -18 -110 -61q-45 -48 -45 -113z" />
<glyph unicode="&#xe1;" horiz-adv-x="948" vert-adv-y="1433" d="M68 247q0 146 111 232q83 64 239 80q68 7 208 11v78q0 167 -165 167q-151 0 -167 -163h-191q8 149 97 231q97 88 272 88q194 0 287 -111q46 -53 56 -145q4 -35 4 -140v-356q0 -52 8 -67q11 -21 39 -21q17 0 39 11v-142q-57 -25 -126 -25q-65 0 -98 32q-23 24 -39 76 q-104 -112 -272 -112q-121 0 -202 64q-100 77 -100 212zM277 256q0 -64 42 -100q38 -32 103 -32q108 0 166 104q38 68 38 151v75q-124 -6 -194 -24q-71 -18 -110 -61q-45 -48 -45 -113zM369 1092l170 273h180l-186 -273h-164z" />
<glyph unicode="&#xe2;" horiz-adv-x="948" vert-adv-y="1433" d="M68 247q0 146 111 232q83 64 239 80q68 7 208 11v78q0 167 -165 167q-151 0 -167 -163h-191q8 149 97 231q97 88 272 88q194 0 287 -111q46 -53 56 -145q4 -35 4 -140v-356q0 -52 8 -67q11 -21 39 -21q17 0 39 11v-142q-57 -25 -126 -25q-65 0 -98 32q-23 24 -39 76 q-104 -112 -272 -112q-121 0 -202 64q-100 77 -100 212zM227 1092l158 273h178l160 -273h-168l-84 153l-87 -153h-157zM277 256q0 -64 42 -100q38 -32 103 -32q108 0 166 104q38 68 38 151v75q-124 -6 -194 -24q-71 -18 -110 -61q-45 -48 -45 -113z" />
<glyph unicode="&#xe3;" horiz-adv-x="948" vert-adv-y="1433" d="M68 247q0 146 111 232q83 64 239 80q68 7 208 11v78q0 167 -165 167q-151 0 -167 -163h-191q8 149 97 231q97 88 272 88q194 0 287 -111q46 -53 56 -145q4 -35 4 -140v-356q0 -52 8 -67q11 -21 39 -21q17 0 39 11v-142q-57 -25 -126 -25q-65 0 -98 32q-23 24 -39 76 q-104 -112 -272 -112q-121 0 -202 64q-100 77 -100 212zM185 1106q6 67 26 119q29 72 82 105q37 24 78 24q49 0 102 -29l70 -39q21 -12 40 -12q43 0 58 91h122q-9 -76 -29 -126q-49 -122 -152 -122q-50 0 -148 53q-47 26 -68 26q-43 0 -61 -90h-120zM277 256q0 -64 42 -100 q38 -32 103 -32q108 0 166 104q38 68 38 151v75q-124 -6 -194 -24q-71 -18 -110 -61q-45 -48 -45 -113z" />
<glyph unicode="&#xe4;" horiz-adv-x="948" vert-adv-y="1433" d="M68 247q0 146 111 232q83 64 239 80q68 7 208 11v78q0 167 -165 167q-151 0 -167 -163h-191q8 149 97 231q97 88 272 88q194 0 287 -111q46 -53 56 -145q4 -35 4 -140v-356q0 -52 8 -67q11 -21 39 -21q17 0 39 11v-142q-57 -25 -126 -25q-65 0 -98 32q-23 24 -39 76 q-104 -112 -272 -112q-121 0 -202 64q-100 77 -100 212zM216 1106v205h192v-205h-192zM277 256q0 -64 42 -100q38 -32 103 -32q108 0 166 104q38 68 38 151v75q-124 -6 -194 -24q-71 -18 -110 -61q-45 -48 -45 -113zM541 1106v205h192v-205h-192z" />
<glyph unicode="&#xe5;" horiz-adv-x="948" vert-adv-y="1433" d="M68 247q0 146 111 232q83 64 239 80q68 7 208 11v78q0 167 -165 167q-151 0 -167 -163h-191q8 149 97 231q97 88 272 88q194 0 287 -111q46 -53 56 -145q4 -35 4 -140v-356q0 -52 8 -67q11 -21 39 -21q17 0 39 11v-142q-57 -25 -126 -25q-65 0 -98 32q-23 24 -39 76 q-104 -112 -272 -112q-121 0 -202 64q-100 77 -100 212zM277 256q0 -64 42 -100q38 -32 103 -32q108 0 166 104q38 68 38 151v75q-124 -6 -194 -24q-71 -18 -110 -61q-45 -48 -45 -113zM278 1258q0 83 58 139q57 55 139 55q77 0 133 -56q57 -57 57 -138q0 -79 -55 -135 q-57 -58 -139 -58q-81 0 -136 56q-57 57 -57 137zM380 1255q0 -41 28 -71q27 -29 66 -29q40 0 68 30q27 29 27 70q0 42 -28 72q-27 29 -65 29q-40 0 -68 -29t-28 -72z" />
<glyph unicode="&#xe6;" horiz-adv-x="1458" vert-adv-y="1433" d="M68 247q0 144 108 226q82 62 233 77q64 7 203 11v87q0 167 -157 167q-146 0 -161 -163h-191q6 148 93 231q93 88 262 88q194 0 284 -122q107 122 262 122q143 0 244 -99q142 -139 142 -445h-594q3 -92 25 -153q53 -147 186 -147q126 0 175 155h191q-17 -78 -55 -140 q-106 -171 -312 -171q-199 0 -310 173q-45 -54 -92 -93q-97 -80 -229 -80q-122 0 -205 64q-102 77 -102 212zM277 253q0 -62 40 -98q36 -32 98 -32q104 0 160 104q37 67 37 152v55q-120 -6 -186 -22q-149 -36 -149 -159zM799 561h390q-6 82 -33 140q-55 115 -161 115 q-103 0 -155 -103q-31 -60 -41 -152z" />
<glyph unicode="&#xe7;" horiz-adv-x="921" vert-adv-y="1433" d="M68 464q0 222 107 357q118 150 315 150q191 0 293 -132q60 -77 71 -192h-200q-10 54 -34 89q-47 67 -131 67q-106 0 -162 -96q-54 -91 -54 -239q0 -152 58 -244q54 -85 153 -85q103 0 153 95q22 40 30 99h199q-22 -171 -126 -268q-100 -93 -265 -94l-29 -79q20 12 45 12 q56 0 103 -31q63 -41 63 -122q0 -70 -45 -113q-49 -48 -136 -48q-93 0 -137 56q-19 24 -24 55h105q9 -31 55 -31q71 0 71 77q0 36 -20 59q-18 21 -51 21q-40 0 -52 -27h-105l66 181q-80 18 -141 64q-175 133 -175 419z" />
<glyph unicode="&#xe8;" horiz-adv-x="944" vert-adv-y="1433" d="M68 461q0 214 110 361q112 149 297 149q150 0 255 -100q146 -141 147 -451h-608q3 -90 26 -150q55 -143 191 -143q98 0 148 77q19 30 35 78h190q-17 -78 -56 -141q-107 -170 -319 -170q-196 0 -308 143q-108 137 -108 347zM228 1365h180l170 -273h-165zM272 561h403 q-6 81 -34 139q-56 115 -167 115q-106 0 -160 -102q-32 -61 -42 -152z" />
<glyph unicode="&#xe9;" horiz-adv-x="944" vert-adv-y="1433" d="M68 461q0 214 110 361q112 149 297 149q150 0 255 -100q146 -141 147 -451h-608q3 -90 26 -150q55 -143 191 -143q98 0 148 77q19 30 35 78h190q-17 -78 -56 -141q-107 -170 -319 -170q-196 0 -308 143q-108 137 -108 347zM272 561h403q-6 81 -34 139q-56 115 -167 115 q-106 0 -160 -102q-32 -61 -42 -152zM367 1092l170 273h180l-186 -273h-164z" />
<glyph unicode="&#xea;" horiz-adv-x="944" vert-adv-y="1433" d="M68 461q0 214 110 361q112 149 297 149q150 0 255 -100q146 -141 147 -451h-608q3 -90 26 -150q55 -143 191 -143q98 0 148 77q19 30 35 78h190q-17 -78 -56 -141q-107 -170 -319 -170q-196 0 -308 143q-108 137 -108 347zM225 1092l158 273h178l160 -273h-168l-84 153 l-87 -153h-157zM272 561h403q-6 81 -34 139q-56 115 -167 115q-106 0 -160 -102q-32 -61 -42 -152z" />
<glyph unicode="&#xeb;" horiz-adv-x="944" vert-adv-y="1433" d="M68 461q0 214 110 361q112 149 297 149q150 0 255 -100q146 -141 147 -451h-608q3 -90 26 -150q55 -143 191 -143q98 0 148 77q19 30 35 78h190q-17 -78 -56 -141q-107 -170 -319 -170q-196 0 -308 143q-108 137 -108 347zM214 1106v205h192v-205h-192zM272 561h403 q-6 81 -34 139q-56 115 -167 115q-106 0 -160 -102q-32 -61 -42 -152zM539 1106v205h192v-205h-192z" />
<glyph unicode="&#xec;" horiz-adv-x="446" vert-adv-y="1433" d="M-21 1365h180l170 -273h-165zM123 0v942h201v-942h-201z" />
<glyph unicode="&#xed;" horiz-adv-x="446" vert-adv-y="1433" d="M118 1092l170 273h180l-186 -273h-164zM123 0v942h201v-942h-201z" />
<glyph unicode="&#xee;" horiz-adv-x="446" vert-adv-y="1433" d="M-25 1092l158 273h178l160 -273h-168l-84 153l-87 -153h-157zM123 0v942h201v-942h-201z" />
<glyph unicode="&#xef;" horiz-adv-x="446" vert-adv-y="1433" d="M14 1106v205h165v-205h-165zM123 0v942h201v-942h-201zM268 1106v205h165v-205h-165z" />
<glyph unicode="&#xf0;" horiz-adv-x="986" vert-adv-y="1433" d="M68 471q0 213 103 347q60 76 146 117q77 36 161 36q66 0 132 -31q-72 112 -131 177l-154 -89l-67 117l117 67q-41 32 -92 64l72 118q79 -38 160 -101l174 101l67 -117l-136 -79q80 -82 141 -182q158 -263 158 -542q0 -246 -128 -383q-112 -120 -296 -120q-202 0 -317 143 q-110 137 -110 357zM273 476q0 -163 62 -253q58 -84 161 -84q94 0 149 74q69 92 69 261q0 156 -60 243q-60 86 -160 86t-158 -85q-63 -92 -63 -242z" />
<glyph unicode="&#xf1;" horiz-adv-x="973" vert-adv-y="1433" d="M117 0v942h189v-119q96 148 266 148q108 0 186 -62q78 -63 96 -180q6 -43 6 -127v-602h-201v549q0 108 -14 158q-12 43 -46 69q-36 27 -88 27q-85 0 -139 -70q-36 -47 -47 -124q-7 -48 -7 -136v-473h-201zM198 1106q6 67 26 119q29 72 82 105q37 24 78 24q49 0 102 -29 l70 -39q21 -12 40 -12q43 0 58 91h122q-9 -76 -29 -126q-49 -122 -152 -122q-50 0 -148 53q-47 26 -68 26q-43 0 -61 -90h-120z" />
<glyph unicode="&#xf2;" horiz-adv-x="986" vert-adv-y="1433" d="M68 478q0 204 103 340q117 153 325 153q192 0 309 -137q114 -133 114 -363q0 -243 -128 -380q-112 -120 -295 -120q-203 0 -318 143q-110 137 -110 364zM249 1365h180l170 -273h-165zM273 476q0 -163 62 -253q58 -84 161 -84q94 0 149 74q69 92 69 261q0 156 -60 243 q-60 86 -160 86t-158 -85q-63 -92 -63 -242z" />
<glyph unicode="&#xf3;" horiz-adv-x="986" vert-adv-y="1433" d="M68 478q0 204 103 340q117 153 325 153q192 0 309 -137q114 -133 114 -363q0 -243 -128 -380q-112 -120 -295 -120q-203 0 -318 143q-110 137 -110 364zM273 476q0 -163 62 -253q58 -84 161 -84q94 0 149 74q69 92 69 261q0 156 -60 243q-60 86 -160 86t-158 -85 q-63 -92 -63 -242zM388 1092l170 273h180l-186 -273h-164z" />
<glyph unicode="&#xf4;" horiz-adv-x="986" vert-adv-y="1433" d="M68 478q0 204 103 340q117 153 325 153q192 0 309 -137q114 -133 114 -363q0 -243 -128 -380q-112 -120 -295 -120q-203 0 -318 143q-110 137 -110 364zM246 1092l158 273h178l160 -273h-168l-84 153l-87 -153h-157zM273 476q0 -163 62 -253q58 -84 161 -84q94 0 149 74 q69 92 69 261q0 156 -60 243q-60 86 -160 86t-158 -85q-63 -92 -63 -242z" />
<glyph unicode="&#xf5;" horiz-adv-x="986" vert-adv-y="1433" d="M68 478q0 204 103 340q117 153 325 153q192 0 309 -137q114 -133 114 -363q0 -243 -128 -380q-112 -120 -295 -120q-203 0 -318 143q-110 137 -110 364zM205 1106q6 67 26 119q29 72 82 105q37 24 78 24q49 0 102 -29l70 -39q21 -12 40 -12q43 0 58 91h122 q-9 -76 -29 -126q-49 -122 -152 -122q-50 0 -148 53q-47 26 -68 26q-43 0 -61 -90h-120zM273 476q0 -163 62 -253q58 -84 161 -84q94 0 149 74q69 92 69 261q0 156 -60 243q-60 86 -160 86t-158 -85q-63 -92 -63 -242z" />
<glyph unicode="&#xf6;" horiz-adv-x="986" vert-adv-y="1433" d="M68 478q0 204 103 340q117 153 325 153q192 0 309 -137q114 -133 114 -363q0 -243 -128 -380q-112 -120 -295 -120q-203 0 -318 143q-110 137 -110 364zM235 1106v205h192v-205h-192zM273 476q0 -163 62 -253q58 -84 161 -84q94 0 149 74q69 92 69 261q0 156 -60 243 q-60 86 -160 86t-158 -85q-63 -92 -63 -242zM560 1106v205h192v-205h-192z" />
<glyph unicode="&#xf7;" vert-adv-y="1433" d="M41 603v173h942v-173h-942zM419 248v215h187v-215h-187zM419 916v215h187v-215h-187z" />
<glyph unicode="&#xf8;" horiz-adv-x="986" vert-adv-y="1433" d="M54 -29l112 159q-98 138 -98 342q0 210 103 346q117 153 324 153q122 0 222 -60l42 60h173l-110 -158q97 -133 97 -343q0 -242 -128 -379q-112 -120 -294 -120q-126 0 -225 59l-41 -59h-177zM273 472q0 -91 23 -171l308 466q-55 36 -110 36q-100 0 -158 -85 q-63 -92 -63 -246zM385 173q56 -34 110 -34q95 0 150 74q69 92 69 261q0 87 -23 166z" />
<glyph unicode="&#xf9;" horiz-adv-x="973" vert-adv-y="1433" d="M113 340v602h201v-549q0 -108 14 -158q12 -43 46 -69q36 -27 88 -27q85 0 139 70q36 47 47 124q7 48 7 136v473h201v-942h-189v119q-96 -148 -265 -148q-112 0 -188 61q-76 62 -94 181q-7 43 -7 127zM242 1365h180l170 -273h-165z" />
<glyph unicode="&#xfa;" horiz-adv-x="973" vert-adv-y="1433" d="M113 340v602h201v-549q0 -108 14 -158q12 -43 46 -69q36 -27 88 -27q85 0 139 70q36 47 47 124q7 48 7 136v473h201v-942h-189v119q-96 -148 -265 -148q-112 0 -188 61q-76 62 -94 181q-7 43 -7 127zM381 1092l170 273h180l-186 -273h-164z" />
<glyph unicode="&#xfb;" horiz-adv-x="973" vert-adv-y="1433" d="M113 340v602h201v-549q0 -108 14 -158q12 -43 46 -69q36 -27 88 -27q85 0 139 70q36 47 47 124q7 48 7 136v473h201v-942h-189v119q-96 -148 -265 -148q-112 0 -188 61q-76 62 -94 181q-7 43 -7 127zM239 1092l158 273h178l160 -273h-168l-84 153l-87 -153h-157z" />
<glyph unicode="&#xfc;" horiz-adv-x="973" vert-adv-y="1433" d="M113 340v602h201v-549q0 -108 14 -158q12 -43 46 -69q36 -27 88 -27q85 0 139 70q36 47 47 124q7 48 7 136v473h201v-942h-189v119q-96 -148 -265 -148q-112 0 -188 61q-76 62 -94 181q-7 43 -7 127zM228 1106v205h192v-205h-192zM553 1106v205h192v-205h-192z" />
<glyph unicode="&#xfd;" horiz-adv-x="850" vert-adv-y="1433" d="M6 942h219l209 -689l200 689h209l-306 -922q-72 -219 -118 -281q-70 -94 -196 -94q-53 0 -134 11v172q66 -13 100 -13q61 0 91 67q38 85 48 139zM319 1092l170 273h180l-186 -273h-164z" />
<glyph unicode="&#xfe;" horiz-adv-x="1018" vert-adv-y="1433" d="M117 -355v1720h201v-529q88 135 259 135q176 0 277 -147q97 -142 97 -354q0 -228 -106 -364q-105 -135 -275 -135q-163 0 -252 133v-459h-201zM314 475q0 -163 61 -252q58 -84 156 -84t153 84q62 93 62 244q0 143 -55 238q-58 98 -160 98q-106 0 -165 -98 q-52 -88 -52 -230z" />
<glyph unicode="&#xff;" horiz-adv-x="850" vert-adv-y="1433" d="M6 942h219l209 -689l200 689h209l-306 -922q-72 -219 -118 -281q-70 -94 -196 -94q-53 0 -134 11v172q66 -13 100 -13q61 0 91 67q38 85 48 139zM166 1106v205h192v-205h-192zM491 1106v205h192v-205h-192z" />
<glyph unicode="&#x106;" horiz-adv-x="1180" vert-adv-y="1433" d="M73 679q0 283 130 481q154 236 426 236q244 0 387 -199q83 -116 97 -269h-222q-19 110 -69 176q-77 100 -199 100q-153 0 -234 -138q-91 -156 -91 -386q0 -225 87 -379q80 -141 234 -141q241 0 280 363h222q-11 -208 -117 -358q-139 -198 -385 -198q-243 0 -386 181 q-160 203 -160 531zM482 1475l170 259h186l-185 -259h-171z" />
<glyph unicode="&#x107;" horiz-adv-x="921" vert-adv-y="1433" d="M68 464q0 222 107 357q118 150 315 150q191 0 293 -132q60 -77 71 -192h-200q-10 54 -34 89q-47 67 -131 67q-106 0 -162 -96q-54 -91 -54 -239q0 -152 58 -244q54 -85 153 -85q103 0 153 95q22 40 30 99h199q-19 -144 -95 -236q-106 -126 -288 -126q-181 0 -289 119 q-126 138 -126 374zM356 1092l170 273h180l-186 -273h-164z" />
<glyph unicode="&#x10c;" horiz-adv-x="1180" vert-adv-y="1433" d="M73 679q0 283 130 481q154 236 426 236q244 0 387 -199q83 -116 97 -269h-222q-19 110 -69 176q-77 100 -199 100q-153 0 -234 -138q-91 -156 -91 -386q0 -225 87 -379q80 -141 234 -141q241 0 280 363h222q-11 -208 -117 -358q-139 -198 -385 -198q-243 0 -386 181 q-160 203 -160 531zM310 1734h180l100 -148l100 148h181l-183 -259h-195z" />
<glyph unicode="&#x10d;" horiz-adv-x="921" vert-adv-y="1433" d="M68 464q0 222 107 357q118 150 315 150q191 0 293 -132q60 -77 71 -192h-200q-10 54 -34 89q-47 67 -131 67q-106 0 -162 -96q-54 -91 -54 -239q0 -152 58 -244q54 -85 153 -85q103 0 153 95q22 40 30 99h199q-19 -144 -95 -236q-106 -126 -288 -126q-181 0 -289 119 q-126 138 -126 374zM213 1365h168l84 -153l87 153h157l-158 -273h-178z" />
<glyph unicode="&#x110;" horiz-adv-x="1196" vert-adv-y="1433" d="M0 609v193h125v563h419q273 0 413 -153q166 -182 166 -520q0 -397 -216 -585q-82 -72 -190 -94q-65 -13 -162 -13h-430v609h-125zM350 188h174q107 0 161 21q100 38 159 169q54 123 54 314q0 262 -117 387q-53 56 -119 79q-54 19 -135 19h-177v-375h273v-193h-273v-421z " />
<glyph unicode="&#x111;" horiz-adv-x="1018" vert-adv-y="1433" d="M68 473q0 229 105 363q52 67 131 103q70 32 146 32q162 0 251 -133v244h-246v129h246v154h201v-154h90v-129h-90v-1082h-188v106q-96 -135 -269 -135q-179 0 -280 147q-97 142 -97 355zM273 479q0 -145 55 -242q57 -98 161 -98q106 0 163 98q53 90 53 234q0 160 -62 248 q-58 84 -155 84t-153 -84q-62 -92 -62 -240z" />
<glyph unicode="&#x152;" horiz-adv-x="1787" vert-adv-y="1433" d="M73 683q0 325 152 523q75 96 179 147q91 44 189 44q186 0 306 -160v128h796v-193h-591v-370h546v-193h-546v-416h601v-193h-806v126q-125 -159 -310 -159q-164 0 -298 121q-218 197 -218 595zM298 695q0 -237 77 -383q40 -76 114 -120q54 -32 117 -32q84 0 154 61 q77 67 116 207q31 112 31 257q0 232 -83 377q-81 142 -221 142q-138 0 -220 -139q-85 -145 -85 -370z" />
<glyph unicode="&#x153;" horiz-adv-x="1501" vert-adv-y="1433" d="M68 472q0 208 98 346q110 153 305 153q185 0 292 -155q108 155 280 155q143 0 246 -100q144 -141 144 -451h-594q3 -90 25 -150q54 -143 186 -143q126 0 176 155h190q-17 -78 -55 -140q-105 -171 -310 -171q-185 0 -291 150q-107 -150 -289 -150q-191 0 -298 143 q-105 139 -105 358zM273 476q0 -163 56 -253q52 -84 147 -84q85 0 135 74q62 93 62 260q0 156 -55 244q-53 86 -145 86q-90 0 -143 -85q-57 -92 -57 -242zM842 561h390q-6 81 -33 139q-55 115 -161 115q-103 0 -155 -102q-31 -61 -41 -152z" />
<glyph unicode="&#x160;" horiz-adv-x="1045" vert-adv-y="1433" d="M68 417h234q4 -103 42 -164q63 -102 188 -102q105 0 164 70q47 56 47 134q0 115 -106 181q-50 31 -222 102q-135 56 -215 135q-102 101 -102 257q0 169 124 274q109 92 280 92q235 0 353 -156q67 -87 78 -237h-219q-8 87 -42 130q-54 70 -169 70q-82 0 -130 -40 q-57 -48 -57 -131q0 -88 70 -146q56 -46 187 -98q128 -51 180 -80q224 -124 224 -351q0 -165 -117 -274q-123 -116 -330 -116q-239 0 -365 160q-88 113 -97 290zM242 1734h180l100 -148l100 148h181l-183 -259h-195z" />
<glyph unicode="&#x161;" horiz-adv-x="849" vert-adv-y="1433" d="M67 267h200q10 -66 39 -97q43 -47 127 -47q79 0 120 42q33 35 33 90q0 81 -86 121q-32 16 -163 47q-257 62 -257 273q0 122 89 198q90 77 239 77q204 0 297 -125q41 -56 50 -145h-200q-18 119 -151 119q-63 0 -100 -32q-37 -31 -37 -82q0 -56 41 -85q33 -23 122 -43 q157 -36 216 -68q145 -76 145 -234q0 -135 -99 -222q-93 -83 -259 -83q-324 0 -366 296zM177 1365h168l84 -153l87 153h157l-158 -273h-178z" />
<glyph unicode="&#x178;" horiz-adv-x="1040" vert-adv-y="1433" d="M-18 1365h253l291 -597l288 597h245l-424 -822v-543h-225v545zM262 1447v205h192v-205h-192zM587 1447v205h192v-205h-192z" />
<glyph unicode="&#x17d;" horiz-adv-x="1050" vert-adv-y="1433" d="M61 0v186l657 986h-606v193h875v-181l-661 -991h677v-193h-942zM245 1734h180l100 -148l100 148h181l-183 -259h-195z" />
<glyph unicode="&#x17e;" horiz-adv-x="824" vert-adv-y="1433" d="M51 0v159l473 615h-441v168h690v-146l-474 -628h498v-168h-746zM164 1365h168l84 -153l87 153h157l-158 -273h-178z" />
<glyph unicode="&#x2c6;" horiz-adv-x="1036" vert-adv-y="1433" d="M270 1092l158 273h178l160 -273h-168l-84 153l-87 -153h-157z" />
<glyph unicode="&#x2da;" vert-adv-y="1433" d="M316 1258q0 83 58 139q57 55 139 55q77 0 133 -56q57 -57 57 -138q0 -79 -55 -135q-57 -58 -139 -58q-81 0 -136 56q-57 57 -57 137zM418 1255q0 -41 28 -71q27 -29 66 -29q40 0 68 30q27 29 27 70q0 42 -28 72q-27 29 -65 29q-40 0 -68 -29t-28 -72z" />
<glyph unicode="&#x2dc;" horiz-adv-x="1036" vert-adv-y="1433" d="M229 1106q6 67 26 119q29 72 82 105q37 24 78 24q49 0 102 -29l70 -39q21 -12 40 -12q43 0 58 91h122q-9 -76 -29 -126q-49 -122 -152 -122q-50 0 -148 53q-47 26 -68 26q-43 0 -61 -90h-120z" />
<glyph unicode="&#x2000;" horiz-adv-x="913" vert-adv-y="0" />
<glyph unicode="&#x2001;" horiz-adv-x="1826" vert-adv-y="0" />
<glyph unicode="&#x2002;" horiz-adv-x="913" vert-adv-y="0" />
<glyph unicode="&#x2003;" horiz-adv-x="1826" vert-adv-y="0" />
<glyph unicode="&#x2004;" horiz-adv-x="608" vert-adv-y="0" />
<glyph unicode="&#x2005;" horiz-adv-x="456" vert-adv-y="0" />
<glyph unicode="&#x2006;" horiz-adv-x="304" vert-adv-y="0" />
<glyph unicode="&#x2007;" horiz-adv-x="304" vert-adv-y="0" />
<glyph unicode="&#x2008;" horiz-adv-x="228" vert-adv-y="0" />
<glyph unicode="&#x2009;" horiz-adv-x="365" vert-adv-y="0" />
<glyph unicode="&#x200a;" horiz-adv-x="101" vert-adv-y="0" />
<glyph unicode="&#x2010;" horiz-adv-x="433" vert-adv-y="1433" d="M6 414v197h421v-197h-421z" />
<glyph unicode="&#x2011;" horiz-adv-x="433" vert-adv-y="1433" d="M6 414v197h421v-197h-421z" />
<glyph unicode="&#x2012;" horiz-adv-x="433" vert-adv-y="1433" d="M6 414v197h421v-197h-421z" />
<glyph unicode="&#x2013;" horiz-adv-x="960" vert-adv-y="1433" d="M111 414v197h739v-197h-739z" />
<glyph unicode="&#x2014;" horiz-adv-x="1444" vert-adv-y="1433" d="M117 414v197h1214v-197h-1214z" />
<glyph unicode="&#x2018;" horiz-adv-x="504" vert-adv-y="1433" d="M129 853v171q0 129 29 197q54 127 217 165v-119q-107 -27 -111 -168h111v-246h-246z" />
<glyph unicode="&#x2019;" horiz-adv-x="504" vert-adv-y="1433" d="M129 832v119q107 27 111 168h-111v246h246v-171q0 -129 -29 -197q-54 -127 -217 -165z" />
<glyph unicode="&#x201a;" horiz-adv-x="504" vert-adv-y="1433" d="M129 0v246h246v-171q0 -129 -29 -197q-54 -127 -217 -165v119q107 27 111 168h-111z" />
<glyph unicode="&#x201c;" horiz-adv-x="831" vert-adv-y="1433" d="M129 853v171q0 129 29 197q54 127 217 165v-119q-107 -27 -111 -168h111v-246h-246zM456 853v171q0 129 29 197q54 127 217 165v-119q-107 -27 -111 -168h111v-246h-246z" />
<glyph unicode="&#x201d;" horiz-adv-x="831" vert-adv-y="1433" d="M129 832v119q107 27 111 168h-111v246h246v-171q0 -129 -29 -197q-54 -127 -217 -165zM456 832v119q107 27 111 168h-111v246h246v-171q0 -129 -29 -197q-54 -127 -217 -165z" />
<glyph unicode="&#x201e;" horiz-adv-x="831" vert-adv-y="1433" d="M129 0v246h246v-171q0 -129 -29 -197q-54 -127 -217 -165v119q107 27 111 168h-111zM456 0v246h246v-171q0 -129 -29 -197q-54 -127 -217 -165v119q107 27 111 168h-111z" />
<glyph unicode="&#x2022;" horiz-adv-x="1365" vert-adv-y="1433" d="M401 693q0 121 84 202q85 83 204 83q113 0 196 -83q84 -83 84 -201t-84 -201q-82 -83 -200 -83t-200 83q-84 83 -84 200z" />
<glyph unicode="&#x2026;" horiz-adv-x="1503" vert-adv-y="1433" d="M129 0v246h246v-246h-246zM629 0v246h246v-246h-246zM1128 0v246h246v-246h-246z" />
<glyph unicode="&#x202f;" horiz-adv-x="365" vert-adv-y="0" />
<glyph unicode="&#x2039;" horiz-adv-x="455" vert-adv-y="1433" d="M88 408v208l258 241v-206l-152 -138l152 -142v-209z" />
<glyph unicode="&#x203a;" horiz-adv-x="454" vert-adv-y="1433" d="M109 162v205l152 140l-152 141v209l257 -244v-211z" />
<glyph unicode="&#x205f;" horiz-adv-x="456" vert-adv-y="0" />
<glyph unicode="&#x20ac;" horiz-adv-x="1182" vert-adv-y="1433" d="M35 490l55 145h84q-1 25 -1 50q0 17 1 45h-139l55 145h99q27 145 94 261q153 262 446 262q158 0 288 -70q38 -21 90 -59l-74 -193q-65 57 -110 81q-87 48 -184 48q-153 0 -233 -107q-61 -82 -90 -223h533l-56 -145h-494q-1 -20 -1 -50q0 -21 1 -45h458l-56 -145h-385 q15 -77 40 -135q39 -91 95 -138q70 -58 183 -58q107 0 195 65q21 16 59 50l128 -131q-56 -53 -92 -79q-136 -98 -317 -98q-311 0 -455 313q-41 89 -63 211h-154z" />
<glyph unicode="&#x2122;" horiz-adv-x="1456" vert-adv-y="1433" d="M9 1226v139h579v-139h-209v-680h-160v680h-210zM658 546v819h202l170 -581l164 581h202v-819h-150v539l-149 -539h-133l-156 536v-536h-150z" />
<glyph unicode="&#xe000;" horiz-adv-x="940" vert-adv-y="1880" d="M0 0v940h940v-940h-940z" />
</font>
</defs>
</svg>
